STARTFONT 2.1
COMMENT 
COMMENT Public domain font derived from JIS X 9051-1984
COMMENT 
FONT -JIS-Gothic-Medium-R-Normal--18-170-75-75-C-180-JISX0208.1983-0
SIZE 18 75 75
FONTBOUNDINGBOX 18 18 0 -3
STARTPROPERTIES 19
FONTNAME_REGISTRY ""
FOUNDRY "JIS"
FAMILY_NAME "Gothic"
WEIGHT_NAME "Medium"
SLANT "R"
SETWIDTH_NAME "Normal"
ADD_STYLE_NAME ""
PIXEL_SIZE 18
POINT_SIZE 170
RESOLUTION_X 75
RESOLUTION_Y 75
SPACING "C"
AVERAGE_WIDTH 180
CHARSET_REGISTRY "JISX0208.1983"
CHARSET_ENCODING "0"
DEFAULT_CHAR 8481
FONT_DESCENT 3
FONT_ASCENT 15
COPYRIGHT "Public domain font. Share and enjoy."
ENDPROPERTIES
CHARS 6877
STARTCHAR 2121
ENCODING 8481
SWIDTH 1016 0
DWIDTH 18 0
BBX 16 16 1 -2
BITMAP
0000
0000
0000
0000
0000
0000
0000
0000
0000
0000
0000
0000
0000
0000
0000
0000
ENDCHAR
STARTCHAR 2122
ENCODING 8482
SWIDTH 1016 0
DWIDTH 18 0
BBX 16 16 1 -2
BITMAP
0000
0000
0000
0000
0000
0000
0000
0000
0000
0000
0000
0000
0000
6000
3000
1000
ENDCHAR
STARTCHAR 2123
ENCODING 8483
SWIDTH 1016 0
DWIDTH 18 0
BBX 16 16 1 -2
BITMAP
0000
0000
0000
0000
0000
0000
0000
0000
0000
0000
0000
0000
6000
9000
9000
6000
ENDCHAR
STARTCHAR 2124
ENCODING 8484
SWIDTH 1016 0
DWIDTH 18 0
BBX 16 16 1 -2
BITMAP
0000
0000
0000
0000
0000
0000
0000
0000
0000
0000
0000
0000
6000
6000
2000
4000
ENDCHAR
STARTCHAR 2125
ENCODING 8485
SWIDTH 1016 0
DWIDTH 18 0
BBX 16 16 1 -2
BITMAP
0000
0000
0000
0000
0000
0000
0000
0000
0000
0000
0000
0000
6000
6000
0000
0000
ENDCHAR
STARTCHAR 2126
ENCODING 8486
SWIDTH 1016 0
DWIDTH 18 0
BBX 16 16 1 -2
BITMAP
0000
0000
0000
0000
0000
0000
0000
0180
0180
0000
0000
0000
0000
0000
0000
0000
ENDCHAR
STARTCHAR 2127
ENCODING 8487
SWIDTH 1016 0
DWIDTH 18 0
BBX 16 16 1 -2
BITMAP
0000
0000
0000
0000
0000
0000
0180
0180
0000
0000
0000
0000
0180
0180
0000
0000
ENDCHAR
STARTCHAR 2128
ENCODING 8488
SWIDTH 1016 0
DWIDTH 18 0
BBX 16 16 1 -2
BITMAP
0000
0000
0000
0000
0000
0000
0180
0180
0000
0000
0000
0000
0180
0180
0080
0100
ENDCHAR
STARTCHAR 2129
ENCODING 8489
SWIDTH 1016 0
DWIDTH 18 0
BBX 16 16 1 -2
BITMAP
0000
07e0
0810
1008
1008
0808
0030
00c0
0100
0100
0000
0000
0180
0180
0000
0000
ENDCHAR
STARTCHAR 212a
ENCODING 8490
SWIDTH 1016 0
DWIDTH 18 0
BBX 16 16 1 -2
BITMAP
0000
0180
0180
0180
0180
0180
0100
0100
0100
0100
0000
0000
0180
0180
0000
0000
ENDCHAR
STARTCHAR 212b
ENCODING 8491
SWIDTH 1016 0
DWIDTH 18 0
BBX 16 16 1 -2
BITMAP
5000
5000
0000
0000
0000
0000
0000
0000
0000
0000
0000
0000
0000
0000
0000
0000
ENDCHAR
STARTCHAR 212c
ENCODING 8492
SWIDTH 1016 0
DWIDTH 18 0
BBX 16 16 1 -2
BITMAP
0000
0000
6000
9000
9000
6000
0000
0000
0000
0000
0000
0000
0000
0000
0000
0000
ENDCHAR
STARTCHAR 212d
ENCODING 8493
SWIDTH 1016 0
DWIDTH 18 0
BBX 16 16 1 -2
BITMAP
00c0
0300
0000
0000
0000
0000
0000
0000
0000
0000
0000
0000
0000
0000
0000
0000
ENDCHAR
STARTCHAR 212e
ENCODING 8494
SWIDTH 1016 0
DWIDTH 18 0
BBX 16 16 1 -2
BITMAP
0300
00c0
0000
0000
0000
0000
0000
0000
0000
0000
0000
0000
0000
0000
0000
0000
ENDCHAR
STARTCHAR 212f
ENCODING 8495
SWIDTH 1016 0
DWIDTH 18 0
BBX 16 16 1 -2
BITMAP
0660
0660
0000
0000
0000
0000
0000
0000
0000
0000
0000
0000
0000
0000
0000
0000
ENDCHAR
STARTCHAR 2130
ENCODING 8496
SWIDTH 1016 0
DWIDTH 18 0
BBX 16 16 1 -2
BITMAP
0180
0660
0000
0000
0000
0000
0000
0000
0000
0000
0000
0000
0000
0000
0000
0000
ENDCHAR
STARTCHAR 2131
ENCODING 8497
SWIDTH 1016 0
DWIDTH 18 0
BBX 16 16 1 -2
BITMAP
ffff
0000
0000
0000
0000
0000
0000
0000
0000
0000
0000
0000
0000
0000
0000
0000
ENDCHAR
STARTCHAR 2132
ENCODING 8498
SWIDTH 1016 0
DWIDTH 18 0
BBX 16 16 1 -2
BITMAP
0000
0000
0000
0000
0000
0000
0000
0000
0000
0000
0000
0000
0000
0000
0000
ffff
ENDCHAR
STARTCHAR 2133
ENCODING 8499
SWIDTH 1016 0
DWIDTH 18 0
BBX 16 16 1 -2
BITMAP
0000
0000
0000
0000
0600
0300
0180
00c0
0060
0020
0030
0010
0000
0000
0000
0000
ENDCHAR
STARTCHAR 2134
ENCODING 8500
SWIDTH 1016 0
DWIDTH 18 0
BBX 16 16 1 -2
BITMAP
0000
0000
0000
0050
0c50
0600
0300
0180
00c0
0040
0060
0020
0000
0000
0000
0000
ENDCHAR
STARTCHAR 2135
ENCODING 8501
SWIDTH 1016 0
DWIDTH 18 0
BBX 16 16 1 -2
BITMAP
0000
0000
0000
0800
0c00
0600
0300
01c0
0060
0030
0060
01c0
0300
0000
0000
0000
ENDCHAR
STARTCHAR 2136
ENCODING 8502
SWIDTH 1016 0
DWIDTH 18 0
BBX 16 16 1 -2
BITMAP
0000
0000
0000
0828
0c28
0600
0300
01c0
0060
0030
0060
01c0
0300
0000
0000
0000
ENDCHAR
STARTCHAR 2137
ENCODING 8503
SWIDTH 1016 0
DWIDTH 18 0
BBX 16 16 1 -2
BITMAP
0000
0000
0000
0420
0420
0420
0420
0420
0420
0420
0840
0840
1080
0000
0000
0000
ENDCHAR
STARTCHAR 2138
ENCODING 8504
SWIDTH 1016 0
DWIDTH 18 0
BBX 16 16 1 -2
BITMAP
0100
0380
06c0
0c60
1830
301c
e007
0000
3ffc
0100
0100
0100
0100
0100
ffff
0000
ENDCHAR
STARTCHAR 2139
ENCODING 8505
SWIDTH 1016 0
DWIDTH 18 0
BBX 16 16 1 -2
BITMAP
0000
0200
0200
0200
07f8
0408
0c18
0810
1830
3360
01c0
0060
0030
0010
0000
0000
ENDCHAR
STARTCHAR 213a
ENCODING 8506
SWIDTH 1016 0
DWIDTH 18 0
BBX 16 16 1 -2
BITMAP
0000
0006
000c
0018
0730
09e0
10c0
11e0
3330
2600
2c00
2800
3800
3000
6000
0000
ENDCHAR
STARTCHAR 213b
ENCODING 8507
SWIDTH 1016 0
DWIDTH 18 0
BBX 16 16 1 -2
BITMAP
0000
0000
07e0
1c38
300c
2004
6006
4002
4002
6006
2004
300c
1c38
07e0
0000
0000
ENDCHAR
STARTCHAR 213c
ENCODING 8508
SWIDTH 1016 0
DWIDTH 18 0
BBX 16 16 1 -2
BITMAP
0000
0000
0000
0000
0000
0000
4000
3ffe
0000
0000
0000
0000
0000
0000
0000
0000
ENDCHAR
STARTCHAR 213d
ENCODING 8509
SWIDTH 1016 0
DWIDTH 18 0
BBX 16 16 1 -2
BITMAP
0000
0000
0000
0000
0000
0000
0000
ffff
0000
0000
0000
0000
0000
0000
0000
0000
ENDCHAR
STARTCHAR 213e
ENCODING 8510
SWIDTH 1016 0
DWIDTH 18 0
BBX 16 16 1 -2
BITMAP
0000
0000
0000
0000
0000
0000
0000
07e0
0000
0000
0000
0000
0000
0000
0000
0000
ENDCHAR
STARTCHAR 213f
ENCODING 8511
SWIDTH 1016 0
DWIDTH 18 0
BBX 16 16 1 -2
BITMAP
0001
0002
0004
0008
0010
0020
0040
0080
0100
0200
0400
0800
1000
2000
4000
8000
ENDCHAR
STARTCHAR 2140
ENCODING 8512
SWIDTH 1016 0
DWIDTH 18 0
BBX 16 16 1 -2
BITMAP
8000
4000
2000
1000
0800
0400
0200
0100
0080
0040
0020
0010
0008
0004
0002
0001
ENDCHAR
STARTCHAR 2141
ENCODING 8513
SWIDTH 1016 0
DWIDTH 18 0
BBX 16 16 1 -2
BITMAP
0000
0000
0000
0000
0000
0000
3c00
4301
80c2
003c
0000
0000
0000
0000
0000
0000
ENDCHAR
STARTCHAR 2142
ENCODING 8514
SWIDTH 1016 0
DWIDTH 18 0
BBX 16 16 1 -2
BITMAP
0440
0440
0440
0440
0440
0440
0440
0440
0440
0440
0440
0440
0440
0440
0440
0440
ENDCHAR
STARTCHAR 2143
ENCODING 8515
SWIDTH 1016 0
DWIDTH 18 0
BBX 16 16 1 -2
BITMAP
0100
0100
0100
0100
0100
0100
0100
0100
0100
0100
0100
0100
0100
0100
0100
0100
ENDCHAR
STARTCHAR 2144
ENCODING 8516
SWIDTH 1016 0
DWIDTH 18 0
BBX 16 16 1 -2
BITMAP
0000
0000
0000
0000
0000
0000
0000
6186
6186
0000
0000
0000
0000
0000
0000
0000
ENDCHAR
STARTCHAR 2145
ENCODING 8517
SWIDTH 1016 0
DWIDTH 18 0
BBX 16 16 1 -2
BITMAP
0000
0000
0000
0000
0000
0000
0000
1818
1818
0000
0000
0000
0000
0000
0000
0000
ENDCHAR
STARTCHAR 2146
ENCODING 8518
SWIDTH 1016 0
DWIDTH 18 0
BBX 16 16 1 -2
BITMAP
0008
0010
0018
0018
0000
0000
0000
0000
0000
0000
0000
0000
0000
0000
0000
0000
ENDCHAR
STARTCHAR 2147
ENCODING 8519
SWIDTH 1016 0
DWIDTH 18 0
BBX 16 16 1 -2
BITMAP
1800
1800
0800
1000
0000
0000
0000
0000
0000
0000
0000
0000
0000
0000
0000
0000
ENDCHAR
STARTCHAR 2148
ENCODING 8520
SWIDTH 1016 0
DWIDTH 18 0
BBX 16 16 1 -2
BITMAP
0024
0048
006c
006c
0000
0000
0000
0000
0000
0000
0000
0000
0000
0000
0000
0000
ENDCHAR
STARTCHAR 2149
ENCODING 8521
SWIDTH 1016 0
DWIDTH 18 0
BBX 16 16 1 -2
BITMAP
3600
3600
1200
2400
0000
0000
0000
0000
0000
0000
0000
0000
0000
0000
0000
0000
ENDCHAR
STARTCHAR 214a
ENCODING 8522
SWIDTH 1016 0
DWIDTH 18 0
BBX 16 16 1 -2
BITMAP
0008
0010
0030
0020
0060
0040
0040
0040
0040
0040
0040
0060
0020
0030
0010
0008
ENDCHAR
STARTCHAR 214b
ENCODING 8523
SWIDTH 1016 0
DWIDTH 18 0
BBX 16 16 1 -2
BITMAP
1000
0800
0c00
0400
0600
0200
0200
0200
0200
0200
0200
0600
0400
0c00
0800
1000
ENDCHAR
STARTCHAR 214c
ENCODING 8524
SWIDTH 1016 0
DWIDTH 18 0
BBX 16 16 1 -2
BITMAP
0008
0030
00c0
0080
0080
0080
0080
0080
0080
0080
0080
0080
0080
00c0
0030
0008
ENDCHAR
STARTCHAR 214d
ENCODING 8525
SWIDTH 1016 0
DWIDTH 18 0
BBX 16 16 1 -2
BITMAP
1000
0c00
0300
0100
0100
0100
0100
0100
0100
0100
0100
0100
0100
0300
0c00
1000
ENDCHAR
STARTCHAR 214e
ENCODING 8526
SWIDTH 1016 0
DWIDTH 18 0
BBX 16 16 1 -2
BITMAP
00f8
0080
0080
0080
0080
0080
0080
0080
0080
0080
0080
0080
0080
0080
0080
00f8
ENDCHAR
STARTCHAR 214f
ENCODING 8527
SWIDTH 1016 0
DWIDTH 18 0
BBX 16 16 1 -2
BITMAP
1f00
0100
0100
0100
0100
0100
0100
0100
0100
0100
0100
0100
0100
0100
0100
1f00
ENDCHAR
STARTCHAR 2150
ENCODING 8528
SWIDTH 1016 0
DWIDTH 18 0
BBX 16 16 1 -2
BITMAP
0008
0010
0020
0020
0020
0020
0020
0040
0020
0020
0020
0020
0020
0020
0010
0008
ENDCHAR
STARTCHAR 2151
ENCODING 8529
SWIDTH 1016 0
DWIDTH 18 0
BBX 16 16 1 -2
BITMAP
1000
0800
0400
0400
0400
0400
0400
0200
0400
0400
0400
0400
0400
0400
0800
1000
ENDCHAR
STARTCHAR 2152
ENCODING 8530
SWIDTH 1016 0
DWIDTH 18 0
BBX 16 16 1 -2
BITMAP
0008
0010
0010
0020
0040
0040
0080
0100
0100
0080
0040
0040
0020
0010
0010
0008
ENDCHAR
STARTCHAR 2153
ENCODING 8531
SWIDTH 1016 0
DWIDTH 18 0
BBX 16 16 1 -2
BITMAP
1000
0800
0800
0400
0200
0200
0100
0080
0080
0100
0200
0200
0400
0800
0800
1000
ENDCHAR
STARTCHAR 2154
ENCODING 8532
SWIDTH 1016 0
DWIDTH 18 0
BBX 16 16 1 -2
BITMAP
0012
0024
0024
0048
0090
0090
0120
0240
0240
0120
0090
0090
0048
0024
0024
0012
ENDCHAR
STARTCHAR 2155
ENCODING 8533
SWIDTH 1016 0
DWIDTH 18 0
BBX 16 16 1 -2
BITMAP
4800
2400
2400
1200
0900
0900
0480
0240
0240
0480
0900
0900
1200
2400
2400
4800
ENDCHAR
STARTCHAR 2156
ENCODING 8534
SWIDTH 1016 0
DWIDTH 18 0
BBX 16 16 1 -2
BITMAP
00f8
0080
0080
0080
0080
0080
0080
0080
0080
0080
0080
0000
0000
0000
0000
0000
ENDCHAR
STARTCHAR 2157
ENCODING 8535
SWIDTH 1016 0
DWIDTH 18 0
BBX 16 16 1 -2
BITMAP
0000
0000
0000
0000
0000
0100
0100
0100
0100
0100
0100
0100
0100
0100
0100
1f00
ENDCHAR
STARTCHAR 2158
ENCODING 8536
SWIDTH 1016 0
DWIDTH 18 0
BBX 16 16 1 -2
BITMAP
01f8
0108
0178
0140
0140
0140
0140
0140
0140
0140
01c0
0000
0000
0000
0000
0000
ENDCHAR
STARTCHAR 2159
ENCODING 8537
SWIDTH 1016 0
DWIDTH 18 0
BBX 16 16 1 -2
BITMAP
0000
0000
0000
0000
0000
0380
0280
0280
0280
0280
0280
0280
0280
1e80
1080
1f80
ENDCHAR
STARTCHAR 215a
ENCODING 8538
SWIDTH 1016 0
DWIDTH 18 0
BBX 16 16 1 -2
BITMAP
00f8
00f0
00e0
00c0
00c0
0080
0080
0080
0080
0080
0080
00c0
00c0
00e0
00f0
00f8
ENDCHAR
STARTCHAR 215b
ENCODING 8539
SWIDTH 1016 0
DWIDTH 18 0
BBX 16 16 1 -2
BITMAP
1f00
0f00
0700
0300
0300
0100
0100
0100
0100
0100
0100
0300
0300
0700
0f00
1f00
ENDCHAR
STARTCHAR 215c
ENCODING 8540
SWIDTH 1016 0
DWIDTH 18 0
BBX 16 16 1 -2
BITMAP
0000
0000
0100
0100
0100
0100
0100
3ffc
0100
0100
0100
0100
0100
0100
0000
0000
ENDCHAR
STARTCHAR 215d
ENCODING 8541
SWIDTH 1016 0
DWIDTH 18 0
BBX 16 16 1 -2
BITMAP
0000
0000
0000
0000
0000
0000
0000
3ffc
0000
0000
0000
0000
0000
0000
0000
0000
ENDCHAR
STARTCHAR 215e
ENCODING 8542
SWIDTH 1016 0
DWIDTH 18 0
BBX 16 16 1 -2
BITMAP
0000
0000
0100
0100
0100
0100
3ffc
0100
0100
0100
0100
0000
0000
3ffc
0000
0000
ENDCHAR
STARTCHAR 215f
ENCODING 8543
SWIDTH 1016 0
DWIDTH 18 0
BBX 16 16 1 -2
BITMAP
0000
0000
0000
1008
0810
0420
0240
0180
0180
0240
0420
0810
1008
0000
0000
0000
ENDCHAR
STARTCHAR 2160
ENCODING 8544
SWIDTH 1016 0
DWIDTH 18 0
BBX 16 16 1 -2
BITMAP
0000
0000
0000
0180
0180
0000
0000
3ffc
0000
0000
0180
0180
0000
0000
0000
0000
ENDCHAR
STARTCHAR 2161
ENCODING 8545
SWIDTH 1016 0
DWIDTH 18 0
BBX 16 16 1 -2
BITMAP
0000
0000
0000
0000
0000
3ffc
0000
0000
0000
3ffc
0000
0000
0000
0000
0000
0000
ENDCHAR
STARTCHAR 2162
ENCODING 8546
SWIDTH 1016 0
DWIDTH 18 0
BBX 16 16 1 -2
BITMAP
0000
0000
0040
0040
0080
3ffc
0080
0100
0100
3ffc
0100
0200
0200
0000
0000
0000
ENDCHAR
STARTCHAR 2163
ENCODING 8547
SWIDTH 1016 0
DWIDTH 18 0
BBX 16 16 1 -2
BITMAP
0000
0006
0018
0060
0180
0600
1800
6000
1800
0400
0300
00c0
0020
0018
0006
0000
ENDCHAR
STARTCHAR 2164
ENCODING 8548
SWIDTH 1016 0
DWIDTH 18 0
BBX 16 16 1 -2
BITMAP
0000
6000
1800
0600
0180
0060
0018
0006
0018
0020
00c0
0300
0400
1800
6000
0000
ENDCHAR
STARTCHAR 2165
ENCODING 8549
SWIDTH 1016 0
DWIDTH 18 0
BBX 16 16 1 -2
BITMAP
0000
0000
001c
00e0
0700
3800
0700
00e0
001c
0000
3ffc
0000
0000
3ffc
0000
0000
ENDCHAR
STARTCHAR 2166
ENCODING 8550
SWIDTH 1016 0
DWIDTH 18 0
BBX 16 16 1 -2
BITMAP
0000
0000
3800
0700
00e0
001c
00e0
0700
3800
0000
3ffc
0000
0000
3ffc
0000
0000
ENDCHAR
STARTCHAR 2167
ENCODING 8551
SWIDTH 1016 0
DWIDTH 18 0
BBX 16 16 1 -2
BITMAP
0000
0000
0000
0000
1c38
2244
4182
4182
4182
4182
2244
1c38
0000
0000
0000
0000
ENDCHAR
STARTCHAR 2168
ENCODING 8552
SWIDTH 1016 0
DWIDTH 18 0
BBX 16 16 1 -2
BITMAP
0000
0000
0000
0180
0180
0000
0000
0000
0000
0000
0000
300c
300c
0000
0000
0000
ENDCHAR
STARTCHAR 2169
ENCODING 8553
SWIDTH 1016 0
DWIDTH 18 0
BBX 16 16 1 -2
BITMAP
0000
00fe
0006
000a
0012
0022
0042
1e82
2100
4080
4080
4080
4080
2100
1e00
0000
ENDCHAR
STARTCHAR 216a
ENCODING 8554
SWIDTH 1016 0
DWIDTH 18 0
BBX 16 16 1 -2
BITMAP
0000
03c0
0420
0810
0810
0810
0810
0420
03c0
0100
1ff8
0100
0100
0100
0100
0100
ENDCHAR
STARTCHAR 216b
ENCODING 8555
SWIDTH 1016 0
DWIDTH 18 0
BBX 16 16 1 -2
BITMAP
0000
3000
4800
4800
3000
0000
0000
0000
0000
0000
0000
0000
0000
0000
0000
0000
ENDCHAR
STARTCHAR 216c
ENCODING 8556
SWIDTH 1016 0
DWIDTH 18 0
BBX 16 16 1 -2
BITMAP
0000
0800
1800
3000
2000
0000
0000
0000
0000
0000
0000
0000
0000
0000
0000
0000
ENDCHAR
STARTCHAR 216d
ENCODING 8557
SWIDTH 1016 0
DWIDTH 18 0
BBX 16 16 1 -2
BITMAP
0000
1100
3300
6600
4400
0000
0000
0000
0000
0000
0000
0000
0000
0000
0000
0000
ENDCHAR
STARTCHAR 216e
ENCODING 8558
SWIDTH 1016 0
DWIDTH 18 0
BBX 16 16 1 -2
BITMAP
0000
60f2
930a
9606
6402
0c02
0800
0800
0800
0c00
0402
0606
030c
00f0
0000
0000
ENDCHAR
STARTCHAR 216f
ENCODING 8559
SWIDTH 1016 0
DWIDTH 18 0
BBX 16 16 1 -2
BITMAP
0000
7c3e
1008
1008
0810
7ffe
0420
0440
0280
7ffe
0100
0100
0100
0100
07c0
0000
ENDCHAR
STARTCHAR 2170
ENCODING 8560
SWIDTH 1016 0
DWIDTH 18 0
BBX 16 16 1 -2
BITMAP
0000
0100
07e0
0930
1118
1100
0900
0700
01e0
0110
0108
1108
1910
0fe0
0100
0000
ENDCHAR
STARTCHAR 2171
ENCODING 8561
SWIDTH 1016 0
DWIDTH 18 0
BBX 16 16 1 -2
BITMAP
0000
0000
0000
0000
0000
0020
03c0
0460
0890
0880
0900
0900
0610
03e0
0400
0000
ENDCHAR
STARTCHAR 2172
ENCODING 8562
SWIDTH 1016 0
DWIDTH 18 0
BBX 16 16 1 -2
BITMAP
0000
01f0
0208
0404
0400
0400
0400
0400
7ff0
0200
0200
3a00
4602
4584
3878
0000
ENDCHAR
STARTCHAR 2173
ENCODING 8563
SWIDTH 1016 0
DWIDTH 18 0
BBX 16 16 1 -2
BITMAP
0000
3802
4404
4408
4410
4420
4440
3880
011c
0222
0422
0822
1022
2022
401c
0000
ENDCHAR
STARTCHAR 2174
ENCODING 8564
SWIDTH 1016 0
DWIDTH 18 0
BBX 16 16 1 -2
BITMAP
0210
0210
0210
0210
1ffc
1ffc
0420
0420
0420
0420
3ff8
3ff8
0840
0840
0840
0840
ENDCHAR
STARTCHAR 2175
ENCODING 8565
SWIDTH 1016 0
DWIDTH 18 0
BBX 16 16 1 -2
BITMAP
0000
0f00
1880
1080
1180
1b00
0e7c
0c10
1e30
3320
61e0
40c0
41e2
2336
1e1c
0000
ENDCHAR
STARTCHAR 2176
ENCODING 8566
SWIDTH 1016 0
DWIDTH 18 0
BBX 16 16 1 -2
BITMAP
0000
0000
0000
0000
0100
1930
0d60
07c0
0100
07c0
0d60
1930
0100
0000
0000
0000
ENDCHAR
STARTCHAR 2177
ENCODING 8567
SWIDTH 1016 0
DWIDTH 18 0
BBX 16 16 1 -2
BITMAP
0000
0000
03c0
0c30
1008
11a8
2264
2444
2444
24c8
1370
1004
0c18
03e0
0000
0000
ENDCHAR
STARTCHAR 2178
ENCODING 8568
SWIDTH 1016 0
DWIDTH 18 0
BBX 16 16 1 -2
BITMAP
0000
07c0
0c70
0c30
0e00
0780
0ce0
0830
0c10
0730
01e0
0070
0c30
0e30
03e0
0000
ENDCHAR
STARTCHAR 2179
ENCODING 8569
SWIDTH 1016 0
DWIDTH 18 0
BBX 16 16 1 -2
BITMAP
0000
0100
0280
0280
0440
0440
7c7c
2008
1010
0820
0820
1110
1290
2c68
3018
0000
ENDCHAR
STARTCHAR 217a
ENCODING 8570
SWIDTH 1016 0
DWIDTH 18 0
BBX 16 16 1 -2
BITMAP
0000
0100
0100
0380
0380
07c0
7ffc
3ff8
1ff0
0fe0
0fe0
1ef0
1c70
3838
2008
0000
ENDCHAR
STARTCHAR 217b
ENCODING 8571
SWIDTH 1016 0
DWIDTH 18 0
BBX 16 16 1 -2
BITMAP
0000
03c0
0c30
1008
2004
2004
4002
4002
4002
4002
2004
2004
1008
0c30
03c0
0000
ENDCHAR
STARTCHAR 217c
ENCODING 8572
SWIDTH 1016 0
DWIDTH 18 0
BBX 16 16 1 -2
BITMAP
0000
03c0
0ff0
1ff8
3ffc
3ffc
7ffe
7ffe
7ffe
7ffe
3ffc
3ffc
1ff8
0ff0
03c0
0000
ENDCHAR
STARTCHAR 217d
ENCODING 8573
SWIDTH 1016 0
DWIDTH 18 0
BBX 16 16 1 -2
BITMAP
0000
03c0
0c30
1008
23c4
2424
4812
4812
4812
4812
2424
23c4
1008
0c30
03c0
0000
ENDCHAR
STARTCHAR 217e
ENCODING 8574
SWIDTH 1016 0
DWIDTH 18 0
BBX 16 16 1 -2
BITMAP
0180
0240
0420
0810
1008
2004
4002
8001
8001
4002
2004
1008
0810
0420
0240
0180
ENDCHAR
STARTCHAR 2221
ENCODING 8737
SWIDTH 1016 0
DWIDTH 18 0
BBX 16 16 1 -2
BITMAP
0180
03c0
07e0
0ff0
1ff8
3ffc
7ffe
ffff
ffff
7ffe
3ffc
1ff8
0ff0
07e0
03c0
0180
ENDCHAR
STARTCHAR 2222
ENCODING 8738
SWIDTH 1016 0
DWIDTH 18 0
BBX 16 16 1 -2
BITMAP
0000
7ffe
4002
4002
4002
4002
4002
4002
4002
4002
4002
4002
4002
4002
7ffe
0000
ENDCHAR
STARTCHAR 2223
ENCODING 8739
SWIDTH 1016 0
DWIDTH 18 0
BBX 16 16 1 -2
BITMAP
0000
7ffe
7ffe
7ffe
7ffe
7ffe
7ffe
7ffe
7ffe
7ffe
7ffe
7ffe
7ffe
7ffe
7ffe
0000
ENDCHAR
STARTCHAR 2224
ENCODING 8740
SWIDTH 1016 0
DWIDTH 18 0
BBX 16 16 1 -2
BITMAP
0000
0000
0100
0280
0280
0440
0440
0820
0810
1010
1008
2008
2004
7ffe
0000
0000
ENDCHAR
STARTCHAR 2225
ENCODING 8741
SWIDTH 1016 0
DWIDTH 18 0
BBX 16 16 1 -2
BITMAP
0000
0000
0100
0380
0380
07c0
07e0
0fe0
0ff0
1ff0
1ff8
3ffc
3ffc
7ffe
0000
0000
ENDCHAR
STARTCHAR 2226
ENCODING 8742
SWIDTH 1016 0
DWIDTH 18 0
BBX 16 16 1 -2
BITMAP
0000
0000
7ffe
2004
2008
1008
1010
0810
0820
0440
0440
0280
0280
0100
0000
0000
ENDCHAR
STARTCHAR 2227
ENCODING 8743
SWIDTH 1016 0
DWIDTH 18 0
BBX 16 16 1 -2
BITMAP
0000
0000
7ffe
3ffc
3ffc
1ff8
1ff0
0ff0
0fe0
07e0
07c0
0380
0380
0100
0000
0000
ENDCHAR
STARTCHAR 2228
ENCODING 8744
SWIDTH 1016 0
DWIDTH 18 0
BBX 16 16 1 -2
BITMAP
0000
0000
2184
1188
0810
0420
0240
318c
318c
0240
0420
0810
1188
2184
0000
0000
ENDCHAR
STARTCHAR 2229
ENCODING 8745
SWIDTH 1016 0
DWIDTH 18 0
BBX 16 16 1 -2
BITMAP
0000
7ffe
7ffe
0000
0000
7ffe
7ffe
0180
0180
0180
0180
0180
0180
0180
0180
0000
ENDCHAR
STARTCHAR 222a
ENCODING 8746
SWIDTH 1016 0
DWIDTH 18 0
BBX 16 16 1 -2
BITMAP
0000
0000
0000
0000
0000
0008
0004
ffff
0004
0008
0000
0000
0000
0000
0000
0000
ENDCHAR
STARTCHAR 222b
ENCODING 8747
SWIDTH 1016 0
DWIDTH 18 0
BBX 16 16 1 -2
BITMAP
0000
0000
0000
0000
0000
1000
2000
ffff
2000
1000
0000
0000
0000
0000
0000
0000
ENDCHAR
STARTCHAR 222c
ENCODING 8748
SWIDTH 1016 0
DWIDTH 18 0
BBX 16 16 1 -2
BITMAP
0100
0100
0380
0540
0100
0100
0100
0100
0100
0100
0100
0100
0100
0100
0100
0100
ENDCHAR
STARTCHAR 222d
ENCODING 8749
SWIDTH 1016 0
DWIDTH 18 0
BBX 16 16 1 -2
BITMAP
0100
0100
0100
0100
0100
0100
0100
0100
0100
0100
0100
0100
0540
0380
0100
0100
ENDCHAR
STARTCHAR 222e
ENCODING 8750
SWIDTH 1016 0
DWIDTH 18 0
BBX 16 16 1 -2
BITMAP
0000
0000
7ffe
7ffe
7ffe
7ffe
0000
0000
0000
7ffe
7ffe
7ffe
7ffe
0000
0000
0000
ENDCHAR
STARTCHAR 223a
ENCODING 8762
SWIDTH 1016 0
DWIDTH 18 0
BBX 16 16 1 -2
BITMAP
0000
0000
0000
07f8
0800
1000
1000
1ff8
1000
1000
0800
07f8
0000
0000
0000
0000
ENDCHAR
STARTCHAR 223b
ENCODING 8763
SWIDTH 1016 0
DWIDTH 18 0
BBX 16 16 1 -2
BITMAP
0000
0000
0000
1fe0
0010
0008
0008
1ff8
0008
0008
0010
1fe0
0000
0000
0000
0000
ENDCHAR
STARTCHAR 223c
ENCODING 8764
SWIDTH 1016 0
DWIDTH 18 0
BBX 16 16 1 -2
BITMAP
0000
0000
0ffc
1000
2000
2000
2000
2000
1000
0ffc
0000
0000
3ffc
0000
0000
0000
ENDCHAR
STARTCHAR 223d
ENCODING 8765
SWIDTH 1016 0
DWIDTH 18 0
BBX 16 16 1 -2
BITMAP
0000
0000
3ff0
0008
0004
0004
0004
0004
0008
3ff0
0000
0000
3ffc
0000
0000
0000
ENDCHAR
STARTCHAR 223e
ENCODING 8766
SWIDTH 1016 0
DWIDTH 18 0
BBX 16 16 1 -2
BITMAP
0000
0000
0000
07fc
0800
1000
2000
2000
2000
2000
1000
0800
07fc
0000
0000
0000
ENDCHAR
STARTCHAR 223f
ENCODING 8767
SWIDTH 1016 0
DWIDTH 18 0
BBX 16 16 1 -2
BITMAP
0000
0000
0000
3fe0
0010
0008
0004
0004
0004
0004
0008
0010
3fe0
0000
0000
0000
ENDCHAR
STARTCHAR 2240
ENCODING 8768
SWIDTH 1016 0
DWIDTH 18 0
BBX 16 16 1 -2
BITMAP
0000
0000
1008
1008
1008
1008
1008
1008
1008
1008
1008
0810
0420
03c0
0000
0000
ENDCHAR
STARTCHAR 2241
ENCODING 8769
SWIDTH 1016 0
DWIDTH 18 0
BBX 16 16 1 -2
BITMAP
0000
0000
03c0
0420
0810
1008
1008
1008
1008
1008
1008
1008
1008
1008
0000
0000
ENDCHAR
STARTCHAR 224a
ENCODING 8778
SWIDTH 1016 0
DWIDTH 18 0
BBX 16 16 1 -2
BITMAP
0000
0000
0100
0100
0280
0280
0440
0440
0820
0820
1010
1010
2008
2008
0000
0000
ENDCHAR
STARTCHAR 224b
ENCODING 8779
SWIDTH 1016 0
DWIDTH 18 0
BBX 16 16 1 -2
BITMAP
0000
0000
2008
2008
1010
1010
0820
0820
0440
0440
0280
0280
0100
0100
0000
0000
ENDCHAR
STARTCHAR 224c
ENCODING 8780
SWIDTH 1016 0
DWIDTH 18 0
BBX 16 16 1 -2
BITMAP
0000
0000
0000
0000
0000
0000
3ffc
0004
0004
0004
0004
0000
0000
0000
0000
0000
ENDCHAR
STARTCHAR 224d
ENCODING 8781
SWIDTH 1016 0
DWIDTH 18 0
BBX 16 16 1 -2
BITMAP
0000
0000
0000
0010
0008
fffc
0002
0001
0002
fffc
0008
0010
0000
0000
0000
0000
ENDCHAR
STARTCHAR 224e
ENCODING 8782
SWIDTH 1016 0
DWIDTH 18 0
BBX 16 16 1 -2
BITMAP
0000
0000
0000
0810
1008
3ffc
4002
8001
4002
3ffc
1008
0810
0000
0000
0000
0000
ENDCHAR
STARTCHAR 224f
ENCODING 8783
SWIDTH 1016 0
DWIDTH 18 0
BBX 16 16 1 -2
BITMAP
0000
4004
4004
2008
2008
1ff0
1010
0820
0820
0440
0440
0280
0280
0100
0100
0000
ENDCHAR
STARTCHAR 2250
ENCODING 8784
SWIDTH 1016 0
DWIDTH 18 0
BBX 16 16 1 -2
BITMAP
0000
0000
1ff0
0010
0010
0010
0010
1ff0
0010
0010
0010
0010
1ff0
0000
0000
0000
ENDCHAR
STARTCHAR 225c
ENCODING 8796
SWIDTH 1016 0
DWIDTH 18 0
BBX 16 16 1 -2
BITMAP
0000
0000
0008
0010
0020
0040
0080
0100
0200
0400
0800
1000
3ffc
0000
0000
0000
ENDCHAR
STARTCHAR 225d
ENCODING 8797
SWIDTH 1016 0
DWIDTH 18 0
BBX 16 16 1 -2
BITMAP
0000
0000
0100
0100
0100
0100
0100
0100
0100
0100
0100
0100
3ffc
0000
0000
0000
ENDCHAR
STARTCHAR 225e
ENCODING 8798
SWIDTH 1016 0
DWIDTH 18 0
BBX 16 16 1 -2
BITMAP
07e0
381c
c003
0000
0000
0000
0000
0000
0000
0000
0000
0000
0000
0000
0000
0000
ENDCHAR
STARTCHAR 225f
ENCODING 8799
SWIDTH 1016 0
DWIDTH 18 0
BBX 16 16 1 -2
BITMAP
0000
01e0
0330
0410
0010
0010
03b0
0460
0820
1860
1040
10c0
1980
0f00
0000
0000
ENDCHAR
STARTCHAR 2260
ENCODING 8800
SWIDTH 1016 0
DWIDTH 18 0
BBX 16 16 1 -2
BITMAP
0000
7ffe
3004
300c
1808
1818
0c10
0c30
0620
0660
0340
03c0
0180
0180
0000
0000
ENDCHAR
STARTCHAR 2261
ENCODING 8801
SWIDTH 1016 0
DWIDTH 18 0
BBX 16 16 1 -2
BITMAP
0000
0000
0000
3ffc
0000
0000
0000
3ffc
0000
0000
0000
3ffc
0000
0000
0000
0000
ENDCHAR
STARTCHAR 2262
ENCODING 8802
SWIDTH 1016 0
DWIDTH 18 0
BBX 16 16 1 -2
BITMAP
0000
0000
1800
1800
0000
3ffc
0000
0000
0000
3ffc
0000
0018
0018
0000
0000
0000
ENDCHAR
STARTCHAR 2263
ENCODING 8803
SWIDTH 1016 0
DWIDTH 18 0
BBX 16 16 1 -2
BITMAP
0000
0042
0084
0318
0420
18c0
2100
4200
2100
1080
0840
0630
0108
0084
0042
0000
ENDCHAR
STARTCHAR 2264
ENCODING 8804
SWIDTH 1016 0
DWIDTH 18 0
BBX 16 16 1 -2
BITMAP
0000
4200
2100
18c0
0420
0318
0084
0042
0084
0108
0210
0c60
1080
2100
4200
0000
ENDCHAR
STARTCHAR 2265
ENCODING 8805
SWIDTH 1016 0
DWIDTH 18 0
BBX 16 16 1 -2
BITMAP
00ff
0080
0080
0100
0100
0100
0100
0200
0200
0200
2200
7400
b400
1c00
1800
0800
ENDCHAR
STARTCHAR 2266
ENCODING 8806
SWIDTH 1016 0
DWIDTH 18 0
BBX 16 16 1 -2
BITMAP
0000
0000
0000
0000
1c38
2044
4082
4082
4102
4102
2204
1c38
0000
0000
0000
0000
ENDCHAR
STARTCHAR 2267
ENCODING 8807
SWIDTH 1016 0
DWIDTH 18 0
BBX 16 16 1 -2
BITMAP
0000
0000
0000
0000
1c38
2244
4180
4180
4180
4180
2244
1c38
0000
0000
0000
0000
ENDCHAR
STARTCHAR 2268
ENCODING 8808
SWIDTH 1016 0
DWIDTH 18 0
BBX 16 16 1 -2
BITMAP
0000
0000
0000
300c
300c
0000
0000
0000
0000
0000
0000
0180
0180
0000
0000
0000
ENDCHAR
STARTCHAR 2269
ENCODING 8809
SWIDTH 1016 0
DWIDTH 18 0
BBX 16 16 1 -2
BITMAP
01c0
0240
0200
0200
0300
0300
0100
0180
0180
0080
00c0
00c0
0040
0040
0240
0380
ENDCHAR
STARTCHAR 226a
ENCODING 8810
SWIDTH 1016 0
DWIDTH 18 0
BBX 16 16 1 -2
BITMAP
0e38
1248
1040
1040
1860
1860
0820
0c30
0c30
0410
0618
0618
0208
0208
1248
1c70
ENDCHAR
STARTCHAR 2272
ENCODING 8818
SWIDTH 1016 0
DWIDTH 18 0
BBX 16 16 1 -2
BITMAP
0180
0240
0240
0180
0000
0100
0280
0280
0440
0420
0ff0
0810
1008
7c3e
0000
0000
ENDCHAR
STARTCHAR 2273
ENCODING 8819
SWIDTH 1016 0
DWIDTH 18 0
BBX 16 16 1 -2
BITMAP
0000
3040
4840
4880
4900
4900
4a00
3400
058c
0a52
1252
1252
2252
4252
418c
0000
ENDCHAR
STARTCHAR 2274
ENCODING 8820
SWIDTH 1016 0
DWIDTH 18 0
BBX 16 16 1 -2
BITMAP
0020
0420
0420
043c
07fc
3fe0
3c20
0420
0420
043c
07fc
3fe0
3c20
0420
0420
0400
ENDCHAR
STARTCHAR 2275
ENCODING 8821
SWIDTH 1016 0
DWIDTH 18 0
BBX 16 16 1 -2
BITMAP
0400
0400
0400
0400
0400
0400
05e0
0630
0430
0430
0430
0460
04c0
0500
0600
0400
ENDCHAR
STARTCHAR 2276
ENCODING 8822
SWIDTH 1016 0
DWIDTH 18 0
BBX 16 16 1 -2
BITMAP
0080
0080
00c0
00e0
00b0
0098
008c
0084
0084
0088
0090
0080
0f80
1f80
1f00
0e00
ENDCHAR
STARTCHAR 2277
ENCODING 8823
SWIDTH 1016 0
DWIDTH 18 0
BBX 16 16 1 -2
BITMAP
0100
0380
0920
1ff0
0920
0100
07c0
0380
0380
0380
0380
0380
0100
0100
0100
0100
ENDCHAR
STARTCHAR 2278
ENCODING 8824
SWIDTH 1016 0
DWIDTH 18 0
BBX 16 16 1 -2
BITMAP
0100
0380
0920
1ff0
0920
0380
0380
0100
0100
0380
0380
0920
1ff0
0920
0380
0100
ENDCHAR
STARTCHAR 2279
ENCODING 8825
SWIDTH 1016 0
DWIDTH 18 0
BBX 16 16 1 -2
BITMAP
0000
07e0
0f20
1f20
1f20
1f20
0f20
0720
0120
0120
0120
0120
0120
0120
0120
0120
ENDCHAR
STARTCHAR 227e
ENCODING 8830
SWIDTH 1016 0
DWIDTH 18 0
BBX 16 16 1 -2
BITMAP
03c0
0c30
1008
2004
4002
4002
8001
8001
8001
8001
4002
4002
2004
1008
0c30
03c0
ENDCHAR
STARTCHAR 2330
ENCODING 9008
SWIDTH 1016 0
DWIDTH 18 0
BBX 16 16 1 -2
BITMAP
0000
03c0
0420
0810
0810
1818
1008
1008
1008
1008
1818
0810
0810
0420
03c0
0000
ENDCHAR
STARTCHAR 2331
ENCODING 9009
SWIDTH 1016 0
DWIDTH 18 0
BBX 16 16 1 -2
BITMAP
0000
0100
0300
0500
0900
0100
0100
0100
0100
0100
0100
0100
0100
0100
07c0
0000
ENDCHAR
STARTCHAR 2332
ENCODING 9010
SWIDTH 1016 0
DWIDTH 18 0
BBX 16 16 1 -2
BITMAP
0000
07e0
0c10
1808
1008
0008
0018
0030
0060
00c0
0180
0300
0600
0c00
1ff8
0000
ENDCHAR
STARTCHAR 2333
ENCODING 9011
SWIDTH 1016 0
DWIDTH 18 0
BBX 16 16 1 -2
BITMAP
0000
03e0
0e10
1808
0008
0008
0010
07e0
0010
0008
0008
0008
0018
0070
1fc0
0000
ENDCHAR
STARTCHAR 2334
ENCODING 9012
SWIDTH 1016 0
DWIDTH 18 0
BBX 16 16 1 -2
BITMAP
0000
0060
00e0
01a0
0320
0620
0c20
1820
3020
2020
3ffc
0020
0020
0020
00f8
0000
ENDCHAR
STARTCHAR 2335
ENCODING 9013
SWIDTH 1016 0
DWIDTH 18 0
BBX 16 16 1 -2
BITMAP
0000
1ff8
1000
1000
1000
1000
17e0
1810
1008
0008
0008
0018
0030
00e0
1f80
0000
ENDCHAR
STARTCHAR 2336
ENCODING 9014
SWIDTH 1016 0
DWIDTH 18 0
BBX 16 16 1 -2
BITMAP
0000
00f0
0380
0600
0c00
0800
1bc0
1430
1818
1008
1008
1808
0818
0c30
03c0
0000
ENDCHAR
STARTCHAR 2337
ENCODING 9015
SWIDTH 1016 0
DWIDTH 18 0
BBX 16 16 1 -2
BITMAP
0000
1ffc
1008
1018
1010
0030
0020
0060
0040
00c0
0080
0080
0180
0100
0100
0000
ENDCHAR
STARTCHAR 2338
ENCODING 9016
SWIDTH 1016 0
DWIDTH 18 0
BBX 16 16 1 -2
BITMAP
0000
03c0
0c30
1818
1008
1008
0810
07e0
0810
1008
1008
1008
1818
0c30
03c0
0000
ENDCHAR
STARTCHAR 2339
ENCODING 9017
SWIDTH 1016 0
DWIDTH 18 0
BBX 16 16 1 -2
BITMAP
0000
03c0
0c30
1810
1018
1008
1008
1818
0c28
03d8
0010
0030
0060
01c0
0f00
0000
ENDCHAR
STARTCHAR 2341
ENCODING 9025
SWIDTH 1016 0
DWIDTH 18 0
BBX 16 16 1 -2
BITMAP
0000
0100
0380
0280
06c0
0440
0c60
0820
0fe0
1830
1010
3018
2008
f83e
0000
0000
ENDCHAR
STARTCHAR 2342
ENCODING 9026
SWIDTH 1016 0
DWIDTH 18 0
BBX 16 16 1 -2
BITMAP
0000
3fe0
0810
0808
0808
0808
0810
0fe0
0818
0804
0804
0804
0808
3ff0
0000
0000
ENDCHAR
STARTCHAR 2343
ENCODING 9027
SWIDTH 1016 0
DWIDTH 18 0
BBX 16 16 1 -2
BITMAP
0000
03c8
0c28
1818
1008
3008
2000
2000
2000
3000
1008
1818
0c30
03c0
0000
0000
ENDCHAR
STARTCHAR 2344
ENCODING 9028
SWIDTH 1016 0
DWIDTH 18 0
BBX 16 16 1 -2
BITMAP
0000
3fc0
0830
0818
0808
080c
0804
0804
0804
080c
0808
0818
0830
3fc0
0000
0000
ENDCHAR
STARTCHAR 2345
ENCODING 9029
SWIDTH 1016 0
DWIDTH 18 0
BBX 16 16 1 -2
BITMAP
0000
3ff8
0808
0804
0800
0840
0840
0fc0
0840
0840
0800
0804
0808
3ff8
0000
0000
ENDCHAR
STARTCHAR 2346
ENCODING 9030
SWIDTH 1016 0
DWIDTH 18 0
BBX 16 16 1 -2
BITMAP
0000
1ffc
0404
0404
0400
0420
0420
07e0
0420
0420
0400
0400
0400
1f00
0000
0000
ENDCHAR
STARTCHAR 2347
ENCODING 9031
SWIDTH 1016 0
DWIDTH 18 0
BBX 16 16 1 -2
BITMAP
0000
03c8
0c38
1808
1008
3000
2000
2000
203e
3008
1008
1818
0c28
03c8
0000
0000
ENDCHAR
STARTCHAR 2348
ENCODING 9032
SWIDTH 1016 0
DWIDTH 18 0
BBX 16 16 1 -2
BITMAP
0000
7c3e
1008
1008
1008
1008
1008
1ff8
1008
1008
1008
1008
1008
7c3e
0000
0000
ENDCHAR
STARTCHAR 2349
ENCODING 9033
SWIDTH 1016 0
DWIDTH 18 0
BBX 16 16 1 -2
BITMAP
0000
07c0
0100
0100
0100
0100
0100
0100
0100
0100
0100
0100
0100
07c0
0000
0000
ENDCHAR
STARTCHAR 234a
ENCODING 9034
SWIDTH 1016 0
DWIDTH 18 0
BBX 16 16 1 -2
BITMAP
0000
00f8
0020
0020
0020
0020
0020
0020
0020
0020
0020
1020
1840
0f80
0000
0000
ENDCHAR
STARTCHAR 234b
ENCODING 9035
SWIDTH 1016 0
DWIDTH 18 0
BBX 16 16 1 -2
BITMAP
0000
3e7c
0830
0860
08c0
0980
0b00
0f00
0980
08c0
0860
0830
0818
3e3e
0000
0000
ENDCHAR
STARTCHAR 234c
ENCODING 9036
SWIDTH 1016 0
DWIDTH 18 0
BBX 16 16 1 -2
BITMAP
0000
1f00
0400
0400
0400
0400
0400
0400
0400
0400
0404
0404
0404
1ffc
0000
0000
ENDCHAR
STARTCHAR 234d
ENCODING 9037
SWIDTH 1016 0
DWIDTH 18 0
BBX 16 16 1 -2
BITMAP
0000
f01e
3018
3838
2828
2828
2c68
2448
2448
26c8
2288
2388
2108
f11e
0000
0000
ENDCHAR
STARTCHAR 234e
ENCODING 9038
SWIDTH 1016 0
DWIDTH 18 0
BBX 16 16 1 -2
BITMAP
0000
783e
1c08
1408
1608
1308
1108
1188
10c8
1048
1068
1038
1018
7808
0000
0000
ENDCHAR
STARTCHAR 234f
ENCODING 9039
SWIDTH 1016 0
DWIDTH 18 0
BBX 16 16 1 -2
BITMAP
0000
03c0
0c30
1818
1008
300c
2004
2004
2004
300c
1008
1818
0c30
03c0
0000
0000
ENDCHAR
STARTCHAR 2350
ENCODING 9040
SWIDTH 1016 0
DWIDTH 18 0
BBX 16 16 1 -2
BITMAP
0000
1ff0
0408
0404
0404
0404
0408
07f0
0400
0400
0400
0400
0400
1f00
0000
0000
ENDCHAR
STARTCHAR 2351
ENCODING 9041
SWIDTH 1016 0
DWIDTH 18 0
BBX 16 16 1 -2
BITMAP
0000
03c0
0c30
1818
1008
300c
2004
2004
2004
300c
1188
1a58
0c30
03d2
000c
0000
ENDCHAR
STARTCHAR 2352
ENCODING 9042
SWIDTH 1016 0
DWIDTH 18 0
BBX 16 16 1 -2
BITMAP
0000
3fe0
0810
0808
0808
0808
0810
0fe0
0820
0830
0810
0818
0808
3e3e
0000
0000
ENDCHAR
STARTCHAR 2353
ENCODING 9043
SWIDTH 1016 0
DWIDTH 18 0
BBX 16 16 1 -2
BITMAP
0000
07c8
0828
1018
1008
1008
0c00
03c0
0030
1008
1008
1808
1410
13e0
0000
0000
ENDCHAR
STARTCHAR 2354
ENCODING 9044
SWIDTH 1016 0
DWIDTH 18 0
BBX 16 16 1 -2
BITMAP
0000
7ffc
4104
4104
0100
0100
0100
0100
0100
0100
0100
0100
0100
07c0
0000
0000
ENDCHAR
STARTCHAR 2355
ENCODING 9045
SWIDTH 1016 0
DWIDTH 18 0
BBX 16 16 1 -2
BITMAP
0000
7c3e
1008
1008
1008
1008
1008
1008
1008
1008
1008
1818
0c30
03c0
0000
0000
ENDCHAR
STARTCHAR 2356
ENCODING 9046
SWIDTH 1016 0
DWIDTH 18 0
BBX 16 16 1 -2
BITMAP
0000
7c3e
1008
1818
0810
0830
0c20
0420
0460
0640
02c0
0280
0380
0100
0000
0000
ENDCHAR
STARTCHAR 2357
ENCODING 9047
SWIDTH 1016 0
DWIDTH 18 0
BBX 16 16 1 -2
BITMAP
0000
f99f
2184
2184
23c4
324c
1248
1668
1428
1428
1c38
0c30
0810
0810
0000
0000
ENDCHAR
STARTCHAR 2358
ENCODING 9048
SWIDTH 1016 0
DWIDTH 18 0
BBX 16 16 1 -2
BITMAP
0000
7c7c
1010
1830
0c60
06c0
0380
0100
0380
06c0
0c60
1830
1010
787c
0000
0000
ENDCHAR
STARTCHAR 2359
ENCODING 9049
SWIDTH 1016 0
DWIDTH 18 0
BBX 16 16 1 -2
BITMAP
0000
7c7c
1010
1830
0820
0c60
0440
06c0
0380
0100
0100
0100
0100
07c0
0000
0000
ENDCHAR
STARTCHAR 235a
ENCODING 9050
SWIDTH 1016 0
DWIDTH 18 0
BBX 16 16 1 -2
BITMAP
0000
1ff8
1030
1060
0040
00c0
0180
0100
0300
0600
0400
0c08
1808
3ff8
0000
0000
ENDCHAR
STARTCHAR 2361
ENCODING 9057
SWIDTH 1016 0
DWIDTH 18 0
BBX 16 16 1 -2
BITMAP
0000
0000
0000
0000
0000
0000
07c0
0020
0020
07e0
0820
0820
0868
0798
0000
0000
ENDCHAR
STARTCHAR 2362
ENCODING 9058
SWIDTH 1016 0
DWIDTH 18 0
BBX 16 16 1 -2
BITMAP
0000
1c00
0400
0400
0400
0400
05e0
0610
0408
0408
0408
0408
0610
05e0
0000
0000
ENDCHAR
STARTCHAR 2363
ENCODING 9059
SWIDTH 1016 0
DWIDTH 18 0
BBX 16 16 1 -2
BITMAP
0000
0000
0000
0000
0000
0000
03e0
0410
0800
0800
0800
0800
0410
03e0
0000
0000
ENDCHAR
STARTCHAR 2364
ENCODING 9060
SWIDTH 1016 0
DWIDTH 18 0
BBX 16 16 1 -2
BITMAP
0000
00e0
0020
0020
0020
0020
07a0
0860
1020
1020
1020
1020
0860
07b8
0000
0000
ENDCHAR
STARTCHAR 2365
ENCODING 9061
SWIDTH 1016 0
DWIDTH 18 0
BBX 16 16 1 -2
BITMAP
0000
0000
0000
0000
0000
0000
03c0
0420
0810
0ff0
0800
0800
0410
03e0
0000
0000
ENDCHAR
STARTCHAR 2366
ENCODING 9062
SWIDTH 1016 0
DWIDTH 18 0
BBX 16 16 1 -2
BITMAP
0000
0078
0088
0100
0100
0100
0fe0
0100
0100
0100
0100
0100
0100
07c0
0000
0000
ENDCHAR
STARTCHAR 2367
ENCODING 9063
SWIDTH 1016 0
DWIDTH 18 0
BBX 16 16 1 -2
BITMAP
0000
0000
0000
0000
0000
0000
07d8
0820
0820
0820
07c0
0800
0ff0
1008
1008
0ff0
ENDCHAR
STARTCHAR 2368
ENCODING 9064
SWIDTH 1016 0
DWIDTH 18 0
BBX 16 16 1 -2
BITMAP
0000
1c00
0400
0400
0400
0400
05e0
0630
0410
0410
0410
0410
0410
1e3c
0000
0000
ENDCHAR
STARTCHAR 2369
ENCODING 9065
SWIDTH 1016 0
DWIDTH 18 0
BBX 16 16 1 -2
BITMAP
0000
0000
0180
0180
0000
0000
0380
0080
0080
0080
0080
0080
0080
03e0
0000
0000
ENDCHAR
STARTCHAR 236a
ENCODING 9066
SWIDTH 1016 0
DWIDTH 18 0
BBX 16 16 1 -2
BITMAP
0000
0000
00c0
00c0
0000
0000
01c0
0040
0040
0040
0040
0040
0040
0040
1080
1f00
ENDCHAR
STARTCHAR 236b
ENCODING 9067
SWIDTH 1016 0
DWIDTH 18 0
BBX 16 16 1 -2
BITMAP
0000
3800
0800
0800
0800
0800
08f8
0860
0980
0e00
0900
08c0
0830
3e7c
0000
0000
ENDCHAR
STARTCHAR 236c
ENCODING 9068
SWIDTH 1016 0
DWIDTH 18 0
BBX 16 16 1 -2
BITMAP
0000
0700
0100
0100
0100
0100
0100
0100
0100
0100
0100
0100
0100
07c0
0000
0000
ENDCHAR
STARTCHAR 236d
ENCODING 9069
SWIDTH 1016 0
DWIDTH 18 0
BBX 16 16 1 -2
BITMAP
0000
0000
0000
0000
0000
0000
3738
18c4
1084
1084
1084
1084
1084
39ce
0000
0000
ENDCHAR
STARTCHAR 236e
ENCODING 9070
SWIDTH 1016 0
DWIDTH 18 0
BBX 16 16 1 -2
BITMAP
0000
0000
0000
0000
0000
0000
1de0
0630
0410
0410
0410
0410
0410
1e3c
0000
0000
ENDCHAR
STARTCHAR 236f
ENCODING 9071
SWIDTH 1016 0
DWIDTH 18 0
BBX 16 16 1 -2
BITMAP
0000
0000
0000
0000
0000
0000
03c0
0420
0810
0810
0810
0810
0420
03c0
0000
0000
ENDCHAR
STARTCHAR 2370
ENCODING 9072
SWIDTH 1016 0
DWIDTH 18 0
BBX 16 16 1 -2
BITMAP
0000
0000
0000
0000
0000
0000
1de0
0610
0408
0408
0408
0610
05e0
0400
0400
1f00
ENDCHAR
STARTCHAR 2371
ENCODING 9073
SWIDTH 1016 0
DWIDTH 18 0
BBX 16 16 1 -2
BITMAP
0000
0000
0000
0000
0000
0000
07a0
0860
1020
1020
1020
0860
07a0
0020
0020
00f8
ENDCHAR
STARTCHAR 2372
ENCODING 9074
SWIDTH 1016 0
DWIDTH 18 0
BBX 16 16 1 -2
BITMAP
0000
0000
0000
0000
0000
0000
0e70
0290
0300
0200
0200
0200
0200
0f80
0000
0000
ENDCHAR
STARTCHAR 2373
ENCODING 9075
SWIDTH 1016 0
DWIDTH 18 0
BBX 16 16 1 -2
BITMAP
0000
0000
0000
0000
0000
0000
07d0
0830
0810
0780
0060
0810
0c10
0be0
0000
0000
ENDCHAR
STARTCHAR 2374
ENCODING 9076
SWIDTH 1016 0
DWIDTH 18 0
BBX 16 16 1 -2
BITMAP
0000
0000
0200
0200
0200
0200
1fe0
0200
0200
0200
0200
0200
0110
00f0
0000
0000
ENDCHAR
STARTCHAR 2375
ENCODING 9077
SWIDTH 1016 0
DWIDTH 18 0
BBX 16 16 1 -2
BITMAP
0000
0000
0000
0000
0000
0000
1c70
0410
0410
0410
0410
0410
0630
03dc
0000
0000
ENDCHAR
STARTCHAR 2376
ENCODING 9078
SWIDTH 1016 0
DWIDTH 18 0
BBX 16 16 1 -2
BITMAP
0000
0000
0000
0000
0000
0000
3c78
0820
0c60
0440
06c0
0280
0380
0100
0000
0000
ENDCHAR
STARTCHAR 2377
ENCODING 9079
SWIDTH 1016 0
DWIDTH 18 0
BBX 16 16 1 -2
BITMAP
0000
0000
0000
0000
0000
0000
799e
1188
1bd8
0a50
0a50
0e70
0420
0420
0000
0000
ENDCHAR
STARTCHAR 2378
ENCODING 9080
SWIDTH 1016 0
DWIDTH 18 0
BBX 16 16 1 -2
BITMAP
0000
0000
0000
0000
0000
0000
1e78
0420
0240
0180
0240
0420
0810
3e7c
0000
0000
ENDCHAR
STARTCHAR 2379
ENCODING 9081
SWIDTH 1016 0
DWIDTH 18 0
BBX 16 16 1 -2
BITMAP
0000
0000
0000
0000
0000
0000
1e3c
0410
0630
0220
0360
0140
00c0
0180
1300
1e00
ENDCHAR
STARTCHAR 237a
ENCODING 9082
SWIDTH 1016 0
DWIDTH 18 0
BBX 16 16 1 -2
BITMAP
0000
0000
0000
0000
0000
0000
0ff0
0820
0840
0080
0100
0210
0410
0ff0
0000
0000
ENDCHAR
STARTCHAR 2421
ENCODING 9249
SWIDTH 1016 0
DWIDTH 18 0
BBX 16 16 1 -2
BITMAP
0000
0000
0000
0000
0100
0100
1ff8
0240
03f0
0658
0a4c
1284
1284
110c
0e18
0060
ENDCHAR
STARTCHAR 2422
ENCODING 9250
SWIDTH 1016 0
DWIDTH 18 0
BBX 16 16 1 -2
BITMAP
0200
0200
3ff8
0400
0440
07f0
1c5c
3444
2446
6482
4482
4506
4604
381c
0070
0000
ENDCHAR
STARTCHAR 2423
ENCODING 9251
SWIDTH 1016 0
DWIDTH 18 0
BBX 16 16 1 -2
BITMAP
0000
0000
0000
0000
0000
0000
1000
1030
1018
1008
100c
1804
0a04
0e00
0400
0000
ENDCHAR
STARTCHAR 2424
ENCODING 9252
SWIDTH 1016 0
DWIDTH 18 0
BBX 16 16 1 -2
BITMAP
0000
0000
2000
2010
2018
200c
2004
2006
2002
2002
3202
1600
1c00
0800
0000
0000
ENDCHAR
STARTCHAR 2425
ENCODING 9253
SWIDTH 1016 0
DWIDTH 18 0
BBX 16 16 1 -2
BITMAP
0000
0000
0000
0000
0600
0380
00e0
0000
0fe0
0010
0010
0010
0030
0060
01c0
0700
ENDCHAR
STARTCHAR 2426
ENCODING 9254
SWIDTH 1016 0
DWIDTH 18 0
BBX 16 16 1 -2
BITMAP
0600
0380
00e0
0000
0000
1ff0
0018
0008
0008
0008
0018
0030
0060
01c0
0f00
0000
ENDCHAR
STARTCHAR 2427
ENCODING 9255
SWIDTH 1016 0
DWIDTH 18 0
BBX 16 16 1 -2
BITMAP
0000
0000
0000
0000
0600
0380
00e0
0000
0fe0
0040
0080
0100
0780
0c80
1880
0078
ENDCHAR
STARTCHAR 2428
ENCODING 9256
SWIDTH 1016 0
DWIDTH 18 0
BBX 16 16 1 -2
BITMAP
0600
0380
00e0
0000
1ff0
0020
0040
0080
0100
03c0
0640
0c40
1840
3060
003e
0000
ENDCHAR
STARTCHAR 2429
ENCODING 9257
SWIDTH 1016 0
DWIDTH 18 0
BBX 16 16 1 -2
BITMAP
0000
0000
0000
0000
0200
0210
03d8
1e08
0200
03e0
0610
0a08
1208
1218
0c70
0000
ENDCHAR
STARTCHAR 242a
ENCODING 9258
SWIDTH 1016 0
DWIDTH 18 0
BBX 16 16 1 -2
BITMAP
0400
0400
040c
07c6
7c02
0400
0400
05f8
070c
1c06
3402
6402
4406
4c0c
3838
0000
ENDCHAR
STARTCHAR 242b
ENCODING 9259
SWIDTH 1016 0
DWIDTH 18 0
BBX 16 16 1 -2
BITMAP
0400
0400
0408
040c
7f86
0442
0443
0c41
0841
0840
1840
1040
30c0
6080
0380
0000
ENDCHAR
STARTCHAR 242c
ENCODING 9260
SWIDTH 1016 0
DWIDTH 18 0
BBX 16 16 1 -2
BITMAP
0405
0405
0410
0418
7f8c
0444
0446
0c42
0842
0840
1840
1040
30c0
6080
0380
0000
ENDCHAR
STARTCHAR 242d
ENCODING 9261
SWIDTH 1016 0
DWIDTH 18 0
BBX 16 16 1 -2
BITMAP
0200
0200
3ff8
0100
0100
3ffc
0080
0040
0ff0
1018
2000
2000
3000
1c00
07f0
0000
ENDCHAR
STARTCHAR 242e
ENCODING 9262
SWIDTH 1016 0
DWIDTH 18 0
BBX 16 16 1 -2
BITMAP
0205
0205
3ff0
0100
0100
3ff8
0080
0040
0ff0
1018
2000
2000
3000
1c00
07f0
0000
ENDCHAR
STARTCHAR 242f
ENCODING 9263
SWIDTH 1016 0
DWIDTH 18 0
BBX 16 16 1 -2
BITMAP
0010
0030
0060
00c0
0180
0300
0c00
1800
0c00
0600
0300
0180
00c0
0060
0030
0010
ENDCHAR
STARTCHAR 2430
ENCODING 9264
SWIDTH 1016 0
DWIDTH 18 0
BBX 16 16 1 -2
BITMAP
0010
0035
0065
00c0
0180
0300
0c00
1800
0c00
0600
0300
0180
00c0
0060
0030
0010
ENDCHAR
STARTCHAR 2431
ENCODING 9265
SWIDTH 1016 0
DWIDTH 18 0
BBX 16 16 1 -2
BITMAP
0010
2010
2010
6010
47ff
4010
4010
4010
4010
4010
5010
6030
2020
0060
00c0
0000
ENDCHAR
STARTCHAR 2432
ENCODING 9266
SWIDTH 1016 0
DWIDTH 18 0
BBX 16 16 1 -2
BITMAP
0025
2025
2020
6020
47fe
4020
4020
4020
4020
4020
5020
6060
2040
00c0
0180
0000
ENDCHAR
STARTCHAR 2433
ENCODING 9267
SWIDTH 1016 0
DWIDTH 18 0
BBX 16 16 1 -2
BITMAP
0000
0000
1ff8
0000
0000
0000
0000
0000
0000
0000
2000
3000
1c00
07fc
0000
0000
ENDCHAR
STARTCHAR 2434
ENCODING 9268
SWIDTH 1016 0
DWIDTH 18 0
BBX 16 16 1 -2
BITMAP
0005
0005
1ff0
0000
0000
0000
0000
0000
0000
0000
2000
3000
1c00
07fc
0000
0000
ENDCHAR
STARTCHAR 2435
ENCODING 9269
SWIDTH 1016 0
DWIDTH 18 0
BBX 16 16 1 -2
BITMAP
0400
0600
0200
7ffc
0100
0180
00c0
0060
0ff8
100c
2000
2000
3000
1c00
07f0
0000
ENDCHAR
STARTCHAR 2436
ENCODING 9270
SWIDTH 1016 0
DWIDTH 18 0
BBX 16 16 1 -2
BITMAP
0405
0605
0200
7ffc
0100
0180
00c0
0060
0ff8
100c
2000
2000
3000
1c00
07f0
0000
ENDCHAR
STARTCHAR 2437
ENCODING 9271
SWIDTH 1016 0
DWIDTH 18 0
BBX 16 16 1 -2
BITMAP
0000
0800
0800
0800
0800
0800
0800
0800
0800
0800
0804
080c
0818
0470
03c0
0000
ENDCHAR
STARTCHAR 2438
ENCODING 9272
SWIDTH 1016 0
DWIDTH 18 0
BBX 16 16 1 -2
BITMAP
0000
0800
0850
0850
0800
0800
0800
0800
0800
0800
0804
080c
0818
0470
03c0
0000
ENDCHAR
STARTCHAR 2439
ENCODING 9273
SWIDTH 1016 0
DWIDTH 18 0
BBX 16 16 1 -2
BITMAP
0080
0080
0080
ffff
0080
0080
0780
0cc0
0840
0840
0c40
07c0
0080
0180
0300
0e00
ENDCHAR
STARTCHAR 243a
ENCODING 9274
SWIDTH 1016 0
DWIDTH 18 0
BBX 16 16 1 -2
BITMAP
0085
0085
0080
ffff
0080
0080
0780
0cc0
0840
0840
0c40
07c0
0080
0180
0300
0e00
ENDCHAR
STARTCHAR 243b
ENCODING 9275
SWIDTH 1016 0
DWIDTH 18 0
BBX 16 16 1 -2
BITMAP
0000
0810
0810
0810
0810
ffff
0810
0810
0810
0810
0860
0800
0800
0400
03fc
0000
ENDCHAR
STARTCHAR 243c
ENCODING 9276
SWIDTH 1016 0
DWIDTH 18 0
BBX 16 16 1 -2
BITMAP
0005
0825
0820
0820
0820
ffff
0820
0820
0820
0820
08c0
0800
0800
0400
03fc
0000
ENDCHAR
STARTCHAR 243d
ENCODING 9277
SWIDTH 1016 0
DWIDTH 18 0
BBX 16 16 1 -2
BITMAP
0000
1ff8
0030
00c0
0180
0300
0c00
7ffe
0180
0300
0600
0400
0400
0600
0380
00f0
ENDCHAR
STARTCHAR 243e
ENCODING 9278
SWIDTH 1016 0
DWIDTH 18 0
BBX 16 16 1 -2
BITMAP
0000
1ff0
0065
00c5
0180
0300
0c00
7ffe
0180
0300
0600
0400
0400
0600
0380
00f0
ENDCHAR
STARTCHAR 243f
ENCODING 9279
SWIDTH 1016 0
DWIDTH 18 0
BBX 16 16 1 -2
BITMAP
0400
0400
0400
7f80
0800
087c
0800
1800
1000
1000
3000
2000
2080
60c0
407e
0000
ENDCHAR
STARTCHAR 2440
ENCODING 9280
SWIDTH 1016 0
DWIDTH 18 0
BBX 16 16 1 -2
BITMAP
040a
040a
0400
7f80
0800
087c
0800
1800
1000
1000
3000
2000
2080
60c0
407e
0000
ENDCHAR
STARTCHAR 2441
ENCODING 9281
SWIDTH 1016 0
DWIDTH 18 0
BBX 16 16 1 -2
BITMAP
0100
0100
0100
7ffc
0200
0600
0400
0ff0
1808
3004
0004
0004
000c
0038
07e0
0000
ENDCHAR
STARTCHAR 2442
ENCODING 9282
SWIDTH 1016 0
DWIDTH 18 0
BBX 16 16 1 -2
BITMAP
0105
0105
0100
7ffc
0200
0600
0400
0ff0
1808
3004
0004
0004
000c
0038
07e0
0000
ENDCHAR
STARTCHAR 2443
ENCODING 9283
SWIDTH 1016 0
DWIDTH 18 0
BBX 16 16 1 -2
BITMAP
0000
0000
0000
0000
0000
0000
0000
01e0
0710
1c08
0008
0008
0018
0030
00e0
0000
ENDCHAR
STARTCHAR 2444
ENCODING 9284
SWIDTH 1016 0
DWIDTH 18 0
BBX 16 16 1 -2
BITMAP
0000
0000
0000
03f8
1e04
7002
0002
0002
0002
0006
000c
0038
00e0
0000
0000
0000
ENDCHAR
STARTCHAR 2445
ENCODING 9285
SWIDTH 1016 0
DWIDTH 18 0
BBX 16 16 1 -2
BITMAP
0005
0005
0000
03f8
1e04
7002
0002
0002
0002
0006
000c
0038
00e0
0000
0000
0000
ENDCHAR
STARTCHAR 2446
ENCODING 9286
SWIDTH 1016 0
DWIDTH 18 0
BBX 16 16 1 -2
BITMAP
0000
0000
7ffe
0060
00c0
0180
0100
0300
0200
0200
0200
0300
0180
00e0
0038
0000
ENDCHAR
STARTCHAR 2447
ENCODING 9287
SWIDTH 1016 0
DWIDTH 18 0
BBX 16 16 1 -2
BITMAP
0000
0000
7ffc
0060
00c5
0185
0100
0300
0200
0200
0200
0300
0180
00e0
0038
0000
ENDCHAR
STARTCHAR 2448
ENCODING 9288
SWIDTH 1016 0
DWIDTH 18 0
BBX 16 16 1 -2
BITMAP
0000
1000
1800
0800
0c0c
0438
06e0
0380
0600
0c00
1800
1000
1000
1800
0ffc
0000
ENDCHAR
STARTCHAR 2449
ENCODING 9289
SWIDTH 1016 0
DWIDTH 18 0
BBX 16 16 1 -2
BITMAP
0005
1005
1800
0800
0c0c
0438
06e0
0380
0600
0c00
1800
1000
1000
1800
0ffc
0000
ENDCHAR
STARTCHAR 244a
ENCODING 9290
SWIDTH 1016 0
DWIDTH 18 0
BBX 16 16 1 -2
BITMAP
0800
0800
0818
7f0c
0806
1800
1020
1020
3020
2020
6020
03e0
0438
046c
03c0
0000
ENDCHAR
STARTCHAR 244b
ENCODING 9291
SWIDTH 1016 0
DWIDTH 18 0
BBX 16 16 1 -2
BITMAP
0000
1000
1000
31fc
2000
2000
2000
2000
2000
2000
2200
2200
2b00
31fe
1000
0000
ENDCHAR
STARTCHAR 244c
ENCODING 9292
SWIDTH 1016 0
DWIDTH 18 0
BBX 16 16 1 -2
BITMAP
0080
0080
2080
2080
37f0
1c9c
1084
3986
2902
6d02
4702
423a
4744
4d4e
383b
0000
ENDCHAR
STARTCHAR 244d
ENCODING 9293
SWIDTH 1016 0
DWIDTH 18 0
BBX 16 16 1 -2
BITMAP
0800
0800
0800
08f8
798c
0b06
0e02
0c02
0802
1802
383a
6844
084e
083b
0800
0000
ENDCHAR
STARTCHAR 244e
ENCODING 9294
SWIDTH 1016 0
DWIDTH 18 0
BBX 16 16 1 -2
BITMAP
0000
0000
03e0
0eb8
188c
3084
2186
6102
4302
4202
4606
4c04
381c
0070
0000
0000
ENDCHAR
STARTCHAR 244f
ENCODING 9295
SWIDTH 1016 0
DWIDTH 18 0
BBX 16 16 1 -2
BITMAP
0000
2020
2020
6020
47fe
4020
4020
4020
4020
4020
43e0
4438
542c
6466
23c0
0000
ENDCHAR
STARTCHAR 2450
ENCODING 9296
SWIDTH 1016 0
DWIDTH 18 0
BBX 16 16 1 -2
BITMAP
0005
2025
2020
6020
47fe
4020
4020
4020
4020
4020
43e0
4438
542c
6466
23c0
0000
ENDCHAR
STARTCHAR 2451
ENCODING 9297
SWIDTH 1016 0
DWIDTH 18 0
BBX 16 16 1 -2
BITMAP
0000
2040
2046
6049
47f9
4046
4040
4040
4040
4040
43c0
4470
5458
64cc
2380
0000
ENDCHAR
STARTCHAR 2452
ENCODING 9298
SWIDTH 1016 0
DWIDTH 18 0
BBX 16 16 1 -2
BITMAP
0000
0210
7e10
0418
0c1c
1816
1013
3010
2010
2010
2010
2030
3020
18e0
0f80
0000
ENDCHAR
STARTCHAR 2453
ENCODING 9299
SWIDTH 1016 0
DWIDTH 18 0
BBX 16 16 1 -2
BITMAP
0005
0215
7e10
0418
0c1c
1816
1013
3010
2010
2010
2010
2030
3020
18e0
0f80
0000
ENDCHAR
STARTCHAR 2454
ENCODING 9300
SWIDTH 1016 0
DWIDTH 18 0
BBX 16 16 1 -2
BITMAP
0000
0840
f846
1049
3069
2076
2058
6040
4040
4040
4040
4040
60c0
3180
1f00
0000
ENDCHAR
STARTCHAR 2455
ENCODING 9301
SWIDTH 1016 0
DWIDTH 18 0
BBX 16 16 1 -2
BITMAP
0000
0400
0600
0380
00c0
0000
0600
0300
018c
4086
40c2
5843
7041
20c0
0380
0000
ENDCHAR
STARTCHAR 2456
ENCODING 9302
SWIDTH 1016 0
DWIDTH 18 0
BBX 16 16 1 -2
BITMAP
0000
040a
060a
0380
00c0
0000
0600
0300
018c
4086
40c2
5843
7041
20c0
0380
0000
ENDCHAR
STARTCHAR 2457
ENCODING 9303
SWIDTH 1016 0
DWIDTH 18 0
BBX 16 16 1 -2
BITMAP
0000
0400
060c
0392
00d2
000c
0600
0300
018c
4086
40c2
5843
7041
20c0
0380
0000
ENDCHAR
STARTCHAR 2458
ENCODING 9304
SWIDTH 1016 0
DWIDTH 18 0
BBX 16 16 1 -2
BITMAP
0000
0000
0000
0600
0900
1980
1080
30c0
6060
0030
0018
000c
0006
0000
0000
0000
ENDCHAR
STARTCHAR 2459
ENCODING 9305
SWIDTH 1016 0
DWIDTH 18 0
BBX 16 16 1 -2
BITMAP
0000
0028
0028
0600
0900
1980
1080
30c0
6060
0030
0018
000c
0006
0000
0000
0000
ENDCHAR
STARTCHAR 245a
ENCODING 9306
SWIDTH 1016 0
DWIDTH 18 0
BBX 16 16 1 -2
BITMAP
0000
0000
0000
0618
0924
19a4
1098
30c0
6060
0030
0018
000c
0006
0000
0000
0000
ENDCHAR
STARTCHAR 245b
ENCODING 9307
SWIDTH 1016 0
DWIDTH 18 0
BBX 16 16 1 -2
BITMAP
0000
2000
27fe
6020
4020
4020
47fe
4020
4020
4020
43e0
4438
542c
6466
23c0
0000
ENDCHAR
STARTCHAR 245c
ENCODING 9308
SWIDTH 1016 0
DWIDTH 18 0
BBX 16 16 1 -2
BITMAP
0005
2005
27f8
6020
4020
4020
47fc
4020
4020
4020
43e0
4438
542c
6466
23c0
0000
ENDCHAR
STARTCHAR 245d
ENCODING 9309
SWIDTH 1016 0
DWIDTH 18 0
BBX 16 16 1 -2
BITMAP
0000
2000
27f6
6049
4049
4046
47f8
4040
4040
4040
43c0
4470
5458
64cc
2380
0000
ENDCHAR
STARTCHAR 245e
ENCODING 9310
SWIDTH 1016 0
DWIDTH 18 0
BBX 16 16 1 -2
BITMAP
0080
0080
0080
3ffc
0080
0080
3ffc
0080
0080
0080
1f80
20e0
20b8
218c
1f00
0000
ENDCHAR
STARTCHAR 245f
ENCODING 9311
SWIDTH 1016 0
DWIDTH 18 0
BBX 16 16 1 -2
BITMAP
0000
0000
1f00
0100
0108
0108
0108
1ff8
320e
660b
4418
4c10
5830
3060
00c0
0000
ENDCHAR
STARTCHAR 2460
ENCODING 9312
SWIDTH 1016 0
DWIDTH 18 0
BBX 16 16 1 -2
BITMAP
0800
0800
0800
7f18
080c
0806
0802
3800
4800
4800
4800
4808
3808
0c18
07f0
0000
ENDCHAR
STARTCHAR 2461
ENCODING 9313
SWIDTH 1016 0
DWIDTH 18 0
BBX 16 16 1 -2
BITMAP
0040
0040
2040
2040
37f0
1c9c
1084
3886
2d82
6502
4702
4206
4f04
391c
0070
0000
ENDCHAR
STARTCHAR 2462
ENCODING 9314
SWIDTH 1016 0
DWIDTH 18 0
BBX 16 16 1 -2
BITMAP
0200
0200
0200
3fe0
0200
0200
3fe0
0400
0400
0404
0404
0404
060c
0318
01f0
0000
ENDCHAR
STARTCHAR 2463
ENCODING 9315
SWIDTH 1016 0
DWIDTH 18 0
BBX 16 16 1 -2
BITMAP
0000
0000
0000
0000
00c0
0860
0c20
04f8
0784
1e04
3304
0118
0100
0180
0080
0080
ENDCHAR
STARTCHAR 2464
ENCODING 9316
SWIDTH 1016 0
DWIDTH 18 0
BBX 16 16 1 -2
BITMAP
0000
10c0
1860
0820
0cfc
0782
3c02
e606
021c
0200
0300
0100
0100
0180
0080
0080
ENDCHAR
STARTCHAR 2465
ENCODING 9317
SWIDTH 1016 0
DWIDTH 18 0
BBX 16 16 1 -2
BITMAP
0000
0000
0000
0000
0040
0840
09f0
1248
1444
1444
1844
0a48
09f0
0040
00c0
0180
ENDCHAR
STARTCHAR 2466
ENCODING 9318
SWIDTH 1016 0
DWIDTH 18 0
BBX 16 16 1 -2
BITMAP
0000
0040
2040
23f8
664c
4c46
4842
5042
5042
6046
264c
23f8
0040
00c0
0180
0000
ENDCHAR
STARTCHAR 2467
ENCODING 9319
SWIDTH 1016 0
DWIDTH 18 0
BBX 16 16 1 -2
BITMAP
0000
0000
0000
0000
0100
0100
0100
01f0
0100
0100
0100
0100
0f00
11e0
1130
0e00
ENDCHAR
STARTCHAR 2468
ENCODING 9320
SWIDTH 1016 0
DWIDTH 18 0
BBX 16 16 1 -2
BITMAP
0080
0080
0080
0080
00fc
0080
0080
0080
0080
0080
1f80
20e0
20b8
218c
1f00
0000
ENDCHAR
STARTCHAR 2469
ENCODING 9321
SWIDTH 1016 0
DWIDTH 18 0
BBX 16 16 1 -2
BITMAP
0180
00c0
0860
0800
1800
1000
1000
13f8
1e0c
3004
0004
0004
000c
0038
01e0
0000
ENDCHAR
STARTCHAR 246a
ENCODING 9322
SWIDTH 1016 0
DWIDTH 18 0
BBX 16 16 1 -2
BITMAP
0000
0808
0808
0808
0808
0808
0808
0a08
0c08
0808
0018
0010
0030
0060
01c0
0000
ENDCHAR
STARTCHAR 246b
ENCODING 9323
SWIDTH 1016 0
DWIDTH 18 0
BBX 16 16 1 -2
BITMAP
0000
1ff0
0060
00c0
0180
0300
07f0
0c18
180c
3004
0704
0984
088c
0c98
07f0
0000
ENDCHAR
STARTCHAR 246c
ENCODING 9324
SWIDTH 1016 0
DWIDTH 18 0
BBX 16 16 1 -2
BITMAP
0800
0800
0800
08e0
7990
0b10
0e10
0c10
0810
1810
3810
6811
0813
080e
0800
0000
ENDCHAR
STARTCHAR 246d
ENCODING 9325
SWIDTH 1016 0
DWIDTH 18 0
BBX 16 16 1 -2
BITMAP
0000
1ff0
0060
00c0
0180
0300
07f0
0c18
180c
3004
0004
000c
0018
0070
03c0
0000
ENDCHAR
STARTCHAR 246e
ENCODING 9326
SWIDTH 1016 0
DWIDTH 18 0
BBX 16 16 1 -2
BITMAP
0000
0000
0000
0000
0400
0400
0400
3c70
0588
0604
0404
0c04
1c04
3408
0430
0400
ENDCHAR
STARTCHAR 246f
ENCODING 9327
SWIDTH 1016 0
DWIDTH 18 0
BBX 16 16 1 -2
BITMAP
0800
0800
0800
08f8
798c
0b06
0e02
0c02
0802
1802
3802
6806
080c
0838
0800
0000
ENDCHAR
STARTCHAR 2470
ENCODING 9328
SWIDTH 1016 0
DWIDTH 18 0
BBX 16 16 1 -2
BITMAP
0000
0f80
0080
0080
0080
03f8
0d0c
1906
3302
2602
6462
4cb2
5896
30cc
0078
0000
ENDCHAR
STARTCHAR 2471
ENCODING 9329
SWIDTH 1016 0
DWIDTH 18 0
BBX 16 16 1 -2
BITMAP
0000
1ff0
00c0
0300
0ff0
3818
0008
0e08
1318
1930
0fe0
0800
3e7c
63c6
c083
0000
ENDCHAR
STARTCHAR 2472
ENCODING 9330
SWIDTH 1016 0
DWIDTH 18 0
BBX 16 16 1 -2
BITMAP
0200
0200
03e0
3e00
0400
0406
0f9c
1870
31c0
0340
0640
0c40
0800
0c00
07fc
0000
ENDCHAR
STARTCHAR 2473
ENCODING 9331
SWIDTH 1016 0
DWIDTH 18 0
BBX 16 16 1 -2
BITMAP
0200
0200
0600
0400
0c00
0800
0800
1b80
1440
1840
3040
2042
2046
604c
4038
0000
ENDCHAR
STARTCHAR 2521
ENCODING 9505
SWIDTH 1016 0
DWIDTH 18 0
BBX 16 16 1 -2
BITMAP
0000
0000
0000
0000
0000
0000
1ffc
000c
0118
0130
0100
0100
0300
0200
0600
0c00
ENDCHAR
STARTCHAR 2522
ENCODING 9506
SWIDTH 1016 0
DWIDTH 18 0
BBX 16 16 1 -2
BITMAP
0000
0000
7ffe
0006
010c
0118
0130
0100
0100
0100
0300
0200
0600
0c00
3800
0000
ENDCHAR
STARTCHAR 2523
ENCODING 9507
SWIDTH 1016 0
DWIDTH 18 0
BBX 16 16 1 -2
BITMAP
0000
0000
0000
0000
0000
0008
0018
0030
00e0
0380
1e80
0080
0080
0080
0080
0080
ENDCHAR
STARTCHAR 2524
ENCODING 9508
SWIDTH 1016 0
DWIDTH 18 0
BBX 16 16 1 -2
BITMAP
0000
0004
000c
0018
0030
00e0
0380
0e80
7880
0080
0080
0080
0080
0080
0080
0000
ENDCHAR
STARTCHAR 2525
ENCODING 9509
SWIDTH 1016 0
DWIDTH 18 0
BBX 16 16 1 -2
BITMAP
0000
0000
0000
0000
0000
0100
0100
1ff8
1008
1008
0018
0010
0030
0060
01c0
0700
ENDCHAR
STARTCHAR 2526
ENCODING 9510
SWIDTH 1016 0
DWIDTH 18 0
BBX 16 16 1 -2
BITMAP
0100
0100
0100
3ffc
2004
2004
2004
2004
000c
0008
0018
0030
0060
01c0
0700
0000
ENDCHAR
STARTCHAR 2527
ENCODING 9511
SWIDTH 1016 0
DWIDTH 18 0
BBX 16 16 1 -2
BITMAP
0000
0000
0000
0000
0000
0000
0000
0ff0
0100
0100
0100
0100
0100
0100
1ff8
0000
ENDCHAR
STARTCHAR 2528
ENCODING 9512
SWIDTH 1016 0
DWIDTH 18 0
BBX 16 16 1 -2
BITMAP
0000
0000
0000
3ffc
0100
0100
0100
0100
0100
0100
0100
0100
7ffe
0000
0000
0000
ENDCHAR
STARTCHAR 2529
ENCODING 9513
SWIDTH 1016 0
DWIDTH 18 0
BBX 16 16 1 -2
BITMAP
0000
0000
0000
0000
0000
0040
0040
0040
1ffc
0140
0340
0640
0c40
3840
0040
01c0
ENDCHAR
STARTCHAR 252a
ENCODING 9514
SWIDTH 1016 0
DWIDTH 18 0
BBX 16 16 1 -2
BITMAP
0040
0040
0040
0040
7ffe
0140
0340
0240
0640
0c40
1840
3040
6040
0040
01c0
0000
ENDCHAR
STARTCHAR 252b
ENCODING 9515
SWIDTH 1016 0
DWIDTH 18 0
BBX 16 16 1 -2
BITMAP
0100
0100
0100
0100
3ffc
0104
0104
0304
0204
0204
0604
040c
0c08
1808
3078
0000
ENDCHAR
STARTCHAR 252c
ENCODING 9516
SWIDTH 1016 0
DWIDTH 18 0
BBX 16 16 1 -2
BITMAP
0105
0105
0100
0100
3ffc
0104
0104
0304
0204
0204
0604
040c
0c08
1808
3078
0000
ENDCHAR
STARTCHAR 252d
ENCODING 9517
SWIDTH 1016 0
DWIDTH 18 0
BBX 16 16 1 -2
BITMAP
0400
0400
0600
0238
03e0
0f00
7900
011e
01f0
0780
3c80
00c0
0040
0040
0060
0020
ENDCHAR
STARTCHAR 252e
ENCODING 9518
SWIDTH 1016 0
DWIDTH 18 0
BBX 16 16 1 -2
BITMAP
0405
0405
0600
0238
03e0
0f00
7900
011e
01f0
0780
3c80
00c0
0040
0040
0060
0020
ENDCHAR
STARTCHAR 252f
ENCODING 9519
SWIDTH 1016 0
DWIDTH 18 0
BBX 16 16 1 -2
BITMAP
0100
0100
0100
03f8
0208
0608
0c18
1810
0030
0020
0060
00c0
0180
0700
1c00
0000
ENDCHAR
STARTCHAR 2530
ENCODING 9520
SWIDTH 1016 0
DWIDTH 18 0
BBX 16 16 1 -2
BITMAP
0105
0105
0100
03f8
0208
0608
0c18
1810
0030
0020
0060
00c0
0180
0700
1c00
0000
ENDCHAR
STARTCHAR 2531
ENCODING 9521
SWIDTH 1016 0
DWIDTH 18 0
BBX 16 16 1 -2
BITMAP
0400
0400
0c00
0800
1ffe
1020
3020
6020
0020
0060
0040
00c0
0180
0300
0e00
0000
ENDCHAR
STARTCHAR 2532
ENCODING 9522
SWIDTH 1016 0
DWIDTH 18 0
BBX 16 16 1 -2
BITMAP
0405
0405
0c00
0800
1ffe
1020
3020
6020
0020
0060
0040
00c0
0180
0300
0e00
0000
ENDCHAR
STARTCHAR 2533
ENCODING 9523
SWIDTH 1016 0
DWIDTH 18 0
BBX 16 16 1 -2
BITMAP
0000
0000
0000
3ffc
0004
0004
0004
0004
0004
0004
0004
0004
0004
3ffc
0000
0000
ENDCHAR
STARTCHAR 2534
ENCODING 9524
SWIDTH 1016 0
DWIDTH 18 0
BBX 16 16 1 -2
BITMAP
0005
0005
0000
3ffc
0004
0004
0004
0004
0004
0004
0004
0004
0004
3ffc
0000
0000
ENDCHAR
STARTCHAR 2535
ENCODING 9525
SWIDTH 1016 0
DWIDTH 18 0
BBX 16 16 1 -2
BITMAP
0000
0810
0810
0810
ffff
0810
0810
0810
0810
0030
0020
0060
00c0
0180
0700
0000
ENDCHAR
STARTCHAR 2536
ENCODING 9526
SWIDTH 1016 0
DWIDTH 18 0
BBX 16 16 1 -2
BITMAP
0005
0815
0810
0810
ffff
0810
0810
0810
0810
0030
0020
0060
00c0
0180
0700
0000
ENDCHAR
STARTCHAR 2537
ENCODING 9527
SWIDTH 1016 0
DWIDTH 18 0
BBX 16 16 1 -2
BITMAP
0000
0000
0c00
0600
0200
0000
3002
1806
080c
0018
0030
0060
01c0
0700
3c00
0000
ENDCHAR
STARTCHAR 2538
ENCODING 9528
SWIDTH 1016 0
DWIDTH 18 0
BBX 16 16 1 -2
BITMAP
0000
000a
0c0a
0600
0200
0000
3002
1806
080c
0018
0030
0060
01c0
0700
3c00
0000
ENDCHAR
STARTCHAR 2539
ENCODING 9529
SWIDTH 1016 0
DWIDTH 18 0
BBX 16 16 1 -2
BITMAP
0000
0000
3ff0
0010
0010
0030
0020
0060
00c0
01c0
0360
0630
0c18
180c
7006
0000
ENDCHAR
STARTCHAR 253a
ENCODING 9530
SWIDTH 1016 0
DWIDTH 18 0
BBX 16 16 1 -2
BITMAP
0005
0005
3ff0
0010
0010
0030
0020
0060
00c0
01c0
0360
0630
0c18
180c
7006
0000
ENDCHAR
STARTCHAR 253b
ENCODING 9531
SWIDTH 1016 0
DWIDTH 18 0
BBX 16 16 1 -2
BITMAP
0000
0800
0800
0800
08fc
0f8c
f818
0830
0800
0800
0800
0800
0c00
07fc
0000
0000
ENDCHAR
STARTCHAR 253c
ENCODING 9532
SWIDTH 1016 0
DWIDTH 18 0
BBX 16 16 1 -2
BITMAP
0005
0805
0800
0800
08fc
0f8c
f818
0830
0800
0800
0800
0800
0c00
07fc
0000
0000
ENDCHAR
STARTCHAR 253d
ENCODING 9533
SWIDTH 1016 0
DWIDTH 18 0
BBX 16 16 1 -2
BITMAP
0000
0000
2004
3004
1004
1804
080c
0008
0018
0010
0030
0060
00c0
0380
0e00
0000
ENDCHAR
STARTCHAR 253e
ENCODING 9534
SWIDTH 1016 0
DWIDTH 18 0
BBX 16 16 1 -2
BITMAP
0005
0005
2000
3008
1008
1808
0818
0010
0030
0020
0060
00c0
0180
0700
1c00
0000
ENDCHAR
STARTCHAR 253f
ENCODING 9535
SWIDTH 1016 0
DWIDTH 18 0
BBX 16 16 1 -2
BITMAP
0100
0100
0100
03fc
0204
060c
0d88
18d8
0050
0030
0060
00c0
0180
0700
1c00
0000
ENDCHAR
STARTCHAR 2540
ENCODING 9536
SWIDTH 1016 0
DWIDTH 18 0
BBX 16 16 1 -2
BITMAP
0205
0205
0200
07f8
0408
0c18
1b10
31b0
00a0
0060
00c0
0180
0300
0e00
3800
0000
ENDCHAR
STARTCHAR 2541
ENCODING 9537
SWIDTH 1016 0
DWIDTH 18 0
BBX 16 16 1 -2
BITMAP
0000
0018
00f0
1f80
0080
0080
0080
7ffe
0080
0080
0180
0100
0300
0600
1c00
0000
ENDCHAR
STARTCHAR 2542
ENCODING 9538
SWIDTH 1016 0
DWIDTH 18 0
BBX 16 16 1 -2
BITMAP
0005
0035
00e0
1f80
0080
0080
0080
7ffe
0080
0080
0180
0100
0300
0600
1c00
0000
ENDCHAR
STARTCHAR 2543
ENCODING 9539
SWIDTH 1016 0
DWIDTH 18 0
BBX 16 16 1 -2
BITMAP
0000
0000
0000
0000
0000
0000
0200
1308
1908
0818
0010
0030
0060
00c0
0180
0700
ENDCHAR
STARTCHAR 2544
ENCODING 9540
SWIDTH 1016 0
DWIDTH 18 0
BBX 16 16 1 -2
BITMAP
0000
0000
0400
4602
6202
2306
3104
100c
0008
0018
0030
0060
00c0
0380
0e00
0000
ENDCHAR
STARTCHAR 2545
ENCODING 9541
SWIDTH 1016 0
DWIDTH 18 0
BBX 16 16 1 -2
BITMAP
0005
0005
0400
4604
6204
2304
310c
1008
0018
0010
0030
0060
00c0
0380
0e00
0000
ENDCHAR
STARTCHAR 2546
ENCODING 9542
SWIDTH 1016 0
DWIDTH 18 0
BBX 16 16 1 -2
BITMAP
0000
0000
3ffc
0000
0000
0000
7ffe
0080
0080
0080
0180
0100
0300
0600
1c00
0000
ENDCHAR
STARTCHAR 2547
ENCODING 9543
SWIDTH 1016 0
DWIDTH 18 0
BBX 16 16 1 -2
BITMAP
0005
0005
3ff8
0000
0000
0000
7ffc
0080
0080
0080
0180
0100
0300
0600
1c00
0000
ENDCHAR
STARTCHAR 2548
ENCODING 9544
SWIDTH 1016 0
DWIDTH 18 0
BBX 16 16 1 -2
BITMAP
0000
0200
0200
0200
0200
0200
03c0
0270
021c
0200
0200
0200
0200
0200
0200
0000
ENDCHAR
STARTCHAR 2549
ENCODING 9545
SWIDTH 1016 0
DWIDTH 18 0
BBX 16 16 1 -2
BITMAP
0000
020a
020a
0200
0200
0200
03c0
0270
021c
0200
0200
0200
0200
0200
0200
0000
ENDCHAR
STARTCHAR 254a
ENCODING 9546
SWIDTH 1016 0
DWIDTH 18 0
BBX 16 16 1 -2
BITMAP
0000
0080
0080
0080
0080
7ffe
0080
0080
0080
0080
0180
0100
0300
0600
1c00
0000
ENDCHAR
STARTCHAR 254b
ENCODING 9547
SWIDTH 1016 0
DWIDTH 18 0
BBX 16 16 1 -2
BITMAP
0000
0000
0000
0000
1ff8
0000
0000
0000
0000
0000
0000
0000
7ffe
0000
0000
0000
ENDCHAR
STARTCHAR 254c
ENCODING 9548
SWIDTH 1016 0
DWIDTH 18 0
BBX 16 16 1 -2
BITMAP
0000
0000
1ff8
0008
0018
0010
0c30
0760
01c0
00e0
01b0
0318
0608
0c00
3800
0000
ENDCHAR
STARTCHAR 254d
ENCODING 9549
SWIDTH 1016 0
DWIDTH 18 0
BBX 16 16 1 -2
BITMAP
0100
0100
0100
3ff8
0030
0060
00c0
0180
0730
1d1c
7106
0100
0100
0100
0100
0000
ENDCHAR
STARTCHAR 254e
ENCODING 9550
SWIDTH 1016 0
DWIDTH 18 0
BBX 16 16 1 -2
BITMAP
0000
0000
0008
0008
0018
0010
0030
0060
0040
00c0
0180
0300
0600
0c00
3800
0000
ENDCHAR
STARTCHAR 254f
ENCODING 9551
SWIDTH 1016 0
DWIDTH 18 0
BBX 16 16 1 -2
BITMAP
0000
0000
0000
0420
0430
0410
0c18
0808
080c
0804
1804
1006
3002
6002
0000
0000
ENDCHAR
STARTCHAR 2550
ENCODING 9552
SWIDTH 1016 0
DWIDTH 18 0
BBX 16 16 1 -2
BITMAP
0005
0005
0000
0420
0430
0410
0c18
0808
080c
0804
1804
1006
3002
6002
0000
0000
ENDCHAR
STARTCHAR 2551
ENCODING 9553
SWIDTH 1016 0
DWIDTH 18 0
BBX 16 16 1 -2
BITMAP
0000
0000
0006
0849
0869
0826
1830
1010
1018
1008
3008
200c
6004
c004
0000
0000
ENDCHAR
STARTCHAR 2552
ENCODING 9554
SWIDTH 1016 0
DWIDTH 18 0
BBX 16 16 1 -2
BITMAP
0000
1000
1000
1000
1018
10f0
1f80
1000
1000
1000
1000
1000
1800
0ffc
0000
0000
ENDCHAR
STARTCHAR 2553
ENCODING 9555
SWIDTH 1016 0
DWIDTH 18 0
BBX 16 16 1 -2
BITMAP
0005
1005
1000
1000
1018
10f0
1f80
1000
1000
1000
1000
1000
1800
0ffc
0000
0000
ENDCHAR
STARTCHAR 2554
ENCODING 9556
SWIDTH 1016 0
DWIDTH 18 0
BBX 16 16 1 -2
BITMAP
0000
2000
2006
2009
2069
23c6
3e00
2000
2000
2000
2000
2000
3000
1ff8
0000
0000
ENDCHAR
STARTCHAR 2555
ENCODING 9557
SWIDTH 1016 0
DWIDTH 18 0
BBX 16 16 1 -2
BITMAP
0000
0000
3ffc
0004
000c
0008
0018
0010
0030
0060
00c0
0180
0700
1c00
0000
0000
ENDCHAR
STARTCHAR 2556
ENCODING 9558
SWIDTH 1016 0
DWIDTH 18 0
BBX 16 16 1 -2
BITMAP
0005
0005
7ff8
0008
0018
0010
0030
0020
0060
00c0
0180
0300
0e00
3800
0000
0000
ENDCHAR
STARTCHAR 2557
ENCODING 9559
SWIDTH 1016 0
DWIDTH 18 0
BBX 16 16 1 -2
BITMAP
0000
0000
ffe6
0029
0029
0066
0040
00c0
0080
0180
0300
0600
1c00
7000
0000
0000
ENDCHAR
STARTCHAR 2558
ENCODING 9560
SWIDTH 1016 0
DWIDTH 18 0
BBX 16 16 1 -2
BITMAP
0000
0000
0000
0400
0e00
0b00
1980
10c0
3060
6030
0018
000c
0006
0000
0000
0000
ENDCHAR
STARTCHAR 2559
ENCODING 9561
SWIDTH 1016 0
DWIDTH 18 0
BBX 16 16 1 -2
BITMAP
0000
0050
0050
0400
0e00
0b00
1980
10c0
3060
6030
0018
000c
0006
0000
0000
0000
ENDCHAR
STARTCHAR 255a
ENCODING 9562
SWIDTH 1016 0
DWIDTH 18 0
BBX 16 16 1 -2
BITMAP
0000
0000
0000
0430
0e48
0b48
19b0
10c0
3060
6030
0018
000c
0006
0000
0000
0000
ENDCHAR
STARTCHAR 255b
ENCODING 9563
SWIDTH 1016 0
DWIDTH 18 0
BBX 16 16 1 -2
BITMAP
0000
0100
0100
0100
7ffe
0100
0100
0910
0918
190c
1104
3106
6102
0100
0700
0000
ENDCHAR
STARTCHAR 255c
ENCODING 9564
SWIDTH 1016 0
DWIDTH 18 0
BBX 16 16 1 -2
BITMAP
000a
010a
0100
0100
7ffe
0100
0100
0910
0918
190c
1104
3106
6102
0100
0700
0000
ENDCHAR
STARTCHAR 255d
ENCODING 9565
SWIDTH 1016 0
DWIDTH 18 0
BBX 16 16 1 -2
BITMAP
0000
0100
0106
0109
7ff9
0106
0100
0920
0930
1918
1108
310c
6104
0100
0700
0000
ENDCHAR
STARTCHAR 255e
ENCODING 9566
SWIDTH 1016 0
DWIDTH 18 0
BBX 16 16 1 -2
BITMAP
0000
0000
0000
7ffe
000c
0018
0030
0c60
06c0
0380
0180
00c0
0060
0020
0000
0000
ENDCHAR
STARTCHAR 255f
ENCODING 9567
SWIDTH 1016 0
DWIDTH 18 0
BBX 16 16 1 -2
BITMAP
0000
0700
01e0
0030
0000
0000
0700
01c0
0060
0000
0000
0e00
0380
00e0
0030
0000
ENDCHAR
STARTCHAR 2560
ENCODING 9568
SWIDTH 1016 0
DWIDTH 18 0
BBX 16 16 1 -2
BITMAP
0000
0100
0100
0300
0200
0200
0600
0410
0410
0c18
0808
08fc
1f84
7006
0000
0000
ENDCHAR
STARTCHAR 2561
ENCODING 9569
SWIDTH 1016 0
DWIDTH 18 0
BBX 16 16 1 -2
BITMAP
0000
0008
0008
0018
0010
0c30
0760
01c0
00e0
01b0
0318
0608
0c00
1800
7000
0000
ENDCHAR
STARTCHAR 2562
ENCODING 9570
SWIDTH 1016 0
DWIDTH 18 0
BBX 16 16 1 -2
BITMAP
0000
0000
3ff8
0200
0200
0200
0200
7ffc
0200
0200
0200
0200
0300
01fc
0000
0000
ENDCHAR
STARTCHAR 2563
ENCODING 9571
SWIDTH 1016 0
DWIDTH 18 0
BBX 16 16 1 -2
BITMAP
0000
0000
0000
0000
0000
0400
0600
023c
03e4
0f0c
3908
0180
0080
00c0
0040
0040
ENDCHAR
STARTCHAR 2564
ENCODING 9572
SWIDTH 1016 0
DWIDTH 18 0
BBX 16 16 1 -2
BITMAP
0000
0800
0c00
041e
05f2
1f06
f20c
0308
0100
0180
0080
0080
00c0
0040
0040
0000
ENDCHAR
STARTCHAR 2565
ENCODING 9573
SWIDTH 1016 0
DWIDTH 18 0
BBX 16 16 1 -2
BITMAP
0000
0000
0000
0000
0000
0000
0000
0fc0
0040
0040
0040
0040
0040
0040
1ff8
0000
ENDCHAR
STARTCHAR 2566
ENCODING 9574
SWIDTH 1016 0
DWIDTH 18 0
BBX 16 16 1 -2
BITMAP
0000
0000
0000
1fe0
0020
0020
0020
0020
0020
0020
0020
0020
7ffe
0000
0000
0000
ENDCHAR
STARTCHAR 2567
ENCODING 9575
SWIDTH 1016 0
DWIDTH 18 0
BBX 16 16 1 -2
BITMAP
0000
0000
0000
0000
0000
0000
0ff0
0010
0010
0010
0ff0
0010
0010
0010
0ff0
0000
ENDCHAR
STARTCHAR 2568
ENCODING 9576
SWIDTH 1016 0
DWIDTH 18 0
BBX 16 16 1 -2
BITMAP
0000
0000
1ff8
0008
0008
0008
0008
1ff8
0008
0008
0008
0008
0008
1ff8
0000
0000
ENDCHAR
STARTCHAR 2569
ENCODING 9577
SWIDTH 1016 0
DWIDTH 18 0
BBX 16 16 1 -2
BITMAP
0000
0000
1ff8
0000
0000
0000
3ffc
0004
000c
0008
0018
0030
0060
01c0
0f00
0000
ENDCHAR
STARTCHAR 256a
ENCODING 9578
SWIDTH 1016 0
DWIDTH 18 0
BBX 16 16 1 -2
BITMAP
0000
0808
0808
0808
0808
0808
0808
0808
0808
0008
0018
0010
0030
0060
01c0
0000
ENDCHAR
STARTCHAR 256b
ENCODING 9579
SWIDTH 1016 0
DWIDTH 18 0
BBX 16 16 1 -2
BITMAP
0000
0040
0840
0840
0840
0840
0840
0841
0843
0846
184c
1058
3070
6060
0000
0000
ENDCHAR
STARTCHAR 256c
ENCODING 9580
SWIDTH 1016 0
DWIDTH 18 0
BBX 16 16 1 -2
BITMAP
0000
0000
0800
0800
0800
0800
0800
0802
0806
080c
0818
0870
09c0
0f00
0000
0000
ENDCHAR
STARTCHAR 256d
ENCODING 9581
SWIDTH 1016 0
DWIDTH 18 0
BBX 16 16 1 -2
BITMAP
0000
0000
0000
1ff8
1008
1008
1008
1008
1008
1008
1008
1008
1ff8
0000
0000
0000
ENDCHAR
STARTCHAR 256e
ENCODING 9582
SWIDTH 1016 0
DWIDTH 18 0
BBX 16 16 1 -2
BITMAP
0000
0000
0000
0000
0000
0000
1ff8
1008
1008
1008
0018
0010
0030
0060
01c0
0700
ENDCHAR
STARTCHAR 256f
ENCODING 9583
SWIDTH 1016 0
DWIDTH 18 0
BBX 16 16 1 -2
BITMAP
0000
0000
3ffc
2004
2004
2004
0004
000c
0008
0018
0030
0060
01c0
0700
0000
0000
ENDCHAR
STARTCHAR 2570
ENCODING 9584
SWIDTH 1016 0
DWIDTH 18 0
BBX 16 16 1 -2
BITMAP
0000
0040
0040
0040
3ffc
0840
0840
0840
0840
0840
7ffe
0040
0040
0040
0040
0000
ENDCHAR
STARTCHAR 2571
ENCODING 9585
SWIDTH 1016 0
DWIDTH 18 0
BBX 16 16 1 -2
BITMAP
0000
0000
0000
3ffc
000c
0018
0130
0100
0100
0100
0100
0100
7ffe
0000
0000
0000
ENDCHAR
STARTCHAR 2572
ENCODING 9586
SWIDTH 1016 0
DWIDTH 18 0
BBX 16 16 1 -2
BITMAP
0000
0000
1ffc
0004
0004
0004
1ffc
0008
0018
0030
0060
00c0
0380
0e00
0000
0000
ENDCHAR
STARTCHAR 2573
ENCODING 9587
SWIDTH 1016 0
DWIDTH 18 0
BBX 16 16 1 -2
BITMAP
0000
0000
3000
1c00
0600
0002
0006
000c
0018
0030
0060
01c0
0700
3c00
0000
0000
ENDCHAR
STARTCHAR 2574
ENCODING 9588
SWIDTH 1016 0
DWIDTH 18 0
BBX 16 16 1 -2
BITMAP
0105
0105
0100
3ffc
2004
2004
2004
2004
000c
0008
0018
0030
0060
01c0
0700
0000
ENDCHAR
STARTCHAR 2575
ENCODING 9589
SWIDTH 1016 0
DWIDTH 18 0
BBX 16 16 1 -2
BITMAP
0000
0000
0000
0000
0000
0100
0100
0100
1ff8
0108
0108
0308
0208
0618
0c10
1870
ENDCHAR
STARTCHAR 2576
ENCODING 9590
SWIDTH 1016 0
DWIDTH 18 0
BBX 16 16 1 -2
BITMAP
0000
0000
0000
0000
0000
0400
0400
0400
0ffc
0820
1820
3060
0040
00c0
0180
0300
ENDCHAR
STARTCHAR 2621
ENCODING 9761
SWIDTH 1016 0
DWIDTH 18 0
BBX 16 16 1 -2
BITMAP
0000
0100
0100
0380
0280
06c0
0440
0c60
0820
1ff0
1010
3018
2008
f83e
0000
0000
ENDCHAR
STARTCHAR 2622
ENCODING 9762
SWIDTH 1016 0
DWIDTH 18 0
BBX 16 16 1 -2
BITMAP
0000
3fe0
0810
0808
0808
0808
0810
0fe0
0818
0804
0804
0804
0808
3ff0
0000
0000
ENDCHAR
STARTCHAR 2623
ENCODING 9763
SWIDTH 1016 0
DWIDTH 18 0
BBX 16 16 1 -2
BITMAP
0000
1ffc
0404
0404
0400
0400
0400
0400
0400
0400
0400
0400
0400
1f00
0000
0000
ENDCHAR
STARTCHAR 2624
ENCODING 9764
SWIDTH 1016 0
DWIDTH 18 0
BBX 16 16 1 -2
BITMAP
0000
0100
0380
0280
06c0
0440
0c60
0820
0820
1830
1010
3018
2008
7ffc
0000
0000
ENDCHAR
STARTCHAR 2625
ENCODING 9765
SWIDTH 1016 0
DWIDTH 18 0
BBX 16 16 1 -2
BITMAP
0000
3ff8
0808
0808
0800
0840
0840
0fc0
0840
0840
0800
0808
0808
3ff8
0000
0000
ENDCHAR
STARTCHAR 2626
ENCODING 9766
SWIDTH 1016 0
DWIDTH 18 0
BBX 16 16 1 -2
BITMAP
0000
1ff8
1030
1060
0040
00c0
0180
0100
0300
0600
0400
0c08
1808
3ff8
0000
0000
ENDCHAR
STARTCHAR 2627
ENCODING 9767
SWIDTH 1016 0
DWIDTH 18 0
BBX 16 16 1 -2
BITMAP
0000
7c3e
1008
1008
1008
1008
1008
1ff8
1008
1008
1008
1008
1008
7c3e
0000
0000
ENDCHAR
STARTCHAR 2628
ENCODING 9768
SWIDTH 1016 0
DWIDTH 18 0
BBX 16 16 1 -2
BITMAP
0000
03c0
0c30
1818
1008
300c
2424
27e4
2424
300c
1008
1818
0c30
03c0
0000
0000
ENDCHAR
STARTCHAR 2629
ENCODING 9769
SWIDTH 1016 0
DWIDTH 18 0
BBX 16 16 1 -2
BITMAP
0000
07c0
0100
0100
0100
0100
0100
0100
0100
0100
0100
0100
0100
07c0
0000
0000
ENDCHAR
STARTCHAR 262a
ENCODING 9770
SWIDTH 1016 0
DWIDTH 18 0
BBX 16 16 1 -2
BITMAP
0000
3e7c
0830
0860
08c0
0980
0b00
0f00
0980
08c0
0860
0830
0818
3e3e
0000
0000
ENDCHAR
STARTCHAR 262b
ENCODING 9771
SWIDTH 1016 0
DWIDTH 18 0
BBX 16 16 1 -2
BITMAP
0000
0100
0380
0280
06c0
0440
0c60
0820
0820
1830
1010
3018
2008
f83e
0000
0000
ENDCHAR
STARTCHAR 262c
ENCODING 9772
SWIDTH 1016 0
DWIDTH 18 0
BBX 16 16 1 -2
BITMAP
0000
f01e
3018
3838
2828
2828
2c68
2448
2448
26c8
2288
2388
2108
f11e
0000
0000
ENDCHAR
STARTCHAR 262d
ENCODING 9773
SWIDTH 1016 0
DWIDTH 18 0
BBX 16 16 1 -2
BITMAP
0000
783e
1c08
1408
1608
1308
1108
1188
10c8
1048
1068
1038
1018
7808
0000
0000
ENDCHAR
STARTCHAR 262e
ENCODING 9774
SWIDTH 1016 0
DWIDTH 18 0
BBX 16 16 1 -2
BITMAP
0000
3ffc
2004
0000
0000
0000
1008
1ff8
1008
0000
0000
0000
2004
3ffc
0000
0000
ENDCHAR
STARTCHAR 262f
ENCODING 9775
SWIDTH 1016 0
DWIDTH 18 0
BBX 16 16 1 -2
BITMAP
0000
03c0
0c30
1818
1008
300c
2004
2004
2004
300c
1008
1818
0c30
03c0
0000
0000
ENDCHAR
STARTCHAR 2630
ENCODING 9776
SWIDTH 1016 0
DWIDTH 18 0
BBX 16 16 1 -2
BITMAP
0000
3ffc
0810
0810
0810
0810
0810
0810
0810
0810
0810
0810
0810
3e7c
0000
0000
ENDCHAR
STARTCHAR 2631
ENCODING 9777
SWIDTH 1016 0
DWIDTH 18 0
BBX 16 16 1 -2
BITMAP
0000
1ff0
0408
0404
0404
0404
0408
07f0
0400
0400
0400
0400
0400
1f00
0000
0000
ENDCHAR
STARTCHAR 2632
ENCODING 9778
SWIDTH 1016 0
DWIDTH 18 0
BBX 16 16 1 -2
BITMAP
0000
3ff8
1808
0c08
0600
0300
0180
00c0
0180
0300
0600
0c08
1808
3ff8
0000
0000
ENDCHAR
STARTCHAR 2633
ENCODING 9779
SWIDTH 1016 0
DWIDTH 18 0
BBX 16 16 1 -2
BITMAP
0000
7ffc
4104
4104
0100
0100
0100
0100
0100
0100
0100
0100
0100
07c0
0000
0000
ENDCHAR
STARTCHAR 2634
ENCODING 9780
SWIDTH 1016 0
DWIDTH 18 0
BBX 16 16 1 -2
BITMAP
0000
1ef0
3398
610c
0100
0100
0100
0100
0100
0100
0100
0100
0100
07c0
0000
0000
ENDCHAR
STARTCHAR 2635
ENCODING 9781
SWIDTH 1016 0
DWIDTH 18 0
BBX 16 16 1 -2
BITMAP
0000
07c0
0100
0fe0
3118
610c
4104
4104
4104
610c
3118
0fe0
0100
07c0
0000
0000
ENDCHAR
STARTCHAR 2636
ENCODING 9782
SWIDTH 1016 0
DWIDTH 18 0
BBX 16 16 1 -2
BITMAP
0000
7c7c
1010
1830
0c60
06c0
0380
0100
0380
06c0
0c60
1830
1010
787c
0000
0000
ENDCHAR
STARTCHAR 2637
ENCODING 9783
SWIDTH 1016 0
DWIDTH 18 0
BBX 16 16 1 -2
BITMAP
0000
07c0
610c
9112
1110
1110
1110
1110
1930
0920
07c0
0100
0100
07c0
0000
0000
ENDCHAR
STARTCHAR 2638
ENCODING 9784
SWIDTH 1016 0
DWIDTH 18 0
BBX 16 16 1 -2
BITMAP
0000
03c0
0c30
1818
1008
2004
2004
2004
1008
1818
0c30
2244
2244
3e7c
0000
0000
ENDCHAR
STARTCHAR 2641
ENCODING 9793
SWIDTH 1016 0
DWIDTH 18 0
BBX 16 16 1 -2
BITMAP
0000
0000
0000
0000
0000
0000
0388
0448
0850
0860
1040
10c0
1148
0e30
0000
0000
ENDCHAR
STARTCHAR 2642
ENCODING 9794
SWIDTH 1016 0
DWIDTH 18 0
BBX 16 16 1 -2
BITMAP
0000
00f0
0188
0308
0208
0608
0410
04e0
0c30
0810
0810
0810
1a30
11e0
1000
3000
ENDCHAR
STARTCHAR 2643
ENCODING 9795
SWIDTH 1016 0
DWIDTH 18 0
BBX 16 16 1 -2
BITMAP
0000
0000
0000
0000
0000
0000
0e18
1930
3160
01c0
0180
0100
0300
0200
0600
0400
ENDCHAR
STARTCHAR 2644
ENCODING 9796
SWIDTH 1016 0
DWIDTH 18 0
BBX 16 16 1 -2
BITMAP
0000
03c0
0470
0218
0108
0080
0340
0420
0820
1020
1060
1040
0880
0700
0000
0000
ENDCHAR
STARTCHAR 2645
ENCODING 9797
SWIDTH 1016 0
DWIDTH 18 0
BBX 16 16 1 -2
BITMAP
0000
0000
0000
0000
0000
0000
03e0
0410
0400
03c0
0400
0800
0820
07c0
0000
0000
ENDCHAR
STARTCHAR 2646
ENCODING 9798
SWIDTH 1016 0
DWIDTH 18 0
BBX 16 16 1 -2
BITMAP
0200
0418
0430
03e0
00c0
0180
0300
0600
0c00
0800
0c00
0700
0180
0040
0040
0380
ENDCHAR
STARTCHAR 2647
ENCODING 9799
SWIDTH 1016 0
DWIDTH 18 0
BBX 16 16 1 -2
BITMAP
0000
0000
0000
0000
0000
0000
0ef0
1318
0208
0608
0418
0410
0c10
0830
0020
0060
ENDCHAR
STARTCHAR 2648
ENCODING 9800
SWIDTH 1016 0
DWIDTH 18 0
BBX 16 16 1 -2
BITMAP
0000
00e0
0310
0608
0c08
0808
1ff8
1008
1018
1010
1030
1060
08c0
0700
0000
0000
ENDCHAR
STARTCHAR 2649
ENCODING 9801
SWIDTH 1016 0
DWIDTH 18 0
BBX 16 16 1 -2
BITMAP
0000
0000
0000
0000
0000
0000
0200
0200
0600
0400
0c00
0810
08e0
0780
0000
0000
ENDCHAR
STARTCHAR 264a
ENCODING 9802
SWIDTH 1016 0
DWIDTH 18 0
BBX 16 16 1 -2
BITMAP
0000
0000
0000
0000
0000
0000
0438
0448
0580
0e00
0900
1900
1110
30e0
0000
0000
ENDCHAR
STARTCHAR 264b
ENCODING 9803
SWIDTH 1016 0
DWIDTH 18 0
BBX 16 16 1 -2
BITMAP
0000
0180
00c0
0040
0040
0040
0040
00c0
0140
0240
0660
0420
0c30
1818
0000
0000
ENDCHAR
STARTCHAR 264c
ENCODING 9804
SWIDTH 1016 0
DWIDTH 18 0
BBX 16 16 1 -2
BITMAP
0000
0000
0000
0000
0000
0000
0420
0420
0c60
0840
0840
0840
1cc8
1730
1000
3000
ENDCHAR
STARTCHAR 264d
ENCODING 9805
SWIDTH 1016 0
DWIDTH 18 0
BBX 16 16 1 -2
BITMAP
0000
0000
0000
0000
0000
0000
1808
0408
0410
0430
0c60
08c0
0b80
1e00
0000
0000
ENDCHAR
STARTCHAR 264e
ENCODING 9806
SWIDTH 1016 0
DWIDTH 18 0
BBX 16 16 1 -2
BITMAP
0000
00f0
0100
0080
03f0
0400
0400
0200
0ff0
1000
1000
0e00
01c0
0020
0020
0fc0
ENDCHAR
STARTCHAR 264f
ENCODING 9807
SWIDTH 1016 0
DWIDTH 18 0
BBX 16 16 1 -2
BITMAP
0000
0000
0000
0000
0000
0000
01c0
0620
0c10
0810
0810
0830
0460
0380
0000
0000
ENDCHAR
STARTCHAR 2650
ENCODING 9808
SWIDTH 1016 0
DWIDTH 18 0
BBX 16 16 1 -2
BITMAP
0000
0000
0000
0000
0000
0008
0ff0
1240
0240
0240
0480
0480
0c90
1860
0000
0000
ENDCHAR
STARTCHAR 2651
ENCODING 9809
SWIDTH 1016 0
DWIDTH 18 0
BBX 16 16 1 -2
BITMAP
0000
0000
0000
0000
0000
0000
01c0
0220
0410
0410
0c10
0810
0a20
19c0
1000
1000
ENDCHAR
STARTCHAR 2652
ENCODING 9810
SWIDTH 1016 0
DWIDTH 18 0
BBX 16 16 1 -2
BITMAP
0000
0000
0000
0000
0000
0008
01f8
0620
0c10
0810
0810
0830
0460
0380
0000
0000
ENDCHAR
STARTCHAR 2653
ENCODING 9811
SWIDTH 1016 0
DWIDTH 18 0
BBX 16 16 1 -2
BITMAP
0000
0000
0000
0000
0000
0008
0ff0
1100
0300
0200
0600
0420
0440
0380
0000
0000
ENDCHAR
STARTCHAR 2654
ENCODING 9812
SWIDTH 1016 0
DWIDTH 18 0
BBX 16 16 1 -2
BITMAP
0000
0000
0000
0000
0000
0000
0430
0410
0410
0c30
0820
0860
08c0
0700
0000
0000
ENDCHAR
STARTCHAR 2655
ENCODING 9813
SWIDTH 1016 0
DWIDTH 18 0
BBX 16 16 1 -2
BITMAP
0000
0020
0020
0060
0040
0040
03e0
0c90
1088
1188
1108
0930
07c0
0200
0200
0600
ENDCHAR
STARTCHAR 2656
ENCODING 9814
SWIDTH 1016 0
DWIDTH 18 0
BBX 16 16 1 -2
BITMAP
0000
0000
0000
0000
0000
0000
0618
0930
0160
01c0
0180
0300
0700
0d00
1890
3060
ENDCHAR
STARTCHAR 2657
ENCODING 9815
SWIDTH 1016 0
DWIDTH 18 0
BBX 16 16 1 -2
BITMAP
0000
0020
0020
0060
0040
0040
0cc8
1488
0488
0d98
0910
0920
07c0
0200
0200
0600
ENDCHAR
STARTCHAR 2658
ENCODING 9816
SWIDTH 1016 0
DWIDTH 18 0
BBX 16 16 1 -2
BITMAP
0000
0000
0000
0000
0000
0000
0408
0884
1084
1184
2104
2104
2388
1cf0
0000
0000
ENDCHAR
STARTCHAR 2721
ENCODING 10017
SWIDTH 1016 0
DWIDTH 18 0
BBX 16 16 1 -2
BITMAP
0000
0100
0700
0380
0280
06c0
0440
0c60
0820
1ff0
1010
3018
2008
f83e
0000
0000
ENDCHAR
STARTCHAR 2722
ENCODING 10018
SWIDTH 1016 0
DWIDTH 18 0
BBX 16 16 1 -2
BITMAP
0000
3ff8
0808
0808
0800
0800
0800
0ff0
0808
0804
0804
0804
0808
3ff0
0000
0000
ENDCHAR
STARTCHAR 2723
ENCODING 10019
SWIDTH 1016 0
DWIDTH 18 0
BBX 16 16 1 -2
BITMAP
0000
3fe0
0810
0808
0808
0808
0810
0fe0
0818
0804
0804
0804
0808
3ff0
0000
0000
ENDCHAR
STARTCHAR 2724
ENCODING 10020
SWIDTH 1016 0
DWIDTH 18 0
BBX 16 16 1 -2
BITMAP
0000
1ff8
0408
0404
0400
0400
0400
0400
0400
0400
0400
0400
0400
1f00
0000
0000
ENDCHAR
STARTCHAR 2725
ENCODING 10021
SWIDTH 1016 0
DWIDTH 18 0
BBX 16 16 1 -2
BITMAP
0000
0ffc
0210
0210
0210
0210
0210
0210
0210
0210
0410
0410
0810
3ffc
2004
2004
ENDCHAR
STARTCHAR 2726
ENCODING 10022
SWIDTH 1016 0
DWIDTH 18 0
BBX 16 16 1 -2
BITMAP
0000
3ff8
0808
0804
0840
0840
0fc0
0840
0840
0800
0800
0804
0808
3ff8
0000
0000
ENDCHAR
STARTCHAR 2727
ENCODING 10023
SWIDTH 1016 0
DWIDTH 18 0
BBX 16 16 1 -2
BITMAP
0c30
0c30
0000
3ff8
0808
0808
0840
0840
0fc0
0840
0840
0808
0808
3ff8
0000
0000
ENDCHAR
STARTCHAR 2728
ENCODING 10024
SWIDTH 1016 0
DWIDTH 18 0
BBX 16 16 1 -2
BITMAP
0000
67cc
9112
1110
1110
1110
0920
1ff0
1110
3118
2108
610c
4104
e7ce
0000
0000
ENDCHAR
STARTCHAR 2729
ENCODING 10025
SWIDTH 1016 0
DWIDTH 18 0
BBX 16 16 1 -2
BITMAP
0000
07c0
1c30
1018
0008
0008
0010
03e0
0010
0008
0008
1018
1c30
07c0
0000
0000
ENDCHAR
STARTCHAR 272a
ENCODING 10026
SWIDTH 1016 0
DWIDTH 18 0
BBX 16 16 1 -2
BITMAP
0000
7c3e
1008
1018
1038
1068
10c8
1188
1308
1608
1c08
1808
1008
7c3e
0000
0000
ENDCHAR
STARTCHAR 272b
ENCODING 10027
SWIDTH 1016 0
DWIDTH 18 0
BBX 16 16 1 -2
BITMAP
0660
0420
03c0
7c3e
1008
1038
1068
10c8
1188
1308
1608
1c08
1008
7c3e
0000
0000
ENDCHAR
STARTCHAR 272c
ENCODING 10028
SWIDTH 1016 0
DWIDTH 18 0
BBX 16 16 1 -2
BITMAP
0000
3e3c
0864
0840
08c0
0880
0980
0f00
0980
08c0
0860
0830
0818
3e3e
0000
0000
ENDCHAR
STARTCHAR 272d
ENCODING 10029
SWIDTH 1016 0
DWIDTH 18 0
BBX 16 16 1 -2
BITMAP
0000
0ffc
0210
0210
0210
0210
0210
0210
0210
0610
0410
0c10
5810
707c
0000
0000
ENDCHAR
STARTCHAR 272e
ENCODING 10030
SWIDTH 1016 0
DWIDTH 18 0
BBX 16 16 1 -2
BITMAP
0000
783c
1830
1c70
1450
1450
16d0
1290
3298
2388
2108
2108
2008
f83e
0000
0000
ENDCHAR
STARTCHAR 272f
ENCODING 10031
SWIDTH 1016 0
DWIDTH 18 0
BBX 16 16 1 -2
BITMAP
0000
7c3e
1008
1008
1008
1008
1ff8
1008
1008
1008
1008
1008
1008
7c3e
0000
0000
ENDCHAR
STARTCHAR 2730
ENCODING 10032
SWIDTH 1016 0
DWIDTH 18 0
BBX 16 16 1 -2
BITMAP
0000
03c0
0c30
1818
1008
300c
2004
2004
2004
300c
1008
1818
0c30
03c0
0000
0000
ENDCHAR
STARTCHAR 2731
ENCODING 10033
SWIDTH 1016 0
DWIDTH 18 0
BBX 16 16 1 -2
BITMAP
0000
7ffe
1008
1008
1008
1008
1008
1008
1008
1008
1008
1008
1008
7c3e
0000
0000
ENDCHAR
STARTCHAR 2732
ENCODING 10034
SWIDTH 1016 0
DWIDTH 18 0
BBX 16 16 1 -2
BITMAP
0000
1ff0
0408
0404
0404
0404
0408
07f0
0400
0400
0400
0400
0400
1f00
0000
0000
ENDCHAR
STARTCHAR 2733
ENCODING 10035
SWIDTH 1016 0
DWIDTH 18 0
BBX 16 16 1 -2
BITMAP
0000
03e0
0c38
1808
1008
3000
2000
2000
2000
3000
1008
1808
0c38
03e0
0000
0000
ENDCHAR
STARTCHAR 2734
ENCODING 10036
SWIDTH 1016 0
DWIDTH 18 0
BBX 16 16 1 -2
BITMAP
0000
7ffc
4104
4104
0100
0100
0100
0100
0100
0100
0100
0100
0100
07c0
0000
0000
ENDCHAR
STARTCHAR 2735
ENCODING 10037
SWIDTH 1016 0
DWIDTH 18 0
BBX 16 16 1 -2
BITMAP
0000
3e3e
0808
0c18
0410
0630
0220
0360
0140
01c0
0080
0180
1300
1e00
0000
0000
ENDCHAR
STARTCHAR 2736
ENCODING 10038
SWIDTH 1016 0
DWIDTH 18 0
BBX 16 16 1 -2
BITMAP
0000
07c0
0100
0fe0
3118
610c
4104
4104
4104
610c
3118
0fe0
0100
07c0
0000
0000
ENDCHAR
STARTCHAR 2737
ENCODING 10039
SWIDTH 1016 0
DWIDTH 18 0
BBX 16 16 1 -2
BITMAP
0000
7c7c
1010
1830
0c60
06c0
0380
0100
0380
06c0
0c60
1830
1010
787c
0000
0000
ENDCHAR
STARTCHAR 2738
ENCODING 10040
SWIDTH 1016 0
DWIDTH 18 0
BBX 16 16 1 -2
BITMAP
0000
7c7c
1010
1010
1010
1010
1010
1010
1010
1010
1010
1010
1010
7ffe
0002
0002
ENDCHAR
STARTCHAR 2739
ENCODING 10041
SWIDTH 1016 0
DWIDTH 18 0
BBX 16 16 1 -2
BITMAP
0000
7c7c
1010
1010
1010
1010
1010
1830
0fd0
0010
0010
0010
0010
007c
0000
0000
ENDCHAR
STARTCHAR 273a
ENCODING 10042
SWIDTH 1016 0
DWIDTH 18 0
BBX 16 16 1 -2
BITMAP
0000
f7de
2108
2108
2108
2108
2108
2108
2108
2108
2108
2108
2108
fffe
0000
0000
ENDCHAR
STARTCHAR 273b
ENCODING 10043
SWIDTH 1016 0
DWIDTH 18 0
BBX 16 16 1 -2
BITMAP
0000
f7de
2108
2108
2108
2108
2108
2108
2108
2108
2108
2108
2108
ffff
0001
0001
ENDCHAR
STARTCHAR 273c
ENCODING 10044
SWIDTH 1016 0
DWIDTH 18 0
BBX 16 16 1 -2
BITMAP
0000
7f80
4200
4200
0200
0200
03f8
0204
0202
0202
0202
0202
0204
0ff8
0000
0000
ENDCHAR
STARTCHAR 273d
ENCODING 10045
SWIDTH 1016 0
DWIDTH 18 0
BBX 16 16 1 -2
BITMAP
0000
f83e
2008
2008
2008
2008
3f08
2088
2048
2048
2048
2048
2088
ff3e
0000
0000
ENDCHAR
STARTCHAR 273e
ENCODING 10046
SWIDTH 1016 0
DWIDTH 18 0
BBX 16 16 1 -2
BITMAP
0000
3e00
0800
0800
0800
0800
0fe0
0810
0808
0808
0808
0808
0810
3fe0
0000
0000
ENDCHAR
STARTCHAR 273f
ENCODING 10047
SWIDTH 1016 0
DWIDTH 18 0
BBX 16 16 1 -2
BITMAP
0000
07c0
1c30
1018
1008
000c
0714
08e4
0004
000c
1008
1018
1c30
07c0
0000
0000
ENDCHAR
STARTCHAR 2740
ENCODING 10048
SWIDTH 1016 0
DWIDTH 18 0
BBX 16 16 1 -2
BITMAP
0000
f870
218c
2104
2306
2202
2202
3e02
2202
2202
2306
2104
218c
f870
0000
0000
ENDCHAR
STARTCHAR 2741
ENCODING 10049
SWIDTH 1016 0
DWIDTH 18 0
BBX 16 16 1 -2
BITMAP
0000
0ffc
1010
2010
2010
2010
1010
0ff0
0210
0610
0410
0c10
1810
707c
0000
0000
ENDCHAR
STARTCHAR 2751
ENCODING 10065
SWIDTH 1016 0
DWIDTH 18 0
BBX 16 16 1 -2
BITMAP
0000
0000
0000
0000
0000
0000
07e0
0010
0010
07f0
0810
0810
0830
07d8
0000
0000
ENDCHAR
STARTCHAR 2752
ENCODING 10066
SWIDTH 1016 0
DWIDTH 18 0
BBX 16 16 1 -2
BITMAP
0000
0010
03e0
0600
0c00
0800
0bc0
0c20
0810
0810
0810
0810
0420
03c0
0000
0000
ENDCHAR
STARTCHAR 2753
ENCODING 10067
SWIDTH 1016 0
DWIDTH 18 0
BBX 16 16 1 -2
BITMAP
0000
0000
0000
0000
0000
0000
0fe0
0410
0410
07e0
0410
0410
0410
0fe0
0000
0000
ENDCHAR
STARTCHAR 2754
ENCODING 10068
SWIDTH 1016 0
DWIDTH 18 0
BBX 16 16 1 -2
BITMAP
0000
0000
0000
0000
0000
0000
0ff0
0410
0410
0400
0400
0400
0400
0e00
0000
0000
ENDCHAR
STARTCHAR 2755
ENCODING 10069
SWIDTH 1016 0
DWIDTH 18 0
BBX 16 16 1 -2
BITMAP
0000
0000
0000
0000
0000
0000
07f0
0220
0220
0220
0220
0620
0420
1ff8
1008
1008
ENDCHAR
STARTCHAR 2756
ENCODING 10070
SWIDTH 1016 0
DWIDTH 18 0
BBX 16 16 1 -2
BITMAP
0000
0000
0000
0000
0000
0000
03c0
0420
0810
0ff0
0800
0800
0410
03e0
0000
0000
ENDCHAR
STARTCHAR 2757
ENCODING 10071
SWIDTH 1016 0
DWIDTH 18 0
BBX 16 16 1 -2
BITMAP
0000
0000
0000
0660
0660
0000
03c0
0420
0810
0ff0
0800
0800
0410
03e0
0000
0000
ENDCHAR
STARTCHAR 2758
ENCODING 10072
SWIDTH 1016 0
DWIDTH 18 0
BBX 16 16 1 -2
BITMAP
0000
0000
0000
0000
0000
0000
3398
1110
0920
07c0
0d60
0920
1930
3398
0000
0000
ENDCHAR
STARTCHAR 2759
ENCODING 10073
SWIDTH 1016 0
DWIDTH 18 0
BBX 16 16 1 -2
BITMAP
0000
0000
0000
0000
0000
0000
07e0
0410
0010
01e0
0010
0010
0410
07e0
0000
0000
ENDCHAR
STARTCHAR 275a
ENCODING 10074
SWIDTH 1016 0
DWIDTH 18 0
BBX 16 16 1 -2
BITMAP
0000
0000
0000
0000
0000
0000
1c38
0810
0830
08d0
0b10
0c10
0810
1c38
0000
0000
ENDCHAR
STARTCHAR 275b
ENCODING 10075
SWIDTH 1016 0
DWIDTH 18 0
BBX 16 16 1 -2
BITMAP
0000
0000
0660
0420
03c0
0000
1c38
0810
0830
08d0
0b10
0c10
0810
1c38
0000
0000
ENDCHAR
STARTCHAR 275c
ENCODING 10076
SWIDTH 1016 0
DWIDTH 18 0
BBX 16 16 1 -2
BITMAP
0000
0000
0000
0000
0000
0000
0e70
0490
0500
0700
0480
0440
0420
0e78
0000
0000
ENDCHAR
STARTCHAR 275d
ENCODING 10077
SWIDTH 1016 0
DWIDTH 18 0
BBX 16 16 1 -2
BITMAP
0000
0000
0000
0000
0000
0000
07f0
0220
0220
0220
0220
0220
1620
1c70
0000
0000
ENDCHAR
STARTCHAR 275e
ENCODING 10078
SWIDTH 1016 0
DWIDTH 18 0
BBX 16 16 1 -2
BITMAP
0000
0000
0000
0000
0000
0000
3838
1450
1450
1290
1290
1110
1110
3838
0000
0000
ENDCHAR
STARTCHAR 275f
ENCODING 10079
SWIDTH 1016 0
DWIDTH 18 0
BBX 16 16 1 -2
BITMAP
0000
0000
0000
0000
0000
0000
1c38
0810
0810
0ff0
0810
0810
0810
1c38
0000
0000
ENDCHAR
STARTCHAR 2760
ENCODING 10080
SWIDTH 1016 0
DWIDTH 18 0
BBX 16 16 1 -2
BITMAP
0000
0000
0000
0000
0000
0000
03c0
0420
0810
0810
0810
0810
0420
03c0
0000
0000
ENDCHAR
STARTCHAR 2761
ENCODING 10081
SWIDTH 1016 0
DWIDTH 18 0
BBX 16 16 1 -2
BITMAP
0000
0000
0000
0000
0000
0000
1ff0
0820
0820
0820
0820
0820
0820
1c70
0000
0000
ENDCHAR
STARTCHAR 2762
ENCODING 10082
SWIDTH 1016 0
DWIDTH 18 0
BBX 16 16 1 -2
BITMAP
0000
0000
0000
0000
0000
0000
0de0
0610
0408
0408
0408
0610
05e0
0400
0400
0e00
ENDCHAR
STARTCHAR 2763
ENCODING 10083
SWIDTH 1016 0
DWIDTH 18 0
BBX 16 16 1 -2
BITMAP
0000
0000
0000
0000
0000
0000
03e0
0410
0800
0800
0800
0800
0410
03e0
0000
0000
ENDCHAR
STARTCHAR 2764
ENCODING 10084
SWIDTH 1016 0
DWIDTH 18 0
BBX 16 16 1 -2
BITMAP
0000
0000
0000
0000
0000
0000
1ff0
1110
0100
0100
0100
0100
0100
0380
0000
0000
ENDCHAR
STARTCHAR 2765
ENCODING 10085
SWIDTH 1016 0
DWIDTH 18 0
BBX 16 16 1 -2
BITMAP
0000
0000
0000
0000
0000
0000
1c38
0810
0c30
0420
0660
0240
02c0
0180
1300
1e00
ENDCHAR
STARTCHAR 2766
ENCODING 10086
SWIDTH 1016 0
DWIDTH 18 0
BBX 16 16 1 -2
BITMAP
0000
0300
0100
0100
0100
0100
0d60
1390
2108
2108
2108
2108
1390
0d60
0100
0380
ENDCHAR
STARTCHAR 2767
ENCODING 10087
SWIDTH 1016 0
DWIDTH 18 0
BBX 16 16 1 -2
BITMAP
0000
0000
0000
0000
0000
0000
0e70
0420
0240
0180
0180
0240
0420
1e78
0000
0000
ENDCHAR
STARTCHAR 2768
ENCODING 10088
SWIDTH 1016 0
DWIDTH 18 0
BBX 16 16 1 -2
BITMAP
0000
0000
0000
0000
0000
0000
1c70
0820
0820
0820
0820
0820
0820
1ff8
0008
0008
ENDCHAR
STARTCHAR 2769
ENCODING 10089
SWIDTH 1016 0
DWIDTH 18 0
BBX 16 16 1 -2
BITMAP
0000
0000
0000
0000
0000
0000
1c38
0810
0810
0810
07f0
0010
0010
0038
0000
0000
ENDCHAR
STARTCHAR 276a
ENCODING 10090
SWIDTH 1016 0
DWIDTH 18 0
BBX 16 16 1 -2
BITMAP
0000
0000
0000
0000
0000
0000
739c
2108
2108
2108
2108
2108
2108
7ffc
0000
0000
ENDCHAR
STARTCHAR 276b
ENCODING 10091
SWIDTH 1016 0
DWIDTH 18 0
BBX 16 16 1 -2
BITMAP
0000
0000
0000
0000
0000
0000
739c
2108
2108
2108
2108
2108
2108
7ffe
0002
0002
ENDCHAR
STARTCHAR 276c
ENCODING 10092
SWIDTH 1016 0
DWIDTH 18 0
BBX 16 16 1 -2
BITMAP
0000
0000
0000
0000
0000
0000
3f80
2100
2100
01f8
0104
0104
0104
03f8
0000
0000
ENDCHAR
STARTCHAR 276d
ENCODING 10093
SWIDTH 1016 0
DWIDTH 18 0
BBX 16 16 1 -2
BITMAP
0000
0000
0000
0000
0000
0000
381c
1008
1008
1f88
1048
1048
1048
3f9c
0000
0000
ENDCHAR
STARTCHAR 276e
ENCODING 10094
SWIDTH 1016 0
DWIDTH 18 0
BBX 16 16 1 -2
BITMAP
0000
0000
0000
0000
0000
0000
0e00
0400
0400
07e0
0410
0410
0410
0fe0
0000
0000
ENDCHAR
STARTCHAR 276f
ENCODING 10095
SWIDTH 1016 0
DWIDTH 18 0
BBX 16 16 1 -2
BITMAP
0000
0000
0000
0000
0000
0000
07c0
0820
0010
0330
04d0
0010
0820
07c0
0000
0000
ENDCHAR
STARTCHAR 2770
ENCODING 10096
SWIDTH 1016 0
DWIDTH 18 0
BBX 16 16 1 -2
BITMAP
0000
0000
0000
0000
0000
0000
1c70
0888
0904
0f04
0904
0904
0888
1c70
0000
0000
ENDCHAR
STARTCHAR 2771
ENCODING 10097
SWIDTH 1016 0
DWIDTH 18 0
BBX 16 16 1 -2
BITMAP
0000
0000
0000
0000
0000
0000
07f0
0820
0820
0820
07e0
0220
0420
1c70
0000
0000
ENDCHAR
STARTCHAR 2821
ENCODING 10273
SWIDTH 1016 0
DWIDTH 18 0
BBX 16 16 1 -2
BITMAP
0000
0000
0000
0000
0000
0000
0000
ffff
0000
0000
0000
0000
0000
0000
0000
0000
ENDCHAR
STARTCHAR 2822
ENCODING 10274
SWIDTH 1016 0
DWIDTH 18 0
BBX 16 16 1 -2
BITMAP
0100
0100
0100
0100
0100
0100
0100
0100
0100
0100
0100
0100
0100
0100
0100
0100
ENDCHAR
STARTCHAR 2823
ENCODING 10275
SWIDTH 1016 0
DWIDTH 18 0
BBX 16 16 1 -2
BITMAP
0000
0000
0000
0000
0000
0000
0000
01ff
0100
0100
0100
0100
0100
0100
0100
0100
ENDCHAR
STARTCHAR 2824
ENCODING 10276
SWIDTH 1016 0
DWIDTH 18 0
BBX 16 16 1 -2
BITMAP
0000
0000
0000
0000
0000
0000
0000
ff00
0100
0100
0100
0100
0100
0100
0100
0100
ENDCHAR
STARTCHAR 2825
ENCODING 10277
SWIDTH 1016 0
DWIDTH 18 0
BBX 16 16 1 -2
BITMAP
0100
0100
0100
0100
0100
0100
0100
ff00
0000
0000
0000
0000
0000
0000
0000
0000
ENDCHAR
STARTCHAR 2826
ENCODING 10278
SWIDTH 1016 0
DWIDTH 18 0
BBX 16 16 1 -2
BITMAP
0100
0100
0100
0100
0100
0100
0100
01ff
0000
0000
0000
0000
0000
0000
0000
0000
ENDCHAR
STARTCHAR 2827
ENCODING 10279
SWIDTH 1016 0
DWIDTH 18 0
BBX 16 16 1 -2
BITMAP
0100
0100
0100
0100
0100
0100
0100
01ff
0100
0100
0100
0100
0100
0100
0100
0100
ENDCHAR
STARTCHAR 2828
ENCODING 10280
SWIDTH 1016 0
DWIDTH 18 0
BBX 16 16 1 -2
BITMAP
0000
0000
0000
0000
0000
0000
0000
ffff
0100
0100
0100
0100
0100
0100
0100
0100
ENDCHAR
STARTCHAR 2829
ENCODING 10281
SWIDTH 1016 0
DWIDTH 18 0
BBX 16 16 1 -2
BITMAP
0100
0100
0100
0100
0100
0100
0100
ff00
0100
0100
0100
0100
0100
0100
0100
0100
ENDCHAR
STARTCHAR 282a
ENCODING 10282
SWIDTH 1016 0
DWIDTH 18 0
BBX 16 16 1 -2
BITMAP
0100
0100
0100
0100
0100
0100
0100
ffff
0000
0000
0000
0000
0000
0000
0000
0000
ENDCHAR
STARTCHAR 282b
ENCODING 10283
SWIDTH 1016 0
DWIDTH 18 0
BBX 16 16 1 -2
BITMAP
0100
0100
0100
0100
0100
0100
0100
ffff
0100
0100
0100
0100
0100
0100
0100
0100
ENDCHAR
STARTCHAR 282c
ENCODING 10284
SWIDTH 1016 0
DWIDTH 18 0
BBX 16 16 1 -2
BITMAP
0000
0000
0000
0000
0000
0000
0000
ffff
ffff
0000
0000
0000
0000
0000
0000
0000
ENDCHAR
STARTCHAR 282d
ENCODING 10285
SWIDTH 1016 0
DWIDTH 18 0
BBX 16 16 1 -2
BITMAP
0180
0180
0180
0180
0180
0180
0180
0180
0180
0180
0180
0180
0180
0180
0180
0180
ENDCHAR
STARTCHAR 282e
ENCODING 10286
SWIDTH 1016 0
DWIDTH 18 0
BBX 16 16 1 -2
BITMAP
0000
0000
0000
0000
0000
0000
0000
01ff
01ff
0180
0180
0180
0180
0180
0180
0180
ENDCHAR
STARTCHAR 282f
ENCODING 10287
SWIDTH 1016 0
DWIDTH 18 0
BBX 16 16 1 -2
BITMAP
0000
0000
0000
0000
0000
0000
0000
ff80
ff80
0180
0180
0180
0180
0180
0180
0180
ENDCHAR
STARTCHAR 2830
ENCODING 10288
SWIDTH 1016 0
DWIDTH 18 0
BBX 16 16 1 -2
BITMAP
0180
0180
0180
0180
0180
0180
0180
ff80
ff80
0000
0000
0000
0000
0000
0000
0000
ENDCHAR
STARTCHAR 2831
ENCODING 10289
SWIDTH 1016 0
DWIDTH 18 0
BBX 16 16 1 -2
BITMAP
0180
0180
0180
0180
0180
0180
0180
01ff
01ff
0000
0000
0000
0000
0000
0000
0000
ENDCHAR
STARTCHAR 2832
ENCODING 10290
SWIDTH 1016 0
DWIDTH 18 0
BBX 16 16 1 -2
BITMAP
0180
0180
0180
0180
0180
0180
0180
01ff
01ff
0180
0180
0180
0180
0180
0180
0180
ENDCHAR
STARTCHAR 2833
ENCODING 10291
SWIDTH 1016 0
DWIDTH 18 0
BBX 16 16 1 -2
BITMAP
0000
0000
0000
0000
0000
0000
0000
ffff
ffff
0180
0180
0180
0180
0180
0180
0180
ENDCHAR
STARTCHAR 2834
ENCODING 10292
SWIDTH 1016 0
DWIDTH 18 0
BBX 16 16 1 -2
BITMAP
0180
0180
0180
0180
0180
0180
0180
ff80
ff80
0180
0180
0180
0180
0180
0180
0180
ENDCHAR
STARTCHAR 2835
ENCODING 10293
SWIDTH 1016 0
DWIDTH 18 0
BBX 16 16 1 -2
BITMAP
0180
0180
0180
0180
0180
0180
0180
ffff
ffff
0000
0000
0000
0000
0000
0000
0000
ENDCHAR
STARTCHAR 2836
ENCODING 10294
SWIDTH 1016 0
DWIDTH 18 0
BBX 16 16 1 -2
BITMAP
0180
0180
0180
0180
0180
0180
0180
ffff
ffff
0180
0180
0180
0180
0180
0180
0180
ENDCHAR
STARTCHAR 2837
ENCODING 10295
SWIDTH 1016 0
DWIDTH 18 0
BBX 16 16 1 -2
BITMAP
0180
0180
0180
0180
0180
0180
0180
01ff
0180
0180
0180
0180
0180
0180
0180
0180
ENDCHAR
STARTCHAR 2838
ENCODING 10296
SWIDTH 1016 0
DWIDTH 18 0
BBX 16 16 1 -2
BITMAP
0000
0000
0000
0000
0000
0000
0000
ffff
ffff
0100
0100
0100
0100
0100
0100
0100
ENDCHAR
STARTCHAR 2839
ENCODING 10297
SWIDTH 1016 0
DWIDTH 18 0
BBX 16 16 1 -2
BITMAP
0180
0180
0180
0180
0180
0180
0180
ff80
0180
0180
0180
0180
0180
0180
0180
0180
ENDCHAR
STARTCHAR 283a
ENCODING 10298
SWIDTH 1016 0
DWIDTH 18 0
BBX 16 16 1 -2
BITMAP
0100
0100
0100
0100
0100
0100
0100
ffff
ffff
0000
0000
0000
0000
0000
0000
0000
ENDCHAR
STARTCHAR 283b
ENCODING 10299
SWIDTH 1016 0
DWIDTH 18 0
BBX 16 16 1 -2
BITMAP
0100
0100
0100
0100
0100
0100
0100
ffff
ffff
0100
0100
0100
0100
0100
0100
0100
ENDCHAR
STARTCHAR 283c
ENCODING 10300
SWIDTH 1016 0
DWIDTH 18 0
BBX 16 16 1 -2
BITMAP
0100
0100
0100
0100
0100
0100
0100
01ff
01ff
0100
0100
0100
0100
0100
0100
0100
ENDCHAR
STARTCHAR 283d
ENCODING 10301
SWIDTH 1016 0
DWIDTH 18 0
BBX 16 16 1 -2
BITMAP
0000
0000
0000
0000
0000
0000
0000
ffff
0180
0180
0180
0180
0180
0180
0180
0180
ENDCHAR
STARTCHAR 283e
ENCODING 10302
SWIDTH 1016 0
DWIDTH 18 0
BBX 16 16 1 -2
BITMAP
0100
0100
0100
0100
0100
0100
0100
ff00
ff00
0100
0100
0100
0100
0100
0100
0100
ENDCHAR
STARTCHAR 283f
ENCODING 10303
SWIDTH 1016 0
DWIDTH 18 0
BBX 16 16 1 -2
BITMAP
0180
0180
0180
0180
0180
0180
0180
ffff
0000
0000
0000
0000
0000
0000
0000
0000
ENDCHAR
STARTCHAR 2840
ENCODING 10304
SWIDTH 1016 0
DWIDTH 18 0
BBX 16 16 1 -2
BITMAP
0180
0180
0180
0180
0180
0180
0180
ffff
0180
0180
0180
0180
0180
0180
0180
0180
ENDCHAR
STARTCHAR 3021
ENCODING 12321
SWIDTH 1016 0
DWIDTH 18 0
BBX 16 16 1 -2
BITMAP
0000
7ffe
0440
0440
0440
3ffc
2444
2444
2444
2444
3ffc
0440
0440
0440
ffff
0000
ENDCHAR
STARTCHAR 3022
ENCODING 12322
SWIDTH 1016 0
DWIDTH 18 0
BBX 16 16 1 -2
BITMAP
0000
0fff
f090
9090
9090
97fe
9492
9492
9492
97fe
9090
f090
0090
0090
0fff
0000
ENDCHAR
STARTCHAR 3023
ENCODING 12323
SWIDTH 1016 0
DWIDTH 18 0
BBX 16 16 1 -2
BITMAP
2010
2010
20fe
2010
fc10
2410
25ff
6400
4410
4c10
e8fe
1810
1410
3410
6010
c1ff
ENDCHAR
STARTCHAR 3024
ENCODING 12324
SWIDTH 1016 0
DWIDTH 18 0
BBX 16 16 1 -2
BITMAP
0000
7dff
4404
4c04
59e4
5124
4924
4524
4524
4524
45e4
4404
5c04
4004
4004
401c
ENDCHAR
STARTCHAR 3025
ENCODING 12325
SWIDTH 1016 0
DWIDTH 18 0
BBX 16 16 1 -2
BITMAP
0100
0100
ffff
0000
1ff8
1008
1008
1008
1ff8
0642
0c66
382c
e830
0818
0f8c
7807
ENDCHAR
STARTCHAR 3026
ENCODING 12326
SWIDTH 1016 0
DWIDTH 18 0
BBX 16 16 1 -2
BITMAP
001c
7ff0
2204
1108
ffff
8101
948d
3416
67f2
0800
0ff8
3c30
e660
03c0
1e78
f00f
ENDCHAR
STARTCHAR 3027
ENCODING 12327
SWIDTH 1016 0
DWIDTH 18 0
BBX 16 16 1 -2
BITMAP
2080
2084
2184
f93e
27e3
2100
2100
23fe
3620
e020
27ff
2050
20d8
218c
2306
6603
ENDCHAR
STARTCHAR 3028
ENCODING 12328
SWIDTH 1016 0
DWIDTH 18 0
BBX 16 16 1 -2
BITMAP
2010
2038
2028
206c
fcc6
2583
2400
647c
4c00
4800
e8fe
1882
1482
3482
6082
c0fe
ENDCHAR
STARTCHAR 3029
ENCODING 12329
SWIDTH 1016 0
DWIDTH 18 0
BBX 16 16 1 -2
BITMAP
0080
60fc
3104
1688
0070
01dc
0707
f020
11fc
1020
11fc
1020
13fe
3020
6800
c7ff
ENDCHAR
STARTCHAR 302a
ENCODING 12330
SWIDTH 1016 0
DWIDTH 18 0
BBX 16 16 1 -2
BITMAP
0420
0420
ffff
0420
0000
7e44
0429
4812
3ffc
e107
0100
7ffe
0240
0660
1c38
700e
ENDCHAR
STARTCHAR 302b
ENCODING 12331
SWIDTH 1016 0
DWIDTH 18 0
BBX 16 16 1 -2
BITMAP
0420
0420
ffff
0420
0000
ffff
0440
0440
7ffe
4442
4c42
787e
4002
4002
7ffe
0000
ENDCHAR
STARTCHAR 302c
ENCODING 12332
SWIDTH 1016 0
DWIDTH 18 0
BBX 16 16 1 -2
BITMAP
0880
39f0
e220
27fc
2244
fbfc
2244
33fc
6840
67fe
6442
a7fe
2442
27fe
2041
203f
ENDCHAR
STARTCHAR 302d
ENCODING 12333
SWIDTH 1016 0
DWIDTH 18 0
BBX 16 16 1 -2
BITMAP
0000
7ffe
0440
0440
3ffc
2444
2444
3ffc
0440
0440
ffff
0080
24c6
244b
6619
c3f0
ENDCHAR
STARTCHAR 302e
ENCODING 12334
SWIDTH 1016 0
DWIDTH 18 0
BBX 16 16 1 -2
BITMAP
2000
23fe
2202
2202
fbfe
2200
22fe
2220
2244
3afe
e212
2210
26fe
2410
2c10
61ff
ENDCHAR
STARTCHAR 302f
ENCODING 12335
SWIDTH 1016 0
DWIDTH 18 0
BBX 16 16 1 -2
BITMAP
0000
63fe
3202
1202
03fe
c200
62fe
2220
0244
12fe
1212
3210
26fe
6410
4c10
c1ff
ENDCHAR
STARTCHAR 3030
ENCODING 12336
SWIDTH 1016 0
DWIDTH 18 0
BBX 16 16 1 -2
BITMAP
2000
20fc
2084
2084
fc84
2484
24fc
2484
2484
2484
2484
24fc
2400
6401
4603
c3fe
ENDCHAR
STARTCHAR 3031
ENCODING 12337
SWIDTH 1016 0
DWIDTH 18 0
BBX 16 16 1 -2
BITMAP
0420
ffff
0420
0200
3ff8
0408
ffff
0000
1ff8
1008
1ff8
0040
3ffc
0840
ffff
0040
ENDCHAR
STARTCHAR 3032
ENCODING 12338
SWIDTH 1016 0
DWIDTH 18 0
BBX 16 16 1 -2
BITMAP
0420
0420
ffff
0420
0000
7ffe
0000
1ffc
1004
1004
1ffc
1000
3000
2000
6000
c000
ENDCHAR
STARTCHAR 3033
ENCODING 12339
SWIDTH 1016 0
DWIDTH 18 0
BBX 16 16 1 -2
BITMAP
2020
3c64
6446
48fa
fe10
53ff
5228
7e44
5393
5220
7ec4
0018
5561
5506
d418
80e0
ENDCHAR
STARTCHAR 3034
ENCODING 12340
SWIDTH 1016 0
DWIDTH 18 0
BBX 16 16 1 -2
BITMAP
1020
1020
13fe
fc00
1104
118c
3888
37ff
3420
5020
5020
93fe
1020
1020
1020
1020
ENDCHAR
STARTCHAR 3035
ENCODING 12341
SWIDTH 1016 0
DWIDTH 18 0
BBX 16 16 1 -2
BITMAP
0000
3ffe
2000
2040
2040
2040
2040
2ffe
2040
2040
2040
6040
4040
c040
1fff
0000
ENDCHAR
STARTCHAR 3036
ENCODING 12342
SWIDTH 1016 0
DWIDTH 18 0
BBX 16 16 1 -2
BITMAP
1010
1038
fe28
106c
7cc6
4583
4464
7c34
4404
44c4
7c64
1007
fe3c
10e4
1004
1004
ENDCHAR
STARTCHAR 3037
ENCODING 12343
SWIDTH 1016 0
DWIDTH 18 0
BBX 16 16 1 -2
BITMAP
2000
27f8
2108
2118
f910
2110
23bc
2284
22c4
3a4c
e268
2238
2610
2438
246c
6dc7
ENDCHAR
STARTCHAR 3038
ENCODING 12344
SWIDTH 1016 0
DWIDTH 18 0
BBX 16 16 1 -2
BITMAP
0100
0100
7ffe
4002
5002
1000
1f7c
3144
2344
7a44
ce44
044c
0c40
1841
3063
e03e
ENDCHAR
STARTCHAR 3039
ENCODING 12345
SWIDTH 1016 0
DWIDTH 18 0
BBX 16 16 1 -2
BITMAP
2000
20fc
2084
2084
fc84
24fc
2484
6484
4c84
4884
e8fc
1884
1484
3484
6084
c3ff
ENDCHAR
STARTCHAR 303a
ENCODING 12346
SWIDTH 1016 0
DWIDTH 18 0
BBX 16 16 1 -2
BITMAP
1010
1010
1010
fe10
93ff
9240
9240
9240
fe40
1040
1040
1240
1240
1f60
f13e
0000
ENDCHAR
STARTCHAR 303b
ENCODING 12347
SWIDTH 1016 0
DWIDTH 18 0
BBX 16 16 1 -2
BITMAP
1020
3820
2c64
6646
50c2
fc9f
45f1
7c00
4400
7cfe
4082
4482
4482
5e82
7282
c0fe
ENDCHAR
STARTCHAR 303c
ENCODING 12348
SWIDTH 1016 0
DWIDTH 18 0
BBX 16 16 1 -2
BITMAP
1040
3040
60ff
c481
6d81
1879
3049
6449
fe79
1249
1049
5479
5601
d203
9002
100e
ENDCHAR
STARTCHAR 303d
ENCODING 12349
SWIDTH 1016 0
DWIDTH 18 0
BBX 16 16 1 -2
BITMAP
1020
3020
61fe
c420
6fff
1848
30c8
658f
fe40
127c
10c4
558c
5658
d230
90ec
1387
ENDCHAR
STARTCHAR 303e
ENCODING 12350
SWIDTH 1016 0
DWIDTH 18 0
BBX 16 16 1 -2
BITMAP
2010
3e10
6210
4410
ff1f
4910
4910
7f10
4910
497e
7f42
0042
5542
5542
d442
807e
ENDCHAR
STARTCHAR 303f
ENCODING 12351
SWIDTH 1016 0
DWIDTH 18 0
BBX 16 16 1 -2
BITMAP
0048
004c
0044
ffff
0040
0040
7e42
4266
4224
422c
7e38
0010
0739
3c6d
e1c7
0702
ENDCHAR
STARTCHAR 3040
ENCODING 12352
SWIDTH 1016 0
DWIDTH 18 0
BBX 16 16 1 -2
BITMAP
0000
ffff
0440
7ffe
4442
4442
7ffe
1108
1918
0910
ffff
0520
0d30
391c
e107
0100
ENDCHAR
STARTCHAR 3041
ENCODING 12353
SWIDTH 1016 0
DWIDTH 18 0
BBX 16 16 1 -2
BITMAP
1010
1038
1028
fc6c
04c6
0d83
1800
127c
3600
7c00
d6fe
1282
1082
1082
1082
10fe
ENDCHAR
STARTCHAR 3042
ENCODING 12354
SWIDTH 1016 0
DWIDTH 18 0
BBX 16 16 1 -2
BITMAP
0100
0100
7ffe
4002
4202
0600
0400
ffff
0808
1818
1030
3e60
03c0
0670
1c1c
7006
ENDCHAR
STARTCHAR 3043
ENCODING 12355
SWIDTH 1016 0
DWIDTH 18 0
BBX 16 16 1 -2
BITMAP
0080
0080
7fff
4100
5ffe
4220
4490
4ffc
788b
4888
4ff8
4888
c888
8ff9
8083
007e
ENDCHAR
STARTCHAR 3044
ENCODING 12356
SWIDTH 1016 0
DWIDTH 18 0
BBX 16 16 1 -2
BITMAP
2040
2040
27fe
2402
fc82
2080
2080
2fff
3904
e30c
2208
27d8
2070
20d8
218c
6706
ENDCHAR
STARTCHAR 3045
ENCODING 12357
SWIDTH 1016 0
DWIDTH 18 0
BBX 16 16 1 -2
BITMAP
0020
0020
fbfe
8904
898c
8888
8fff
f800
8800
89fc
8904
8904
f9fc
0104
0104
01fc
ENDCHAR
STARTCHAR 3046
ENCODING 12358
SWIDTH 1016 0
DWIDTH 18 0
BBX 16 16 1 -2
BITMAP
0100
7ffe
4002
0200
ffff
0810
1e30
03e0
0e38
780c
0100
ffff
0520
1d38
f10f
0100
ENDCHAR
STARTCHAR 3047
ENCODING 12359
SWIDTH 1016 0
DWIDTH 18 0
BBX 16 16 1 -2
BITMAP
0000
7e7e
4242
7e7e
4242
7e7e
4102
4ff2
4422
5ffa
4002
47e2
4422
47e2
4422
47ee
ENDCHAR
STARTCHAR 3048
ENCODING 12360
SWIDTH 1016 0
DWIDTH 18 0
BBX 16 16 1 -2
BITMAP
4410
4410
fefe
4482
44a2
7c20
1020
feff
9224
9264
fe4c
10e8
fe38
102c
1066
10c2
ENDCHAR
STARTCHAR 3049
ENCODING 12361
SWIDTH 1016 0
DWIDTH 18 0
BBX 16 16 1 -2
BITMAP
0100
0100
0100
ffff
0540
0d60
1930
311c
e107
0000
3ffc
2004
2004
2004
2004
3ffc
ENDCHAR
STARTCHAR 304a
ENCODING 12362
SWIDTH 1016 0
DWIDTH 18 0
BBX 16 16 1 -2
BITMAP
0000
2004
2004
2004
2604
2304
2184
2084
200c
2008
2008
201c
2e36
3862
e0c3
0381
ENDCHAR
STARTCHAR 304b
ENCODING 12363
SWIDTH 1016 0
DWIDTH 18 0
BBX 16 16 1 -2
BITMAP
0800
0bfe
1822
1022
3022
27ff
6022
a022
2022
23fe
2020
2020
2060
2040
20c0
2180
ENDCHAR
STARTCHAR 304c
ENCODING 12364
SWIDTH 1016 0
DWIDTH 18 0
BBX 16 16 1 -2
BITMAP
0820
0820
1820
13fe
3000
2000
6104
a104
218c
2088
2088
2098
2010
2010
27ff
2000
ENDCHAR
STARTCHAR 304d
ENCODING 12365
SWIDTH 1016 0
DWIDTH 18 0
BBX 16 16 1 -2
BITMAP
0820
0820
1820
17ff
3040
2040
60e2
a1a6
232c
2738
2d10
2118
2108
216c
21c6
2703
ENDCHAR
STARTCHAR 304e
ENCODING 12366
SWIDTH 1016 0
DWIDTH 18 0
BBX 16 16 1 -2
BITMAP
0840
0bfc
1884
1084
37ff
2000
63fc
a204
23fc
2010
27fe
2110
2110
2fff
2010
2010
ENDCHAR
STARTCHAR 304f
ENCODING 12367
SWIDTH 1016 0
DWIDTH 18 0
BBX 16 16 1 -2
BITMAP
0000
7ffe
4002
4422
4422
5ffa
4422
4422
4422
5ffa
4422
4c22
5822
4002
7ffe
0000
ENDCHAR
STARTCHAR 3050
ENCODING 12368
SWIDTH 1016 0
DWIDTH 18 0
BBX 16 16 1 -2
BITMAP
0100
0100
ffff
0100
7ffc
0104
3ffc
2100
2100
3ffe
0282
06c2
044e
0c60
3838
e00f
ENDCHAR
STARTCHAR 3051
ENCODING 12369
SWIDTH 1016 0
DWIDTH 18 0
BBX 16 16 1 -2
BITMAP
0038
3fe0
0100
ffff
0520
0d30
391c
e107
0100
0200
ffff
0420
0860
1fc0
0378
7c0e
ENDCHAR
STARTCHAR 3052
ENCODING 12370
SWIDTH 1016 0
DWIDTH 18 0
BBX 16 16 1 -2
BITMAP
0048
004c
0044
7fff
4040
5f40
4044
4464
5fac
4928
4938
5e10
4339
c56d
98c7
8182
ENDCHAR
STARTCHAR 3053
ENCODING 12371
SWIDTH 1016 0
DWIDTH 18 0
BBX 16 16 1 -2
BITMAP
0004
7f04
4104
4104
7f04
407f
4004
5f04
4024
5f34
4414
5504
d504
9504
a504
0c1c
ENDCHAR
STARTCHAR 3054
ENCODING 12372
SWIDTH 1016 0
DWIDTH 18 0
BBX 16 16 1 -2
BITMAP
1080
1088
1198
1910
55ff
5310
d510
91fe
1110
1110
1110
11fe
1110
1110
1110
11ff
ENDCHAR
STARTCHAR 3055
ENCODING 12373
SWIDTH 1016 0
DWIDTH 18 0
BBX 16 16 1 -2
BITMAP
0100
0100
7ffe
0810
0420
ffff
0000
1ff8
1008
1ff8
1008
1ff8
0100
2486
6413
c3f1
ENDCHAR
STARTCHAR 3056
ENCODING 12374
SWIDTH 1016 0
DWIDTH 18 0
BBX 16 16 1 -2
BITMAP
0004
7f04
4104
7f04
407f
5f04
4024
5f14
4414
d504
9504
2c1c
0100
2486
6413
c3f1
ENDCHAR
STARTCHAR 3057
ENCODING 12375
SWIDTH 1016 0
DWIDTH 18 0
BBX 16 16 1 -2
BITMAP
0000
1ff8
1008
1008
1ff8
1008
1008
1ff8
0800
1ffe
3222
e662
0c42
38c6
0384
001c
ENDCHAR
STARTCHAR 3058
ENCODING 12376
SWIDTH 1016 0
DWIDTH 18 0
BBX 16 16 1 -2
BITMAP
1020
1020
13fe
fc50
10d8
118c
3800
37ff
3404
51e4
5124
9124
11e4
1004
1004
101c
ENDCHAR
STARTCHAR 3059
ENCODING 12377
SWIDTH 1016 0
DWIDTH 18 0
BBX 16 16 1 -2
BITMAP
2200
3200
1200
7ff8
0408
0410
0ffe
0802
1804
3fff
6001
c011
1489
124b
2242
000e
ENDCHAR
STARTCHAR 305a
ENCODING 12378
SWIDTH 1016 0
DWIDTH 18 0
BBX 16 16 1 -2
BITMAP
0000
3ffc
2104
2104
3ffc
2104
2104
3ffc
0000
ffff
1084
10cc
1068
1730
1c1c
7007
ENDCHAR
STARTCHAR 305b
ENCODING 12379
SWIDTH 1016 0
DWIDTH 18 0
BBX 16 16 1 -2
BITMAP
0000
3ffc
2104
2104
3ffc
2104
2104
3ffc
0420
7ffe
0420
0420
ffff
0810
381c
e007
ENDCHAR
STARTCHAR 305c
ENCODING 12380
SWIDTH 1016 0
DWIDTH 18 0
BBX 16 16 1 -2
BITMAP
0620
1c3e
f062
10c6
11ac
fe18
1030
10e8
380f
3419
5233
50ea
9006
100c
1038
11e0
ENDCHAR
STARTCHAR 305d
ENCODING 12381
SWIDTH 1016 0
DWIDTH 18 0
BBX 16 16 1 -2
BITMAP
1040
3044
60cc
c488
6dff
1a88
3088
64fe
fe88
1288
1088
54fe
5688
d288
9088
10ff
ENDCHAR
STARTCHAR 305e
ENCODING 12382
SWIDTH 1016 0
DWIDTH 18 0
BBX 16 16 1 -2
BITMAP
1020
30fc
6044
c444
6dff
1800
30fe
6482
fefe
1208
10fe
5448
5448
d5ff
9008
1008
ENDCHAR
STARTCHAR 305f
ENCODING 12383
SWIDTH 1016 0
DWIDTH 18 0
BBX 16 16 1 -2
BITMAP
7ffe
4102
4102
7ffe
4102
4102
7ffe
0000
3ffc
2004
3ffc
2004
3ffc
2004
2004
201c
ENDCHAR
STARTCHAR 3060
ENCODING 12384
SWIDTH 1016 0
DWIDTH 18 0
BBX 16 16 1 -2
BITMAP
0420
ffff
0420
0078
3fc0
0100
ffff
0540
3938
e10f
0400
ffff
0810
3f20
01f8
7e0e
ENDCHAR
STARTCHAR 3061
ENCODING 12385
SWIDTH 1016 0
DWIDTH 18 0
BBX 16 16 1 -2
BITMAP
0100
0100
0100
ffff
0280
0682
0cc6
184c
3878
e820
0830
0810
0818
0b8c
1e06
7003
ENDCHAR
STARTCHAR 3062
ENCODING 12386
SWIDTH 1016 0
DWIDTH 18 0
BBX 16 16 1 -2
BITMAP
0000
7cfe
0092
fefe
0092
7c92
00fe
0000
7cfe
0082
00fe
7c82
44fe
4482
4482
7c86
ENDCHAR
STARTCHAR 3063
ENCODING 12387
SWIDTH 1016 0
DWIDTH 18 0
BBX 16 16 1 -2
BITMAP
0040
63fc
3084
1084
07ff
0000
01fc
f104
11fc
1010
13fe
1110
17ff
3010
6810
c7ff
ENDCHAR
STARTCHAR 3064
ENCODING 12388
SWIDTH 1016 0
DWIDTH 18 0
BBX 16 16 1 -2
BITMAP
0020
61fc
3124
11fc
0020
07ff
0000
f1fc
1104
11fc
1104
11fc
1104
31fc
6a02
c7ff
ENDCHAR
STARTCHAR 3065
ENCODING 12389
SWIDTH 1016 0
DWIDTH 18 0
BBX 16 16 1 -2
BITMAP
0000
7ffe
4400
4400
4ff8
5880
4080
5ffc
4140
4360
4220
4630
4c18
4000
7ffe
0000
ENDCHAR
STARTCHAR 3066
ENCODING 12390
SWIDTH 1016 0
DWIDTH 18 0
BBX 16 16 1 -2
BITMAP
0420
0420
0420
0420
7ffe
0420
0420
0420
0420
ffff
0420
0420
0c20
0820
1820
3020
ENDCHAR
STARTCHAR 3067
ENCODING 12391
SWIDTH 1016 0
DWIDTH 18 0
BBX 16 16 1 -2
BITMAP
0100
0100
0100
ffff
0100
0320
3660
18c8
0d98
0330
0660
1cc0
71b0
0718
1c0c
7006
ENDCHAR
STARTCHAR 3068
ENCODING 12392
SWIDTH 1016 0
DWIDTH 18 0
BBX 16 16 1 -2
BITMAP
2028
2024
2024
27ff
f820
2020
27a2
24b2
2496
2494
279c
3808
6399
ce2d
00c7
0302
ENDCHAR
STARTCHAR 3069
ENCODING 12393
SWIDTH 1016 0
DWIDTH 18 0
BBX 16 16 1 -2
BITMAP
0100
0100
ffff
0400
0808
1ffc
7006
0000
1ff8
1008
1ff8
1008
1ff8
1008
1008
1038
ENDCHAR
STARTCHAR 306a
ENCODING 12394
SWIDTH 1016 0
DWIDTH 18 0
BBX 16 16 1 -2
BITMAP
0800
083e
ffa2
1026
1024
3f2c
2128
6124
bf22
2122
2122
3f22
2122
212e
2120
2720
ENDCHAR
STARTCHAR 306b
ENCODING 12395
SWIDTH 1016 0
DWIDTH 18 0
BBX 16 16 1 -2
BITMAP
0122
fa24
26ad
2122
2225
22af
77a4
5022
d3ff
5220
5312
5294
7288
0615
0427
0cc2
ENDCHAR
STARTCHAR 306c
ENCODING 12396
SWIDTH 1016 0
DWIDTH 18 0
BBX 16 16 1 -2
BITMAP
0000
0000
0000
0000
0000
0000
0000
7ffe
0000
0000
0000
0000
0000
0000
0000
0000
ENDCHAR
STARTCHAR 306d
ENCODING 12397
SWIDTH 1016 0
DWIDTH 18 0
BBX 16 16 1 -2
BITMAP
0100
0100
ffff
0100
0100
3ffc
0000
ffff
8001
9031
11e0
1f00
1002
1006
1804
0ffc
ENDCHAR
STARTCHAR 306e
ENCODING 12398
SWIDTH 1016 0
DWIDTH 18 0
BBX 16 16 1 -2
BITMAP
0204
630c
3108
17fe
0108
c30c
6204
2606
0c03
0000
17fe
3492
2492
6492
4492
cfff
ENDCHAR
STARTCHAR 306f
ENCODING 12399
SWIDTH 1016 0
DWIDTH 18 0
BBX 16 16 1 -2
BITMAP
0080
60fc
3188
1310
07fe
0222
0222
f222
13fe
1090
1190
1111
1311
360f
6800
c7ff
ENDCHAR
STARTCHAR 3070
ENCODING 12400
SWIDTH 1016 0
DWIDTH 18 0
BBX 16 16 1 -2
BITMAP
0606
1c3c
f1e0
1000
1122
fdb6
1094
1000
393e
3522
5122
513e
9122
1122
1122
113e
ENDCHAR
STARTCHAR 3071
ENCODING 12401
SWIDTH 1016 0
DWIDTH 18 0
BBX 16 16 1 -2
BITMAP
0420
0420
ffff
0420
0520
6100
31fe
1322
0226
0674
1050
30d8
2088
618c
c306
0603
ENDCHAR
STARTCHAR 3072
ENCODING 12402
SWIDTH 1016 0
DWIDTH 18 0
BBX 16 16 1 -2
BITMAP
0420
0420
ffff
0420
0420
0000
3ffc
0100
0100
ffff
0100
0100
0100
0100
0100
0700
ENDCHAR
STARTCHAR 3073
ENCODING 12403
SWIDTH 1016 0
DWIDTH 18 0
BBX 16 16 1 -2
BITMAP
21ef
3c21
6421
49ef
fd08
5508
55ef
7c21
5529
54a5
7c21
0163
55a5
5529
d463
80c6
ENDCHAR
STARTCHAR 3074
ENCODING 12404
SWIDTH 1016 0
DWIDTH 18 0
BBX 16 16 1 -2
BITMAP
0400
0400
0c10
0818
180c
11fe
7f22
0420
0420
0420
0420
0c20
0821
1821
3033
e01e
ENDCHAR
STARTCHAR 3075
ENCODING 12405
SWIDTH 1016 0
DWIDTH 18 0
BBX 16 16 1 -2
BITMAP
0300
0e00
78fe
4082
4082
4082
4082
7e82
4082
4082
4082
4082
4082
7e9e
0080
0080
ENDCHAR
STARTCHAR 3076
ENCODING 12406
SWIDTH 1016 0
DWIDTH 18 0
BBX 16 16 1 -2
BITMAP
0000
03fe
f202
9222
9222
92fa
9222
9222
9272
9252
f252
028a
0202
0202
03fe
0000
ENDCHAR
STARTCHAR 3077
ENCODING 12407
SWIDTH 1016 0
DWIDTH 18 0
BBX 16 16 1 -2
BITMAP
0000
1ff8
1008
1008
1ff8
0000
3ffc
2004
3ffc
2004
3ffc
2004
3ffc
0000
1818
700e
ENDCHAR
STARTCHAR 3078
ENCODING 12408
SWIDTH 1016 0
DWIDTH 18 0
BBX 16 16 1 -2
BITMAP
0000
7ffe
4002
4102
4102
5ffa
4102
4382
42c2
4662
4c32
581a
4002
4002
7ffe
0000
ENDCHAR
STARTCHAR 3079
ENCODING 12409
SWIDTH 1016 0
DWIDTH 18 0
BBX 16 16 1 -2
BITMAP
2000
23fe
2202
2222
fa22
2afa
2a22
6a22
4a72
5a52
5252
d28a
3a02
2a02
63fe
c000
ENDCHAR
STARTCHAR 307a
ENCODING 12410
SWIDTH 1016 0
DWIDTH 18 0
BBX 16 16 1 -2
BITMAP
0004
ff04
0104
0104
0104
7f04
4004
4004
4004
7f04
0104
0104
0304
0204
0604
3c04
ENDCHAR
STARTCHAR 307b
ENCODING 12411
SWIDTH 1016 0
DWIDTH 18 0
BBX 16 16 1 -2
BITMAP
1040
3840
2c40
667f
5041
fcd3
4492
7c10
4410
7c38
4028
4428
446c
5e44
72c6
c183
ENDCHAR
STARTCHAR 307c
ENCODING 12412
SWIDTH 1016 0
DWIDTH 18 0
BBX 16 16 1 -2
BITMAP
600e
33f8
1002
0246
c364
6120
201c
01f0
0020
1020
17ff
3020
2020
6020
43fe
c000
ENDCHAR
STARTCHAR 307d
ENCODING 12413
SWIDTH 1016 0
DWIDTH 18 0
BBX 16 16 1 -2
BITMAP
2104
2204
2c44
2684
2104
2224
2ff4
2014
27e4
2424
27e4
2424
27e4
6425
4425
c463
ENDCHAR
STARTCHAR 307e
ENCODING 12414
SWIDTH 1016 0
DWIDTH 18 0
BBX 16 16 1 -2
BITMAP
0420
ffff
0420
0000
7830
4848
48b4
5303
50fc
4808
49fe
4800
5bff
4084
413e
43e3
ENDCHAR
STARTCHAR 3121
ENCODING 12577
SWIDTH 1016 0
DWIDTH 18 0
BBX 16 16 1 -2
BITMAP
0020
7820
4bfe
4a02
4a02
51fc
5000
4800
4fff
4890
4890
4890
5990
4111
4313
460e
ENDCHAR
STARTCHAR 3122
ENCODING 12578
SWIDTH 1016 0
DWIDTH 18 0
BBX 16 16 1 -2
BITMAP
0020
7870
48d8
498c
4b76
5603
51fc
4808
4810
49fc
4800
4fff
5880
4084
413e
43e3
ENDCHAR
STARTCHAR 3123
ENCODING 12579
SWIDTH 1016 0
DWIDTH 18 0
BBX 16 16 1 -2
BITMAP
0006
783c
4be2
4926
4894
51fe
5002
49fe
4802
49fe
4820
4810
5952
4143
4345
423c
ENDCHAR
STARTCHAR 3124
ENCODING 12580
SWIDTH 1016 0
DWIDTH 18 0
BBX 16 16 1 -2
BITMAP
1000
10fe
fe82
4482
6cfe
2800
fefe
0082
7cfe
4482
44fe
7c82
44fe
4444
7cc6
0183
ENDCHAR
STARTCHAR 3125
ENCODING 12581
SWIDTH 1016 0
DWIDTH 18 0
BBX 16 16 1 -2
BITMAP
0008
7c08
4408
4408
47ff
4408
4408
4588
44c8
4448
4408
7c08
0008
0008
0008
0038
ENDCHAR
STARTCHAR 3126
ENCODING 12582
SWIDTH 1016 0
DWIDTH 18 0
BBX 16 16 1 -2
BITMAP
0200
0200
0200
ffff
0400
0400
0c00
0800
1ffc
3804
6804
c804
0804
0804
0ffc
0000
ENDCHAR
STARTCHAR 3127
ENCODING 12583
SWIDTH 1016 0
DWIDTH 18 0
BBX 16 16 1 -2
BITMAP
0100
0100
7ffe
4002
4002
5ffa
0100
0100
0100
ffff
0100
0100
0100
0100
0100
0700
ENDCHAR
STARTCHAR 3128
ENCODING 12584
SWIDTH 1016 0
DWIDTH 18 0
BBX 16 16 1 -2
BITMAP
0080
0100
1ff8
1008
1008
1008
1ff8
1000
1fff
1000
1ffe
0022
2932
6d96
4484
001c
ENDCHAR
STARTCHAR 3129
ENCODING 12585
SWIDTH 1016 0
DWIDTH 18 0
BBX 16 16 1 -2
BITMAP
0000
fefe
0202
0202
6262
3232
1212
0202
0e0e
1a1a
3232
6262
c2c2
0202
0202
0e0e
ENDCHAR
STARTCHAR 312a
ENCODING 12586
SWIDTH 1016 0
DWIDTH 18 0
BBX 16 16 1 -2
BITMAP
0000
63fe
3020
1020
0020
0020
07ff
f020
1020
1020
1020
1020
1020
30e0
6800
c7ff
ENDCHAR
STARTCHAR 312b
ENCODING 12587
SWIDTH 1016 0
DWIDTH 18 0
BBX 16 16 1 -2
BITMAP
0000
ffff
0100
0100
7ffe
4102
5962
4d32
4512
4102
5962
4d32
4512
4102
4102
400e
ENDCHAR
STARTCHAR 312c
ENCODING 12588
SWIDTH 1016 0
DWIDTH 18 0
BBX 16 16 1 -2
BITMAP
0300
0e00
787e
4242
4242
4242
4242
4242
4242
4242
4242
7e42
c44e
0c40
1840
7040
ENDCHAR
STARTCHAR 312d
ENCODING 12589
SWIDTH 1016 0
DWIDTH 18 0
BBX 16 16 1 -2
BITMAP
4410
6c20
28fe
fe82
12fe
7e82
50fe
5080
7eff
1280
12ff
3601
5155
9155
1203
100e
ENDCHAR
STARTCHAR 312e
ENCODING 12590
SWIDTH 1016 0
DWIDTH 18 0
BBX 16 16 1 -2
BITMAP
0100
0100
7ffe
4442
587a
0000
10fc
7c84
10fc
1084
fefc
1084
38fc
2c49
60c9
c387
ENDCHAR
STARTCHAR 312f
ENCODING 12591
SWIDTH 1016 0
DWIDTH 18 0
BBX 16 16 1 -2
BITMAP
0000
7ff0
0410
0410
0410
0410
0410
ffff
0810
0810
0810
0810
0810
0810
ffff
0000
ENDCHAR
STARTCHAR 3130
ENCODING 12592
SWIDTH 1016 0
DWIDTH 18 0
BBX 16 16 1 -2
BITMAP
0024
006c
fe48
10ff
1188
3288
2088
3cfe
6488
a488
2488
24fe
2488
2488
3c88
00ff
ENDCHAR
STARTCHAR 3131
ENCODING 12593
SWIDTH 1016 0
DWIDTH 18 0
BBX 16 16 1 -2
BITMAP
0300
0e00
387c
2004
2004
2004
2004
2004
3e7c
2004
2004
2004
2004
2004
3ffc
0000
ENDCHAR
STARTCHAR 3132
ENCODING 12594
SWIDTH 1016 0
DWIDTH 18 0
BBX 16 16 1 -2
BITMAP
0000
63fc
3204
1204
027c
c244
6244
27fe
0402
14f2
1492
3492
2492
64f2
4402
c40e
ENDCHAR
STARTCHAR 3133
ENCODING 12595
SWIDTH 1016 0
DWIDTH 18 0
BBX 16 16 1 -2
BITMAP
0040
007e
f040
97ff
9441
947a
95c0
9442
943e
9400
f448
0d49
094a
194a
3048
03ff
ENDCHAR
STARTCHAR 3134
ENCODING 12596
SWIDTH 1016 0
DWIDTH 18 0
BBX 16 16 1 -2
BITMAP
0000
01fe
f902
8902
89fe
8902
8902
8902
89fe
8902
8902
f902
01fe
0084
0186
0303
ENDCHAR
STARTCHAR 3135
ENCODING 12597
SWIDTH 1016 0
DWIDTH 18 0
BBX 16 16 1 -2
BITMAP
2244
f99f
2244
718e
aa55
3ffc
2444
3ffc
0000
7e04
42ff
7e04
4244
7e24
4404
fa1c
ENDCHAR
STARTCHAR 3136
ENCODING 12598
SWIDTH 1016 0
DWIDTH 18 0
BBX 16 16 1 -2
BITMAP
0420
0420
ffff
0420
0004
7f04
4104
7f7f
4004
5f24
4014
5f14
4404
d504
a484
0c1c
ENDCHAR
STARTCHAR 3137
ENCODING 12599
SWIDTH 1016 0
DWIDTH 18 0
BBX 16 16 1 -2
BITMAP
207c
3c44
647c
4844
fe7c
5200
52fe
7eaa
52fe
5200
7efc
0044
556c
5538
d46c
81c7
ENDCHAR
STARTCHAR 3138
ENCODING 12600
SWIDTH 1016 0
DWIDTH 18 0
BBX 16 16 1 -2
BITMAP
1022
1022
11fe
1024
fc2c
2428
27ff
2430
6460
4dc6
4b5c
e870
1840
3441
6463
c03e
ENDCHAR
STARTCHAR 3139
ENCODING 12601
SWIDTH 1016 0
DWIDTH 18 0
BBX 16 16 1 -2
BITMAP
0000
7fff
4000
5f7e
5128
5128
5f28
5128
517f
5f08
5018
5218
d238
9f29
b169
00c7
ENDCHAR
STARTCHAR 313a
ENCODING 12602
SWIDTH 1016 0
DWIDTH 18 0
BBX 16 16 1 -2
BITMAP
0024
6022
37ff
1020
0020
c3fe
6222
2222
03fe
1222
1222
33fe
2222
6222
4222
c226
ENDCHAR
STARTCHAR 313b
ENCODING 12603
SWIDTH 1016 0
DWIDTH 18 0
BBX 16 16 1 -2
BITMAP
000c
0078
3fc8
2008
2108
2108
2108
2108
2108
210c
2104
2124
2124
61f6
4f12
c003
ENDCHAR
STARTCHAR 313c
ENCODING 12604
SWIDTH 1016 0
DWIDTH 18 0
BBX 16 16 1 -2
BITMAP
0000
7e7e
4242
7e7e
4242
7e7e
4002
4ff2
4102
4102
47e2
4102
4102
5ffa
4002
400e
ENDCHAR
STARTCHAR 313d
ENCODING 12605
SWIDTH 1016 0
DWIDTH 18 0
BBX 16 16 1 -2
BITMAP
0104
0088
07ff
f050
93fe
9252
939e
9202
93fe
9202
93fe
f004
07ff
0104
0084
001c
ENDCHAR
STARTCHAR 313e
ENCODING 12606
SWIDTH 1016 0
DWIDTH 18 0
BBX 16 16 1 -2
BITMAP
0000
0000
3ffc
0000
0000
0000
ffff
0400
0400
0410
0c18
0808
08fc
1f84
7006
0000
ENDCHAR
STARTCHAR 313f
ENCODING 12607
SWIDTH 1016 0
DWIDTH 18 0
BBX 16 16 1 -2
BITMAP
0000
67ff
3401
1421
03fe
0020
03fe
f222
13fe
1222
13fe
1020
17ff
3020
6800
c7ff
ENDCHAR
STARTCHAR 3140
ENCODING 12608
SWIDTH 1016 0
DWIDTH 18 0
BBX 16 16 1 -2
BITMAP
0000
3ffc
0100
7ffe
4102
5d3a
4102
1d38
0000
3ffc
0000
ffff
0808
1808
10fc
3f86
ENDCHAR
STARTCHAR 3141
ENCODING 12609
SWIDTH 1016 0
DWIDTH 18 0
BBX 16 16 1 -2
BITMAP
0420
0420
ffff
0420
0420
080c
1838
13e0
3020
7020
d7ff
1020
1020
1020
13fe
1000
ENDCHAR
STARTCHAR 3142
ENCODING 12610
SWIDTH 1016 0
DWIDTH 18 0
BBX 16 16 1 -2
BITMAP
0800
1dff
1644
3344
6844
be7c
2244
3e44
2244
3e7c
2044
2244
2247
2ffc
3904
6004
ENDCHAR
STARTCHAR 3143
ENCODING 12611
SWIDTH 1016 0
DWIDTH 18 0
BBX 16 16 1 -2
BITMAP
0800
0f7e
0822
ffa2
80a2
1c36
4114
9c94
221c
7f08
c188
7f1c
4114
7f36
4122
7f63
ENDCHAR
STARTCHAR 3144
ENCODING 12612
SWIDTH 1016 0
DWIDTH 18 0
BBX 16 16 1 -2
BITMAP
2204
330c
1108
ffff
8001
9ff9
1008
1008
1ff8
0100
0200
3ffc
2004
2004
2004
3ffc
ENDCHAR
STARTCHAR 3145
ENCODING 12613
SWIDTH 1016 0
DWIDTH 18 0
BBX 16 16 1 -2
BITMAP
7e7e
4242
7e7e
4242
7e7e
4242
7e7e
2424
4242
0200
ffff
0410
0860
1fc0
01f8
7e0e
ENDCHAR
STARTCHAR 3146
ENCODING 12614
SWIDTH 1016 0
DWIDTH 18 0
BBX 16 16 1 -2
BITMAP
0002
7f06
410c
7f18
4130
7f02
0806
ff8c
0018
7f30
4101
7f03
0806
490c
8898
1830
ENDCHAR
STARTCHAR 3147
ENCODING 12615
SWIDTH 1016 0
DWIDTH 18 0
BBX 16 16 1 -2
BITMAP
0020
0020
f820
8bfe
8a22
8a22
8a22
fa22
8a22
8fff
8850
88d8
f888
018c
0306
0603
ENDCHAR
STARTCHAR 3148
ENCODING 12616
SWIDTH 1016 0
DWIDTH 18 0
BBX 16 16 1 -2
BITMAP
0100
0100
7ffe
4102
4102
7ffe
4102
4102
4102
7ffe
0108
0198
00b1
01e1
0f39
f80f
ENDCHAR
STARTCHAR 3149
ENCODING 12617
SWIDTH 1016 0
DWIDTH 18 0
BBX 16 16 1 -2
BITMAP
0604
630c
3118
1010
7ffe
4002
4102
0100
ffff
0540
0d60
0930
1918
310c
e107
0100
ENDCHAR
STARTCHAR 314a
ENCODING 12618
SWIDTH 1016 0
DWIDTH 18 0
BBX 16 16 1 -2
BITMAP
0700
01c0
0040
0000
1f80
0086
008c
7cd8
04f0
0ca0
08b0
1898
308c
6086
c083
0780
ENDCHAR
STARTCHAR 314b
ENCODING 12619
SWIDTH 1016 0
DWIDTH 18 0
BBX 16 16 1 -2
BITMAP
0380
60e0
3020
1000
07c0
c042
6066
2f6c
0178
0150
2358
2248
664c
4c46
d843
81c0
ENDCHAR
STARTCHAR 314c
ENCODING 12620
SWIDTH 1016 0
DWIDTH 18 0
BBX 16 16 1 -2
BITMAP
0040
6040
37fe
1442
0442
c7fe
6442
2442
07fe
1040
1064
302c
2038
6071
41dd
cf07
ENDCHAR
STARTCHAR 314d
ENCODING 12621
SWIDTH 1016 0
DWIDTH 18 0
BBX 16 16 1 -2
BITMAP
0088
f888
27ff
2088
2088
2020
fbfe
2222
2222
2222
27ff
2050
38d8
e18c
0306
0603
ENDCHAR
STARTCHAR 314e
ENCODING 12622
SWIDTH 1016 0
DWIDTH 18 0
BBX 16 16 1 -2
BITMAP
0000
fff0
1010
1010
1fde
1042
3482
2302
6cce
c000
3ffc
2444
2444
2444
ffff
0000
ENDCHAR
STARTCHAR 314f
ENCODING 12623
SWIDTH 1016 0
DWIDTH 18 0
BBX 16 16 1 -2
BITMAP
4000
46ff
7c10
407e
4142
3f42
007e
0e42
7842
087e
ff42
2842
2e7e
6b24
c866
08c3
ENDCHAR
STARTCHAR 3150
ENCODING 12624
SWIDTH 1016 0
DWIDTH 18 0
BBX 16 16 1 -2
BITMAP
4000
46ff
7c10
407e
4142
3f42
007e
7f42
0042
fffe
0842
2a42
6b7e
4924
c866
18c3
ENDCHAR
STARTCHAR 3151
ENCODING 12625
SWIDTH 1016 0
DWIDTH 18 0
BBX 16 16 1 -2
BITMAP
0810
0810
ffff
0810
0910
0100
3ffc
2104
2104
2104
ffff
0240
0660
0c30
381c
e007
ENDCHAR
STARTCHAR 3152
ENCODING 12626
SWIDTH 1016 0
DWIDTH 18 0
BBX 16 16 1 -2
BITMAP
1100
37ef
6220
c220
0ff0
1000
37ef
6422
e7e2
2042
2ff2
2242
2242
3ffa
2042
2046
ENDCHAR
STARTCHAR 3153
ENCODING 12627
SWIDTH 1016 0
DWIDTH 18 0
BBX 16 16 1 -2
BITMAP
00c0
7870
0010
fc00
01e0
7820
0022
03b6
78bc
00a8
00a8
79ac
4924
4b26
4e23
78e0
ENDCHAR
STARTCHAR 3154
ENCODING 12628
SWIDTH 1016 0
DWIDTH 18 0
BBX 16 16 1 -2
BITMAP
1082
38c6
2c44
66fe
4282
fc82
1082
1082
fefe
1048
9448
d448
50c8
1e89
f189
0307
ENDCHAR
STARTCHAR 3155
ENCODING 12629
SWIDTH 1016 0
DWIDTH 18 0
BBX 16 16 1 -2
BITMAP
0020
6020
37ff
1090
0090
c19e
6112
2332
052a
1166
1114
311c
2108
611c
4136
c163
ENDCHAR
STARTCHAR 3156
ENCODING 12630
SWIDTH 1016 0
DWIDTH 18 0
BBX 16 16 1 -2
BITMAP
0080
0080
3fff
a000
63f0
2210
2610
2c1f
2000
6ffc
a20c
2318
61b0
40e0
c3b8
1e0f
ENDCHAR
STARTCHAR 3157
ENCODING 12631
SWIDTH 1016 0
DWIDTH 18 0
BBX 16 16 1 -2
BITMAP
1008
1818
0c30
0420
ffff
0420
0c30
1818
300c
e007
1ff8
1248
1248
1248
1248
ffff
ENDCHAR
STARTCHAR 3158
ENCODING 12632
SWIDTH 1016 0
DWIDTH 18 0
BBX 16 16 1 -2
BITMAP
0000
7fbe
4822
4822
7f22
4822
4822
7f3e
4828
4828
7fac
00a4
aaa4
aaa6
81a2
0343
ENDCHAR
STARTCHAR 3159
ENCODING 12633
SWIDTH 1016 0
DWIDTH 18 0
BBX 16 16 1 -2
BITMAP
1102
1186
1084
11fe
5902
5502
5502
d102
91fe
1048
1048
1048
10c8
1089
1189
1307
ENDCHAR
STARTCHAR 315a
ENCODING 12634
SWIDTH 1016 0
DWIDTH 18 0
BBX 16 16 1 -2
BITMAP
0000
79fe
0102
fdfe
0102
79fe
0080
00ff
7981
0319
01f1
7901
4909
48fb
4802
780e
ENDCHAR
STARTCHAR 315b
ENCODING 12635
SWIDTH 1016 0
DWIDTH 18 0
BBX 16 16 1 -2
BITMAP
1014
1012
7c10
11ff
1110
ff12
1112
1116
5114
5d1c
51c8
531d
5037
7062
dc00
87ff
ENDCHAR
STARTCHAR 315c
ENCODING 12636
SWIDTH 1016 0
DWIDTH 18 0
BBX 16 16 1 -2
BITMAP
0000
7e7e
4242
7e7e
4242
7e7e
4422
4242
4ff2
4812
4812
4ff2
4242
464a
5c3a
4006
ENDCHAR
STARTCHAR 315d
ENCODING 12637
SWIDTH 1016 0
DWIDTH 18 0
BBX 16 16 1 -2
BITMAP
1000
13ff
1020
fdfe
1102
11fe
3902
35fe
3502
51fe
5040
90fe
1386
10cc
1078
13cf
ENDCHAR
STARTCHAR 315e
ENCODING 12638
SWIDTH 1016 0
DWIDTH 18 0
BBX 16 16 1 -2
BITMAP
0000
7fff
4000
5f0a
5109
5f08
517f
5f08
4008
5f1c
5114
5f14
d114
9f36
9122
1363
ENDCHAR
STARTCHAR 315f
ENCODING 12639
SWIDTH 1016 0
DWIDTH 18 0
BBX 16 16 1 -2
BITMAP
0000
7ffe
4102
4102
4102
4102
4102
4102
7ffe
4002
4002
4002
4002
4002
400e
0000
ENDCHAR
STARTCHAR 3160
ENCODING 12640
SWIDTH 1016 0
DWIDTH 18 0
BBX 16 16 1 -2
BITMAP
0000
7ffe
4102
4ff2
4102
5ffa
4002
4ff2
4812
4ff2
434a
4532
591a
4102
7ffe
0000
ENDCHAR
STARTCHAR 3161
ENCODING 12641
SWIDTH 1016 0
DWIDTH 18 0
BBX 16 16 1 -2
BITMAP
2000
27ff
2400
24fc
2484
fcfc
2484
24fc
2420
25fe
2448
3cd8
e430
05ce
0400
07ff
ENDCHAR
STARTCHAR 3162
ENCODING 12642
SWIDTH 1016 0
DWIDTH 18 0
BBX 16 16 1 -2
BITMAP
0200
0200
ffff
0420
0910
1108
3ffc
e107
2104
3ffc
2104
2104
3ffc
0101
0183
00fe
ENDCHAR
STARTCHAR 3163
ENCODING 12643
SWIDTH 1016 0
DWIDTH 18 0
BBX 16 16 1 -2
BITMAP
0100
0100
7ffe
4002
4ff2
0810
0ff0
0810
0ff0
0200
ffff
0410
0830
1fe0
0338
3c0c
ENDCHAR
STARTCHAR 3164
ENCODING 12644
SWIDTH 1016 0
DWIDTH 18 0
BBX 16 16 1 -2
BITMAP
0006
fc1c
09f0
1010
2010
7890
089e
0890
4890
6890
2890
3890
13ff
3800
6e00
c3ff
ENDCHAR
STARTCHAR 3165
ENCODING 12645
SWIDTH 1016 0
DWIDTH 18 0
BBX 16 16 1 -2
BITMAP
1000
1f7e
3142
2342
724e
d640
0c41
1863
303e
e000
0180
24c4
2446
640b
4619
c3f0
ENDCHAR
STARTCHAR 3166
ENCODING 12646
SWIDTH 1016 0
DWIDTH 18 0
BBX 16 16 1 -2
BITMAP
2080
2080
2fff
2108
f948
2244
27fe
2a45
2244
3bfc
e244
2244
23fc
2041
2063
603e
ENDCHAR
STARTCHAR 3167
ENCODING 12647
SWIDTH 1016 0
DWIDTH 18 0
BBX 16 16 1 -2
BITMAP
200e
27f8
2242
fb66
2124
23fe
2080
27ff
3880
e0fc
2184
230c
26d8
2070
21dc
6707
ENDCHAR
STARTCHAR 3168
ENCODING 12648
SWIDTH 1016 0
DWIDTH 18 0
BBX 16 16 1 -2
BITMAP
6108
3108
1108
030c
0204
c606
6c03
2000
03fc
1204
1204
3204
2204
6204
4204
c3fc
ENDCHAR
STARTCHAR 3169
ENCODING 12649
SWIDTH 1016 0
DWIDTH 18 0
BBX 16 16 1 -2
BITMAP
0020
6020
37ff
1401
05fd
c020
63fe
2222
0222
13fe
1222
3222
23fe
6104
4306
c603
ENDCHAR
STARTCHAR 316a
ENCODING 12650
SWIDTH 1016 0
DWIDTH 18 0
BBX 16 16 1 -2
BITMAP
0100
1104
110c
3398
22c0
0660
1c38
710e
0104
110c
3398
62c0
0660
0c30
381c
e007
ENDCHAR
STARTCHAR 316b
ENCODING 12651
SWIDTH 1016 0
DWIDTH 18 0
BBX 16 16 1 -2
BITMAP
1020
1020
107e
1242
56c6
558c
5008
d13f
9121
1121
3921
293f
2d21
6521
4121
c13f
ENDCHAR
STARTCHAR 316c
ENCODING 12652
SWIDTH 1016 0
DWIDTH 18 0
BBX 16 16 1 -2
BITMAP
1000
13ff
1050
1450
55fe
5552
5152
d152
91fe
1020
3820
29fe
2c20
6420
43ff
c000
ENDCHAR
STARTCHAR 316d
ENCODING 12653
SWIDTH 1016 0
DWIDTH 18 0
BBX 16 16 1 -2
BITMAP
0420
0420
ffff
0420
07e0
1009
f3ca
124c
1248
1249
73c9
d00f
0000
2444
6666
c223
ENDCHAR
STARTCHAR 316e
ENCODING 12654
SWIDTH 1016 0
DWIDTH 18 0
BBX 16 16 1 -2
BITMAP
0820
8820
53fe
2020
27ff
5000
93fe
1202
3202
53fe
9091
119b
170a
110c
31e6
e703
ENDCHAR
STARTCHAR 316f
ENCODING 12655
SWIDTH 1016 0
DWIDTH 18 0
BBX 16 16 1 -2
BITMAP
1000
31fc
6004
c5fc
6c04
1bff
3040
64a2
fd34
1458
1090
5538
5454
d492
9111
1060
ENDCHAR
STARTCHAR 3170
ENCODING 12656
SWIDTH 1016 0
DWIDTH 18 0
BBX 16 16 1 -2
BITMAP
1420
7f3e
5522
7f66
55c4
7f7f
0049
ffc9
0049
7f7f
4140
7f40
2240
3641
1441
ffbf
ENDCHAR
STARTCHAR 3171
ENCODING 12657
SWIDTH 1016 0
DWIDTH 18 0
BBX 16 16 1 -2
BITMAP
0420
0420
ffff
0420
0420
1000
1f7e
3142
2342
7a42
ce42
044e
0c40
1841
3063
e03e
ENDCHAR
STARTCHAR 3172
ENCODING 12658
SWIDTH 1016 0
DWIDTH 18 0
BBX 16 16 1 -2
BITMAP
0420
ffff
0420
7ffe
4102
4ff2
4102
5ffa
4002
4ff2
4812
4ff2
431a
5de2
411a
7ffe
ENDCHAR
STARTCHAR 3173
ENCODING 12659
SWIDTH 1016 0
DWIDTH 18 0
BBX 16 16 1 -2
BITMAP
0020
6020
33fe
1020
07ff
0000
03fe
f202
13fe
1063
10e6
11b8
172e
3023
6820
c7ff
ENDCHAR
STARTCHAR 3174
ENCODING 12660
SWIDTH 1016 0
DWIDTH 18 0
BBX 16 16 1 -2
BITMAP
1024
3824
2c24
6666
4242
fcc3
1081
1000
fe7e
1042
9442
d442
5042
1e42
7042
c07e
ENDCHAR
STARTCHAR 3175
ENCODING 12661
SWIDTH 1016 0
DWIDTH 18 0
BBX 16 16 1 -2
BITMAP
107c
3f44
e241
147f
1900
fff8
1008
1ff8
1008
1ff8
1000
1fff
1000
5ffe
c922
8496
ENDCHAR
STARTCHAR 3176
ENCODING 12662
SWIDTH 1016 0
DWIDTH 18 0
BBX 16 16 1 -2
BITMAP
0200
2200
27fe
2c00
23fc
fa04
2204
23fc
2000
27fe
2492
3c92
e492
0492
0492
0fff
ENDCHAR
STARTCHAR 3177
ENCODING 12663
SWIDTH 1016 0
DWIDTH 18 0
BBX 16 16 1 -2
BITMAP
1010
1010
1038
ff28
106c
1044
1ec6
13b3
1218
120c
3204
2260
2630
6418
440c
cc04
ENDCHAR
STARTCHAR 3178
ENCODING 12664
SWIDTH 1016 0
DWIDTH 18 0
BBX 16 16 1 -2
BITMAP
6000
37fe
1080
0080
0080
cfff
6100
2100
0100
13fe
1002
3002
2002
6006
4004
c03c
ENDCHAR
STARTCHAR 3179
ENCODING 12665
SWIDTH 1016 0
DWIDTH 18 0
BBX 16 16 1 -2
BITMAP
1000
11fe
5122
5122
7dfe
d122
9122
11fe
7c20
13ff
1021
1061
1c41
70c3
c182
070e
ENDCHAR
STARTCHAR 317a
ENCODING 12666
SWIDTH 1016 0
DWIDTH 18 0
BBX 16 16 1 -2
BITMAP
0000
7c3e
4422
4422
4422
4422
4422
4422
47e2
4002
4002
4002
4002
4002
7ffe
0000
ENDCHAR
STARTCHAR 317b
ENCODING 12667
SWIDTH 1016 0
DWIDTH 18 0
BBX 16 16 1 -2
BITMAP
0100
0100
0100
3ffc
2104
2104
2104
2104
2104
ffff
0280
06c0
0460
0c30
381c
e007
ENDCHAR
STARTCHAR 317c
ENCODING 12668
SWIDTH 1016 0
DWIDTH 18 0
BBX 16 16 1 -2
BITMAP
0100
0200
3ffc
2004
2924
2544
2ff4
2384
2544
2934
2104
2204
ffff
0660
1c38
700e
ENDCHAR
STARTCHAR 317d
ENCODING 12669
SWIDTH 1016 0
DWIDTH 18 0
BBX 16 16 1 -2
BITMAP
08c0
1860
3020
63fe
c820
1820
3020
6020
e3fe
2020
2020
2020
2020
2020
27ff
2000
ENDCHAR
STARTCHAR 317e
ENCODING 12670
SWIDTH 1016 0
DWIDTH 18 0
BBX 16 16 1 -2
BITMAP
0080
0080
3fff
2000
20c0
2060
2130
2110
2500
2504
2506
2d03
6901
4904
c18c
00f8
ENDCHAR
STARTCHAR 3221
ENCODING 12833
SWIDTH 1016 0
DWIDTH 18 0
BBX 16 16 1 -2
BITMAP
2000
23fe
2222
2222
fa22
23fe
2222
2222
2222
3a22
e3fe
2020
2020
2020
2020
6020
ENDCHAR
STARTCHAR 3222
ENCODING 12834
SWIDTH 1016 0
DWIDTH 18 0
BBX 16 16 1 -2
BITMAP
0000
fbfe
8820
8820
8820
8820
f820
8bfe
8820
8820
8820
8820
f820
0020
07ff
0000
ENDCHAR
STARTCHAR 3223
ENCODING 12835
SWIDTH 1016 0
DWIDTH 18 0
BBX 16 16 1 -2
BITMAP
1088
13fe
1088
fc88
17ff
1020
3bfe
3622
3222
53fe
5222
9222
13fe
1104
1306
1603
ENDCHAR
STARTCHAR 3224
ENCODING 12836
SWIDTH 1016 0
DWIDTH 18 0
BBX 16 16 1 -2
BITMAP
0040
7e40
4040
407f
54c1
5493
4992
4810
4810
4838
5428
5428
406c
4044
7ec6
0183
ENDCHAR
STARTCHAR 3225
ENCODING 12837
SWIDTH 1016 0
DWIDTH 18 0
BBX 16 16 1 -2
BITMAP
0000
7e7c
4044
4044
54c4
5587
4800
48fe
4842
5466
542c
4038
4010
7e38
006c
01c7
ENDCHAR
STARTCHAR 3226
ENCODING 12838
SWIDTH 1016 0
DWIDTH 18 0
BBX 16 16 1 -2
BITMAP
0000
7ffe
0100
0100
0100
0100
0100
3ffc
0100
0100
0100
0100
0100
0100
ffff
0000
ENDCHAR
STARTCHAR 3227
ENCODING 12839
SWIDTH 1016 0
DWIDTH 18 0
BBX 16 16 1 -2
BITMAP
0420
0c30
3a1c
e607
0410
0ff8
380c
0000
fefe
2222
1212
0e0e
3a3a
e2e2
0202
0e0e
ENDCHAR
STARTCHAR 3228
ENCODING 12840
SWIDTH 1016 0
DWIDTH 18 0
BBX 16 16 1 -2
BITMAP
2020
2040
23fe
fa02
0aaa
1a22
12fa
3272
6aaa
f222
2a42
27ff
2050
20d8
218c
2707
ENDCHAR
STARTCHAR 3229
ENCODING 12841
SWIDTH 1016 0
DWIDTH 18 0
BBX 16 16 1 -2
BITMAP
2204
1108
ffff
8101
9ff9
1008
1ff8
1008
1ff8
1000
1fff
1000
1ffe
4922
c492
8006
ENDCHAR
STARTCHAR 322a
ENCODING 12842
SWIDTH 1016 0
DWIDTH 18 0
BBX 16 16 1 -2
BITMAP
0020
fc40
81fc
8104
a9fc
a904
91fc
9100
91ff
a900
a9fe
8002
82aa
faaa
0406
000c
ENDCHAR
STARTCHAR 322b
ENCODING 12843
SWIDTH 1016 0
DWIDTH 18 0
BBX 16 16 1 -2
BITMAP
0420
0420
7ffe
0420
0420
ffff
0100
1ff8
1108
1108
1ff8
1108
1108
1ff8
0810
700e
ENDCHAR
STARTCHAR 322c
ENCODING 12844
SWIDTH 1016 0
DWIDTH 18 0
BBX 16 16 1 -2
BITMAP
0000
7ffe
4812
4422
4422
5ffa
4102
4102
4912
4912
4912
4912
4ff2
4002
4002
400e
ENDCHAR
STARTCHAR 322d
ENCODING 12845
SWIDTH 1016 0
DWIDTH 18 0
BBX 16 16 1 -2
BITMAP
0020
6020
3020
1020
07ff
c421
6421
2421
0421
1421
17ff
3020
2020
6020
4020
c020
ENDCHAR
STARTCHAR 322e
ENCODING 12846
SWIDTH 1016 0
DWIDTH 18 0
BBX 16 16 1 -2
BITMAP
0420
0420
ffff
0420
0000
8820
5021
2123
5126
9324
3270
5050
90d8
118c
3306
6603
ENDCHAR
STARTCHAR 322f
ENCODING 12847
SWIDTH 1016 0
DWIDTH 18 0
BBX 16 16 1 -2
BITMAP
1040
1040
37fe
2108
2090
6fff
6000
a3fc
2204
23fc
2204
23fc
2040
2522
2509
28f8
ENDCHAR
STARTCHAR 3230
ENCODING 12848
SWIDTH 1016 0
DWIDTH 18 0
BBX 16 16 1 -2
BITMAP
0000
3ffe
2002
2002
3ffe
2000
2ffe
2200
2204
247e
2fc2
2040
67fc
4040
c040
1fff
ENDCHAR
STARTCHAR 3231
ENCODING 12849
SWIDTH 1016 0
DWIDTH 18 0
BBX 16 16 1 -2
BITMAP
2040
2040
27fe
2108
b090
afff
a800
a3fc
2204
23fc
2204
23fc
2040
2522
2509
28f8
ENDCHAR
STARTCHAR 3232
ENCODING 12850
SWIDTH 1016 0
DWIDTH 18 0
BBX 16 16 1 -2
BITMAP
0020
7820
4bfe
4904
4888
7fff
4800
49fc
4904
79fc
4904
49fc
4820
4952
c945
9a3c
ENDCHAR
STARTCHAR 3233
ENCODING 12851
SWIDTH 1016 0
DWIDTH 18 0
BBX 16 16 1 -2
BITMAP
1000
13fe
1004
fcc8
1030
13fe
3a22
3622
53fe
5222
9222
13fe
1222
1222
1222
1226
ENDCHAR
STARTCHAR 3234
ENCODING 12852
SWIDTH 1016 0
DWIDTH 18 0
BBX 16 16 1 -2
BITMAP
1020
5020
5020
5020
7c20
d1fe
9020
1020
1020
1c20
f020
1020
1020
1020
13ff
1000
ENDCHAR
STARTCHAR 3235
ENCODING 12853
SWIDTH 1016 0
DWIDTH 18 0
BBX 16 16 1 -2
BITMAP
0000
7ff8
0030
0060
00c0
0180
0300
0600
0c00
1800
3002
6002
4006
6004
3ffc
0000
ENDCHAR
STARTCHAR 3236
ENCODING 12854
SWIDTH 1016 0
DWIDTH 18 0
BBX 16 16 1 -2
BITMAP
1080
1080
3fff
2110
2150
6248
67fc
ac46
3445
27fc
2444
2444
27fc
2041
2063
203e
ENDCHAR
STARTCHAR 3237
ENCODING 12855
SWIDTH 1016 0
DWIDTH 18 0
BBX 16 16 1 -2
BITMAP
2000
207e
7f42
4842
8842
0842
ff42
0842
4842
4f42
4842
4842
4f4e
7840
c040
0040
ENDCHAR
STARTCHAR 3238
ENCODING 12856
SWIDTH 1016 0
DWIDTH 18 0
BBX 16 16 1 -2
BITMAP
0000
3ffc
2104
2104
2ff4
2244
2424
2814
2004
3ffc
0080
24c6
2443
6409
4618
c3f0
ENDCHAR
STARTCHAR 3239
ENCODING 12857
SWIDTH 1016 0
DWIDTH 18 0
BBX 16 16 1 -2
BITMAP
0000
63fc
3204
1204
03fc
c204
6204
23fc
0000
17fe
1492
3492
2492
6492
4492
cfff
ENDCHAR
STARTCHAR 323a
ENCODING 12858
SWIDTH 1016 0
DWIDTH 18 0
BBX 16 16 1 -2
BITMAP
0c06
383c
e7e2
2246
2124
fbfe
2002
33fe
2802
6bfe
6000
a020
a2b2
2293
2685
247c
ENDCHAR
STARTCHAR 323b
ENCODING 12859
SWIDTH 1016 0
DWIDTH 18 0
BBX 16 16 1 -2
BITMAP
0100
0100
7ffe
0810
0c30
0420
ffff
0000
1ff8
1008
1008
1ff8
1008
1008
1008
1ff8
ENDCHAR
STARTCHAR 323c
ENCODING 12860
SWIDTH 1016 0
DWIDTH 18 0
BBX 16 16 1 -2
BITMAP
0000
ffff
0100
0100
0100
01c0
0160
0130
0118
0108
0100
0100
0100
0100
0100
0100
ENDCHAR
STARTCHAR 323d
ENCODING 12861
SWIDTH 1016 0
DWIDTH 18 0
BBX 16 16 1 -2
BITMAP
0440
0440
0c40
0842
1846
105c
3070
7040
d040
1040
1040
1041
1041
1043
1062
103e
ENDCHAR
STARTCHAR 323e
ENCODING 12862
SWIDTH 1016 0
DWIDTH 18 0
BBX 16 16 1 -2
BITMAP
0800
0bfe
1a00
1200
3200
23fc
6284
a28c
22c8
2258
2270
2620
2470
2cd8
218c
2307
ENDCHAR
STARTCHAR 323f
ENCODING 12863
SWIDTH 1016 0
DWIDTH 18 0
BBX 16 16 1 -2
BITMAP
0800
0800
1fff
1004
3004
23c4
6244
a244
2244
2244
2244
23c4
2004
2004
2004
201c
ENDCHAR
STARTCHAR 3240
ENCODING 12864
SWIDTH 1016 0
DWIDTH 18 0
BBX 16 16 1 -2
BITMAP
1200
1200
121e
3212
2fd2
6252
6252
a252
2252
2252
2252
2652
2452
24d2
2c9e
2980
ENDCHAR
STARTCHAR 3241
ENCODING 12865
SWIDTH 1016 0
DWIDTH 18 0
BBX 16 16 1 -2
BITMAP
0800
0800
1fff
1090
3090
2090
67fe
a492
2492
2492
2492
2492
2492
2492
27fe
2000
ENDCHAR
STARTCHAR 3242
ENCODING 12866
SWIDTH 1016 0
DWIDTH 18 0
BBX 16 16 1 -2
BITMAP
0820
0820
1bfe
1020
3020
2020
67ff
a000
2020
2020
23fe
2020
2020
2020
27ff
2000
ENDCHAR
STARTCHAR 3243
ENCODING 12867
SWIDTH 1016 0
DWIDTH 18 0
BBX 16 16 1 -2
BITMAP
1000
1000
103e
1022
ff22
1122
1122
1122
1122
1122
3122
2122
2322
6222
423e
c600
ENDCHAR
STARTCHAR 3244
ENCODING 12868
SWIDTH 1016 0
DWIDTH 18 0
BBX 16 16 1 -2
BITMAP
0000
ffff
0008
0008
1f88
1088
1088
1088
1088
1088
1f88
0008
0008
0008
0008
0038
ENDCHAR
STARTCHAR 3245
ENCODING 12869
SWIDTH 1016 0
DWIDTH 18 0
BBX 16 16 1 -2
BITMAP
0100
0100
ffff
0100
7ffe
0000
1ff8
1008
1ff8
0420
ffff
1000
7e7e
1242
2242
ce7e
ENDCHAR
STARTCHAR 3246
ENCODING 12870
SWIDTH 1016 0
DWIDTH 18 0
BBX 16 16 1 -2
BITMAP
0000
ffff
0100
1ff8
1008
1ff8
1008
1ff8
1008
1ff8
0400
0ff8
1810
6420
03c0
fc3f
ENDCHAR
STARTCHAR 3247
ENCODING 12871
SWIDTH 1016 0
DWIDTH 18 0
BBX 16 16 1 -2
BITMAP
2020
2020
23fe
fa02
2800
29fc
2840
68a2
4b26
5054
f090
1338
2854
2896
4313
8060
ENDCHAR
STARTCHAR 3248
ENCODING 12872
SWIDTH 1016 0
DWIDTH 18 0
BBX 16 16 1 -2
BITMAP
0100
0100
7ffe
4002
4002
1ff8
0200
0d06
718c
0698
1cc0
71e0
06b0
1c9c
f187
0700
ENDCHAR
STARTCHAR 3249
ENCODING 12873
SWIDTH 1016 0
DWIDTH 18 0
BBX 16 16 1 -2
BITMAP
0100
ffff
8001
bffd
0100
1ff8
1008
1ff8
1008
1ff8
1008
ffff
2004
dffb
0408
3838
ENDCHAR
STARTCHAR 324a
ENCODING 12874
SWIDTH 1016 0
DWIDTH 18 0
BBX 16 16 1 -2
BITMAP
0604
1cc4
f064
1024
1004
fe04
10c4
1064
3824
3404
5207
503c
91e4
1004
1004
1004
ENDCHAR
STARTCHAR 324b
ENCODING 12875
SWIDTH 1016 0
DWIDTH 18 0
BBX 16 16 1 -2
BITMAP
0000
07be
f482
9482
9482
97be
9400
f47e
97a2
9436
9414
941c
f788
041c
0436
0463
ENDCHAR
STARTCHAR 324c
ENCODING 12876
SWIDTH 1016 0
DWIDTH 18 0
BBX 16 16 1 -2
BITMAP
0000
3ffc
2104
2104
3ffc
2104
2104
3ffc
0100
ffff
0520
0d30
1918
310c
e107
0100
ENDCHAR
STARTCHAR 324d
ENCODING 12877
SWIDTH 1016 0
DWIDTH 18 0
BBX 16 16 1 -2
BITMAP
1000
103e
ff22
1122
1122
3122
2122
673e
c000
0100
ffff
0520
0d30
391c
e107
0100
ENDCHAR
STARTCHAR 324e
ENCODING 12878
SWIDTH 1016 0
DWIDTH 18 0
BBX 16 16 1 -2
BITMAP
0040
ff40
0440
747f
54c1
7493
0592
0c10
0010
ff38
0428
7428
546c
7444
04c6
0d83
ENDCHAR
STARTCHAR 324f
ENCODING 12879
SWIDTH 1016 0
DWIDTH 18 0
BBX 16 16 1 -2
BITMAP
6000
37ff
1004
0004
03c4
c244
6244
2244
0244
1244
13c4
3004
2004
6004
4004
c01c
ENDCHAR
STARTCHAR 3250
ENCODING 12880
SWIDTH 1016 0
DWIDTH 18 0
BBX 16 16 1 -2
BITMAP
0100
0100
0102
1106
1104
110c
3118
2110
6380
0280
06c0
0460
0c30
1818
300c
e007
ENDCHAR
STARTCHAR 3251
ENCODING 12881
SWIDTH 1016 0
DWIDTH 18 0
BBX 16 16 1 -2
BITMAP
0000
fbff
2004
2004
21e4
2124
f924
2124
2124
2124
21e4
2004
3804
e004
0004
001c
ENDCHAR
STARTCHAR 3252
ENCODING 12882
SWIDTH 1016 0
DWIDTH 18 0
BBX 16 16 1 -2
BITMAP
1000
10fc
1084
fcbc
04a4
0ca4
08a4
19fe
3102
7d7a
d74a
114a
114a
117a
1102
1106
ENDCHAR
STARTCHAR 3253
ENCODING 12883
SWIDTH 1016 0
DWIDTH 18 0
BBX 16 16 1 -2
BITMAP
0018
01f0
3f00
0100
0100
0100
ffff
0520
0d30
0910
1918
310c
6106
c103
0100
0100
ENDCHAR
STARTCHAR 3254
ENCODING 12884
SWIDTH 1016 0
DWIDTH 18 0
BBX 16 16 1 -2
BITMAP
0420
1c20
f3fe
1202
1000
fdfc
1040
10a2
3926
3454
5090
5338
905c
1096
1313
1060
ENDCHAR
STARTCHAR 3255
ENCODING 12885
SWIDTH 1016 0
DWIDTH 18 0
BBX 16 16 1 -2
BITMAP
2020
2020
7f7f
4890
8408
7ffe
4102
5ffa
4102
4102
4ff2
4812
4812
4ff2
4002
7ffe
ENDCHAR
STARTCHAR 3256
ENCODING 12886
SWIDTH 1016 0
DWIDTH 18 0
BBX 16 16 1 -2
BITMAP
0420
0420
ffff
0420
0420
0840
0840
1046
305c
5070
9040
1040
1040
1041
1063
103e
ENDCHAR
STARTCHAR 3257
ENCODING 12887
SWIDTH 1016 0
DWIDTH 18 0
BBX 16 16 1 -2
BITMAP
0420
0420
ffff
0420
0420
0000
ffff
0008
1f88
1088
1088
1088
1f88
0008
0008
0038
ENDCHAR
STARTCHAR 3258
ENCODING 12888
SWIDTH 1016 0
DWIDTH 18 0
BBX 16 16 1 -2
BITMAP
0420
0420
ffff
0420
0420
1000
103e
ff22
1122
1122
3122
2122
2322
6222
423e
ce00
ENDCHAR
STARTCHAR 3259
ENCODING 12889
SWIDTH 1016 0
DWIDTH 18 0
BBX 16 16 1 -2
BITMAP
0420
0420
ffff
0420
0420
1000
17ff
2008
23c8
6248
a248
2248
23c8
2008
2008
2038
ENDCHAR
STARTCHAR 325a
ENCODING 12890
SWIDTH 1016 0
DWIDTH 18 0
BBX 16 16 1 -2
BITMAP
0420
0420
ffff
0420
7ffe
1108
1108
ffff
1108
1108
7ffe
0100
0100
7ffe
0100
0100
ENDCHAR
STARTCHAR 325b
ENCODING 12891
SWIDTH 1016 0
DWIDTH 18 0
BBX 16 16 1 -2
BITMAP
0420
0420
ffff
0420
3ffc
2104
3ffc
2104
3ffc
0100
ffff
0520
0d30
391c
e107
0100
ENDCHAR
STARTCHAR 325c
ENCODING 12892
SWIDTH 1016 0
DWIDTH 18 0
BBX 16 16 1 -2
BITMAP
0000
23de
2242
2242
fa42
abde
aa00
aa3e
abd2
fa16
2214
2bdc
2a08
7a1c
ca36
0263
ENDCHAR
STARTCHAR 325d
ENCODING 12893
SWIDTH 1016 0
DWIDTH 18 0
BBX 16 16 1 -2
BITMAP
0000
79fe
0122
fd22
01fe
7922
0122
01fe
7820
03ff
00a8
78ac
49a4
4926
4b23
7820
ENDCHAR
STARTCHAR 325e
ENCODING 12894
SWIDTH 1016 0
DWIDTH 18 0
BBX 16 16 1 -2
BITMAP
0088
0088
f7ff
9088
93fe
9124
9124
97ff
9124
9124
93fe
f020
0020
07ff
0020
0020
ENDCHAR
STARTCHAR 325f
ENCODING 12895
SWIDTH 1016 0
DWIDTH 18 0
BBX 16 16 1 -2
BITMAP
0440
0c46
387c
e840
0842
083e
0000
1ff8
1008
1ff8
1008
1ff8
1008
1ff8
0810
700e
ENDCHAR
STARTCHAR 3260
ENCODING 12896
SWIDTH 1016 0
DWIDTH 18 0
BBX 16 16 1 -2
BITMAP
0200
c200
621e
2fd2
0252
0252
0252
e252
2252
2652
2452
24d2
2c9e
6180
5000
cfff
ENDCHAR
STARTCHAR 3261
ENCODING 12897
SWIDTH 1016 0
DWIDTH 18 0
BBX 16 16 1 -2
BITMAP
03fc
6204
327c
1244
0244
0244
07fe
e402
25fa
250a
250a
25fa
2402
6406
5000
cfff
ENDCHAR
STARTCHAR 3262
ENCODING 12898
SWIDTH 1016 0
DWIDTH 18 0
BBX 16 16 1 -2
BITMAP
7ffe
0100
ffff
8101
bd3d
0100
3d3c
0000
7efe
4202
7efe
4000
7cfe
4044
7c38
41c7
ENDCHAR
STARTCHAR 3263
ENCODING 12899
SWIDTH 1016 0
DWIDTH 18 0
BBX 16 16 1 -2
BITMAP
1010
1010
1010
ffff
9244
9244
9244
926c
9228
fe38
1010
1438
1428
1e6c
72c6
c183
ENDCHAR
STARTCHAR 3264
ENCODING 12900
SWIDTH 1016 0
DWIDTH 18 0
BBX 16 16 1 -2
BITMAP
10d4
1196
3712
2110
2110
6fff
6110
a112
2112
21d6
2f14
211c
2109
211d
2137
2762
ENDCHAR
STARTCHAR 3265
ENCODING 12901
SWIDTH 1016 0
DWIDTH 18 0
BBX 16 16 1 -2
BITMAP
20d4
2196
2712
2110
a910
afff
a910
a912
a912
a9d6
af14
a91c
f909
011d
0137
0762
ENDCHAR
STARTCHAR 3266
ENCODING 12902
SWIDTH 1016 0
DWIDTH 18 0
BBX 16 16 1 -2
BITMAP
0340
0e4c
7846
0842
0840
ffff
0840
0842
0866
0f2c
f838
0810
0839
086d
08c7
3b82
ENDCHAR
STARTCHAR 3267
ENCODING 12903
SWIDTH 1016 0
DWIDTH 18 0
BBX 16 16 1 -2
BITMAP
0000
7ffe
0810
0810
0810
0810
0810
ffff
0090
0190
0310
0610
0c10
3810
e010
0070
ENDCHAR
STARTCHAR 3268
ENCODING 12904
SWIDTH 1016 0
DWIDTH 18 0
BBX 16 16 1 -2
BITMAP
0000
ffff
0100
0100
4ff2
4912
4912
4912
4ff2
4912
4912
4912
4ff2
4002
7ffe
0000
ENDCHAR
STARTCHAR 3269
ENCODING 12905
SWIDTH 1016 0
DWIDTH 18 0
BBX 16 16 1 -2
BITMAP
0010
7f10
4810
4810
4810
7f10
4110
4138
4128
7f28
4828
486c
4844
4844
7fc6
0083
ENDCHAR
STARTCHAR 326a
ENCODING 12906
SWIDTH 1016 0
DWIDTH 18 0
BBX 16 16 1 -2
BITMAP
0420
0420
ffff
0420
0000
7ffe
0810
0810
0810
ffff
00d0
0190
0710
1c10
f010
0070
ENDCHAR
STARTCHAR 326b
ENCODING 12907
SWIDTH 1016 0
DWIDTH 18 0
BBX 16 16 1 -2
BITMAP
2054
2096
2392
f890
a890
abff
a890
a892
f892
20d4
2394
2898
2889
788d
c897
03a2
ENDCHAR
STARTCHAR 326c
ENCODING 12908
SWIDTH 1016 0
DWIDTH 18 0
BBX 16 16 1 -2
BITMAP
1000
107e
ff42
1142
3142
677e
c000
1ff8
1008
1ff8
1008
1ff8
1008
1ff8
0810
700e
ENDCHAR
STARTCHAR 326d
ENCODING 12909
SWIDTH 1016 0
DWIDTH 18 0
BBX 16 16 1 -2
BITMAP
0022
7e26
2424
247f
24c8
2548
2448
ff7e
1448
1448
1448
347e
2448
6448
c448
1c7f
ENDCHAR
STARTCHAR 326e
ENCODING 12910
SWIDTH 1016 0
DWIDTH 18 0
BBX 16 16 1 -2
BITMAP
102a
3849
2dc9
6448
d048
7dff
4448
7c49
4449
7c6a
41ca
484c
4845
5c45
744b
c1d1
ENDCHAR
STARTCHAR 326f
ENCODING 12911
SWIDTH 1016 0
DWIDTH 18 0
BBX 16 16 1 -2
BITMAP
1000
ff7f
1141
3141
677f
c000
1ffc
1080
1ff8
1080
1ff8
1080
1ffe
4922
c492
8006
ENDCHAR
STARTCHAR 3270
ENCODING 12912
SWIDTH 1016 0
DWIDTH 18 0
BBX 16 16 1 -2
BITMAP
0100
0380
06c0
0c60
1830
381c
e817
0810
0810
0810
0810
0810
1810
1010
3010
6010
ENDCHAR
STARTCHAR 3271
ENCODING 12913
SWIDTH 1016 0
DWIDTH 18 0
BBX 16 16 1 -2
BITMAP
0100
0380
06c0
0c70
381c
e007
1ff8
0000
0000
ffff
0400
0410
0c10
08f8
1f8c
7006
ENDCHAR
STARTCHAR 3272
ENCODING 12914
SWIDTH 1016 0
DWIDTH 18 0
BBX 16 16 1 -2
BITMAP
2000
3efe
6222
4422
ff62
49ce
4900
7f28
4928
497e
7f48
4108
41ff
4108
c108
8708
ENDCHAR
STARTCHAR 3273
ENCODING 12915
SWIDTH 1016 0
DWIDTH 18 0
BBX 16 16 1 -2
BITMAP
0000
7ffe
4002
4002
4002
47e2
4422
4422
4422
4422
47e2
4002
4002
4002
7ffe
0000
ENDCHAR
STARTCHAR 3274
ENCODING 12916
SWIDTH 1016 0
DWIDTH 18 0
BBX 16 16 1 -2
BITMAP
2020
2040
23fe
2222
fa22
23fe
2222
2222
23fe
2090
3894
6095
c19f
0110
0311
0e0f
ENDCHAR
STARTCHAR 3275
ENCODING 12917
SWIDTH 1016 0
DWIDTH 18 0
BBX 16 16 1 -2
BITMAP
2020
2020
27ff
2020
fbfe
2292
2292
23fe
2020
27ff
3890
6199
c30a
0d0c
01e6
0703
ENDCHAR
STARTCHAR 3276
ENCODING 12918
SWIDTH 1016 0
DWIDTH 18 0
BBX 16 16 1 -2
BITMAP
0000
fdfe
0902
1102
217a
794a
094a
094a
494a
697a
2902
3902
11fe
3800
6e00
c3ff
ENDCHAR
STARTCHAR 3277
ENCODING 12919
SWIDTH 1016 0
DWIDTH 18 0
BBX 16 16 1 -2
BITMAP
1040
1040
1040
13fc
5844
5444
5444
d044
97ff
10a0
10a0
10b0
1190
1118
130c
1607
ENDCHAR
STARTCHAR 3278
ENCODING 12920
SWIDTH 1016 0
DWIDTH 18 0
BBX 16 16 1 -2
BITMAP
1000
17fc
1104
118c
58d8
5470
54d8
d18c
9727
1020
13fe
1020
1020
1020
17ff
1000
ENDCHAR
STARTCHAR 3279
ENCODING 12921
SWIDTH 1016 0
DWIDTH 18 0
BBX 16 16 1 -2
BITMAP
1100
1100
13fe
1200
5400
59fc
5524
d124
9124
1fff
1244
1244
1244
13ff
1008
1038
ENDCHAR
STARTCHAR 327a
ENCODING 12922
SWIDTH 1016 0
DWIDTH 18 0
BBX 16 16 1 -2
BITMAP
2000
27ff
2400
2420
a422
b4a6
aca4
a5ac
2528
2420
2470
2450
24d8
288c
2186
2303
ENDCHAR
STARTCHAR 327b
ENCODING 12923
SWIDTH 1016 0
DWIDTH 18 0
BBX 16 16 1 -2
BITMAP
2020
2020
27ff
2020
b3fe
aa92
aa92
a3fe
2020
27ff
2090
2199
230a
2d0c
21e6
2703
ENDCHAR
STARTCHAR 327c
ENCODING 12924
SWIDTH 1016 0
DWIDTH 18 0
BBX 16 16 1 -2
BITMAP
004c
0046
0042
ffff
0040
1240
1262
1226
7fac
1238
1210
3238
2269
62cd
c187
0702
ENDCHAR
STARTCHAR 327d
ENCODING 12925
SWIDTH 1016 0
DWIDTH 18 0
BBX 16 16 1 -2
BITMAP
2000
21fc
2104
2104
f904
21fc
2000
2000
3bfe
e042
2042
20c2
2082
2186
2304
661c
ENDCHAR
STARTCHAR 327e
ENCODING 12926
SWIDTH 1016 0
DWIDTH 18 0
BBX 16 16 1 -2
BITMAP
0040
0040
fe40
027f
0244
02c4
7ea4
41ac
4028
4038
4010
4238
6228
3e6c
00c6
0183
ENDCHAR
STARTCHAR 3321
ENCODING 13089
SWIDTH 1016 0
DWIDTH 18 0
BBX 16 16 1 -2
BITMAP
0804
1064
7f34
4914
4904
7f64
4934
4914
7f07
247c
2504
2544
27c4
6405
4603
c3fe
ENDCHAR
STARTCHAR 3322
ENCODING 13090
SWIDTH 1016 0
DWIDTH 18 0
BBX 16 16 1 -2
BITMAP
0100
0100
7bfe
4a00
4c00
49fc
4924
7924
4924
4fff
4a44
4a44
7a44
03ff
0008
0038
ENDCHAR
STARTCHAR 3323
ENCODING 13091
SWIDTH 1016 0
DWIDTH 18 0
BBX 16 16 1 -2
BITMAP
1014
1012
1010
fdff
1010
1150
3952
3552
33f6
5154
515c
9148
115d
1235
1067
11c2
ENDCHAR
STARTCHAR 3324
ENCODING 13092
SWIDTH 1016 0
DWIDTH 18 0
BBX 16 16 1 -2
BITMAP
0100
6100
33fe
1200
0600
c1fc
6124
2124
0124
17ff
1244
3244
2244
63ff
4008
c038
ENDCHAR
STARTCHAR 3325
ENCODING 13093
SWIDTH 1016 0
DWIDTH 18 0
BBX 16 16 1 -2
BITMAP
0000
3ffe
2000
2080
2082
2486
248c
2c88
2880
21c0
6140
4360
4230
c618
0c0c
3807
ENDCHAR
STARTCHAR 3326
ENCODING 13094
SWIDTH 1016 0
DWIDTH 18 0
BBX 16 16 1 -2
BITMAP
0000
3ffc
2104
2104
3ffc
2104
2104
3ffc
0420
0c30
381c
e817
0810
0810
1810
3010
ENDCHAR
STARTCHAR 3327
ENCODING 13095
SWIDTH 1016 0
DWIDTH 18 0
BBX 16 16 1 -2
BITMAP
2040
2046
3e7c
2040
2041
2043
3e7e
e080
0100
1ff8
1008
1008
1ff8
1008
1008
1ff8
ENDCHAR
STARTCHAR 3328
ENCODING 13096
SWIDTH 1016 0
DWIDTH 18 0
BBX 16 16 1 -2
BITMAP
1020
3070
6058
c4cc
6d86
1b03
30fc
6400
fc00
15fe
1040
5440
54c4
d484
90be
11e2
ENDCHAR
STARTCHAR 3329
ENCODING 13097
SWIDTH 1016 0
DWIDTH 18 0
BBX 16 16 1 -2
BITMAP
0810
0810
ffff
0810
0910
0380
06c0
0c70
381c
e817
0810
0810
1810
1010
3010
6010
ENDCHAR
STARTCHAR 332a
ENCODING 13098
SWIDTH 1016 0
DWIDTH 18 0
BBX 16 16 1 -2
BITMAP
3c7e
4412
ff32
4966
7f28
493e
7f48
41ff
c708
8108
7ffe
4102
7ffe
0104
07fe
fc03
ENDCHAR
STARTCHAR 332b
ENCODING 13099
SWIDTH 1016 0
DWIDTH 18 0
BBX 16 16 1 -2
BITMAP
0000
7e7e
4242
7e7e
4242
7e7e
4002
4ff2
4242
4242
5ffa
4242
4242
4642
4c42
400e
ENDCHAR
STARTCHAR 332c
ENCODING 13100
SWIDTH 1016 0
DWIDTH 18 0
BBX 16 16 1 -2
BITMAP
0110
7d13
45de
4d10
4910
5911
51cf
4b10
4420
45fe
4502
4502
59fe
4102
4102
41fe
ENDCHAR
STARTCHAR 332d
ENCODING 13101
SWIDTH 1016 0
DWIDTH 18 0
BBX 16 16 1 -2
BITMAP
0000
1ff8
1008
1008
1ff8
1008
1008
1008
1ff8
1008
1008
1008
1ff8
0810
1818
700e
ENDCHAR
STARTCHAR 332e
ENCODING 13102
SWIDTH 1016 0
DWIDTH 18 0
BBX 16 16 1 -2
BITMAP
0800
493c
4924
7f24
0024
ffa4
0024
7f24
4124
4124
7f24
2224
2224
17a5
3c65
e0c3
ENDCHAR
STARTCHAR 332f
ENCODING 13103
SWIDTH 1016 0
DWIDTH 18 0
BBX 16 16 1 -2
BITMAP
0810
0810
0810
ff90
107f
3011
6211
3611
0c11
1911
3311
c631
0c23
1a22
3162
c0ce
ENDCHAR
STARTCHAR 3330
ENCODING 13104
SWIDTH 1016 0
DWIDTH 18 0
BBX 16 16 1 -2
BITMAP
1020
1020
1f20
1120
3120
2130
6138
d32c
0a26
0623
0420
0c20
1820
3020
6020
c020
ENDCHAR
STARTCHAR 3331
ENCODING 13105
SWIDTH 1016 0
DWIDTH 18 0
BBX 16 16 1 -2
BITMAP
0020
0020
f820
8fff
8840
88c8
8998
8b12
89b6
8864
88cc
f998
0730
006c
01c6
0f03
ENDCHAR
STARTCHAR 3332
ENCODING 13106
SWIDTH 1016 0
DWIDTH 18 0
BBX 16 16 1 -2
BITMAP
0100
0100
7ffe
4002
4102
3ffc
0100
3ffc
0100
ffff
0000
1ff8
1008
1008
1008
1ff8
ENDCHAR
STARTCHAR 3333
ENCODING 13107
SWIDTH 1016 0
DWIDTH 18 0
BBX 16 16 1 -2
BITMAP
2082
2082
3ffe
0000
7fff
4000
4080
4ffc
4080
5ffe
4000
4080
cffc
8080
bfff
0000
ENDCHAR
STARTCHAR 3334
ENCODING 13108
SWIDTH 1016 0
DWIDTH 18 0
BBX 16 16 1 -2
BITMAP
2000
27be
2494
2494
a794
b494
ac94
a7bf
2404
2404
248c
248c
24d4
2755
2c25
2043
ENDCHAR
STARTCHAR 3335
ENCODING 13109
SWIDTH 1016 0
DWIDTH 18 0
BBX 16 16 1 -2
BITMAP
2000
27be
2494
2494
ff94
2494
2494
77bf
6c04
6404
a48c
248c
24d4
2755
2c25
2043
ENDCHAR
STARTCHAR 3336
ENCODING 13110
SWIDTH 1016 0
DWIDTH 18 0
BBX 16 16 1 -2
BITMAP
0000
67ff
3400
1410
04fe
c410
6410
25ff
0400
0410
24fe
2c10
6810
5810
c1ff
0000
ENDCHAR
STARTCHAR 3337
ENCODING 13111
SWIDTH 1016 0
DWIDTH 18 0
BBX 16 16 1 -2
BITMAP
00fc
fe84
1084
10fc
3084
2084
3cfc
6400
67ff
a404
27ff
2484
2444
3c44
0004
001c
ENDCHAR
STARTCHAR 3338
ENCODING 13112
SWIDTH 1016 0
DWIDTH 18 0
BBX 16 16 1 -2
BITMAP
0810
0810
ffff
0810
0100
3ffc
0100
ffff
0808
1004
7ffa
0000
3ffc
2444
2444
ffff
ENDCHAR
STARTCHAR 3339
ENCODING 13113
SWIDTH 1016 0
DWIDTH 18 0
BBX 16 16 1 -2
BITMAP
1100
311e
2fe0
6100
c100
0fe0
101f
3104
6104
efe4
2104
2104
2104
21e4
2f04
201c
ENDCHAR
STARTCHAR 333a
ENCODING 13114
SWIDTH 1016 0
DWIDTH 18 0
BBX 16 16 1 -2
BITMAP
0010
7c10
0010
feff
0020
7c60
00c4
006c
7c18
0032
0066
7ccc
4418
4434
4466
7cc3
ENDCHAR
STARTCHAR 333b
ENCODING 13115
SWIDTH 1016 0
DWIDTH 18 0
BBX 16 16 1 -2
BITMAP
1010
3892
2c92
66fe
4000
fdff
1000
10fe
fe82
1082
94fe
d444
506c
1c28
71ff
c000
ENDCHAR
STARTCHAR 333c
ENCODING 13116
SWIDTH 1016 0
DWIDTH 18 0
BBX 16 16 1 -2
BITMAP
0010
7e10
4210
5eff
5210
5230
ff64
812c
7e18
4232
7e66
42cc
7e18
4234
4266
46c3
ENDCHAR
STARTCHAR 333d
ENCODING 13117
SWIDTH 1016 0
DWIDTH 18 0
BBX 16 16 1 -2
BITMAP
0000
63fe
3222
1222
03fe
c222
6222
2222
03fe
1020
3020
23fe
6020
4020
c7ff
0000
ENDCHAR
STARTCHAR 333e
ENCODING 13118
SWIDTH 1016 0
DWIDTH 18 0
BBX 16 16 1 -2
BITMAP
083c
ffa4
0847
ffbc
4924
7f18
4064
9fc3
0100
ffff
0910
3ffc
d00b
1ff8
1008
1ff8
ENDCHAR
STARTCHAR 333f
ENCODING 13119
SWIDTH 1016 0
DWIDTH 18 0
BBX 16 16 1 -2
BITMAP
1010
1010
10fe
fe10
9210
9210
93ff
9200
fe10
1010
14fe
1410
1e10
7210
c1ff
0000
ENDCHAR
STARTCHAR 3340
ENCODING 13120
SWIDTH 1016 0
DWIDTH 18 0
BBX 16 16 1 -2
BITMAP
2000
23fe
2000
2000
f9fc
2104
2104
21fc
2104
2104
3904
61fc
c000
0000
07ff
0000
ENDCHAR
STARTCHAR 3341
ENCODING 13121
SWIDTH 1016 0
DWIDTH 18 0
BBX 16 16 1 -2
BITMAP
1020
1020
1020
ffff
1020
1020
33fe
3a22
3622
5222
5222
9222
122e
1020
1020
1020
ENDCHAR
STARTCHAR 3342
ENCODING 13122
SWIDTH 1016 0
DWIDTH 18 0
BBX 16 16 1 -2
BITMAP
2000
21ff
2100
f900
a9ff
a920
a920
a93e
f922
2122
2922
3b22
6a62
c646
0cc4
019c
ENDCHAR
STARTCHAR 3343
ENCODING 13123
SWIDTH 1016 0
DWIDTH 18 0
BBX 16 16 1 -2
BITMAP
1040
3840
2c40
66fe
4082
fd82
1042
1042
fed2
1092
94fa
d58a
5002
1c06
7004
c01c
ENDCHAR
STARTCHAR 3344
ENCODING 13124
SWIDTH 1016 0
DWIDTH 18 0
BBX 16 16 1 -2
BITMAP
0802
7f92
0892
ffd2
0892
7f92
0812
7f92
0812
ffd2
4892
7f82
4882
7f82
0002
ffce
ENDCHAR
STARTCHAR 3345
ENCODING 13125
SWIDTH 1016 0
DWIDTH 18 0
BBX 16 16 1 -2
BITMAP
0208
0208
efbe
a208
a208
a208
bfff
a514
a514
b5b6
f555
1555
2514
0924
0924
134c
ENDCHAR
STARTCHAR 3346
ENCODING 13126
SWIDTH 1016 0
DWIDTH 18 0
BBX 16 16 1 -2
BITMAP
0400
0400
0ff0
1810
3c30
e660
03c0
0660
1c38
f00f
1ff8
1008
1008
1008
1008
1ff8
ENDCHAR
STARTCHAR 3347
ENCODING 13127
SWIDTH 1016 0
DWIDTH 18 0
BBX 16 16 1 -2
BITMAP
0080
0080
7fff
4200
5fde
4012
4f92
4894
4f94
4012
5f92
4112
c3d2
9e16
8210
0e10
ENDCHAR
STARTCHAR 3348
ENCODING 13128
SWIDTH 1016 0
DWIDTH 18 0
BBX 16 16 1 -2
BITMAP
2020
2020
2020
23ff
fa00
2220
2220
2220
3a60
e244
2244
2246
22c2
2682
249f
6df1
ENDCHAR
STARTCHAR 3349
ENCODING 13129
SWIDTH 1016 0
DWIDTH 18 0
BBX 16 16 1 -2
BITMAP
2242
2366
2124
27ff
fc01
25fd
2104
21fc
3904
e1fc
2104
21fc
2090
2091
2193
670e
ENDCHAR
STARTCHAR 334a
ENCODING 13130
SWIDTH 1016 0
DWIDTH 18 0
BBX 16 16 1 -2
BITMAP
1040
1040
10fc
fc84
11cc
1358
3830
3478
30cc
5387
50fc
9084
1084
1084
1084
10fc
ENDCHAR
STARTCHAR 334b
ENCODING 13131
SWIDTH 1016 0
DWIDTH 18 0
BBX 16 16 1 -2
BITMAP
1020
1020
1020
ffff
1040
10c0
3188
38d8
3430
5064
50cc
9398
1030
106c
10c6
1383
ENDCHAR
STARTCHAR 334c
ENCODING 13132
SWIDTH 1016 0
DWIDTH 18 0
BBX 16 16 1 -2
BITMAP
1000
103c
ff24
1024
1024
7e47
0000
ff7e
8122
bd26
2424
242c
2518
663c
4466
c0c3
ENDCHAR
STARTCHAR 334d
ENCODING 13133
SWIDTH 1016 0
DWIDTH 18 0
BBX 16 16 1 -2
BITMAP
0888
8fff
5088
2110
23ff
5620
9bfe
1220
33fe
5220
93ff
1000
17fe
108c
3070
e78f
ENDCHAR
STARTCHAR 334e
ENCODING 13134
SWIDTH 1016 0
DWIDTH 18 0
BBX 16 16 1 -2
BITMAP
0020
0020
fdff
1121
1165
3048
20fe
3d90
6690
64fe
a490
2490
24fe
2490
3c90
00ff
ENDCHAR
STARTCHAR 334f
ENCODING 13135
SWIDTH 1016 0
DWIDTH 18 0
BBX 16 16 1 -2
BITMAP
0444
1bff
f044
1090
11ff
ff10
11fe
3910
35fe
3510
51ff
5000
93fe
1084
1078
1387
ENDCHAR
STARTCHAR 3350
ENCODING 13136
SWIDTH 1016 0
DWIDTH 18 0
BBX 16 16 1 -2
BITMAP
2204
330c
1108
7ffe
4002
5ffa
1008
1ff8
1008
1ff8
1008
1ff8
0420
0c21
3833
e01e
ENDCHAR
STARTCHAR 3351
ENCODING 13137
SWIDTH 1016 0
DWIDTH 18 0
BBX 16 16 1 -2
BITMAP
0400
0ff0
1820
3040
dffc
1084
1084
1ffc
1084
1084
1ffc
1004
3004
2004
6004
c01c
ENDCHAR
STARTCHAR 3352
ENCODING 13138
SWIDTH 1016 0
DWIDTH 18 0
BBX 16 16 1 -2
BITMAP
0810
0810
7efe
0810
0810
0810
ffff
1428
562a
556a
d4ab
9429
1428
3468
2448
6cd8
ENDCHAR
STARTCHAR 3353
ENCODING 13139
SWIDTH 1016 0
DWIDTH 18 0
BBX 16 16 1 -2
BITMAP
1010
1010
fe10
11ff
7c44
54c6
5583
7c44
546c
5428
7c38
1010
fe38
106c
10c6
1183
ENDCHAR
STARTCHAR 3354
ENCODING 13140
SWIDTH 1016 0
DWIDTH 18 0
BBX 16 16 1 -2
BITMAP
0800
083e
ffa2
0026
7f24
412c
7f28
0024
ff22
0622
1822
0fa2
f822
082c
0820
3820
ENDCHAR
STARTCHAR 3355
ENCODING 13141
SWIDTH 1016 0
DWIDTH 18 0
BBX 16 16 1 -2
BITMAP
0000
7e7e
4242
7e7e
4242
7e7e
4202
47e2
4c42
4382
4662
581a
47e2
4422
47e2
400e
ENDCHAR
STARTCHAR 3356
ENCODING 13142
SWIDTH 1016 0
DWIDTH 18 0
BBX 16 16 1 -2
BITMAP
0000
7bfe
4800
49fc
4904
51fc
5000
4bfe
4a52
4a92
4b0e
4a02
5afa
4222
4222
4226
ENDCHAR
STARTCHAR 3357
ENCODING 13143
SWIDTH 1016 0
DWIDTH 18 0
BBX 16 16 1 -2
BITMAP
0820
0820
ffff
0820
0820
0fe0
0100
3ff8
2108
2108
3ff8
0100
ffff
0100
0100
0100
ENDCHAR
STARTCHAR 3358
ENCODING 13144
SWIDTH 1016 0
DWIDTH 18 0
BBX 16 16 1 -2
BITMAP
2204
330c
1108
7ffe
4002
4002
1ff8
0030
00c0
0100
ffff
0100
0100
0100
0100
0700
ENDCHAR
STARTCHAR 3359
ENCODING 13145
SWIDTH 1016 0
DWIDTH 18 0
BBX 16 16 1 -2
BITMAP
0018
00f0
1f80
1000
1ffe
1010
1010
1010
ffff
0100
0100
2104
2104
2104
3ffc
0000
ENDCHAR
STARTCHAR 335a
ENCODING 13146
SWIDTH 1016 0
DWIDTH 18 0
BBX 16 16 1 -2
BITMAP
0080
6106
37ec
0420
0420
07e0
0420
342c
67e6
0100
ffff
0540
0d60
3938
e10f
0100
ENDCHAR
STARTCHAR 335b
ENCODING 13147
SWIDTH 1016 0
DWIDTH 18 0
BBX 16 16 1 -2
BITMAP
1000
11ff
fe10
82fe
a282
3c82
44fe
a882
1082
28fe
c682
7c82
44fe
4444
7cc6
0183
ENDCHAR
STARTCHAR 335c
ENCODING 13148
SWIDTH 1016 0
DWIDTH 18 0
BBX 16 16 1 -2
BITMAP
0000
eeff
aa10
aa7e
ee42
0042
7c7e
0042
fe42
107e
2042
7c42
047e
0424
0c66
38c3
ENDCHAR
STARTCHAR 335d
ENCODING 13149
SWIDTH 1016 0
DWIDTH 18 0
BBX 16 16 1 -2
BITMAP
2084
2084
23e4
2084
f884
27f4
2006
2085
3885
e3e4
2084
2084
2084
20f4
2784
6004
ENDCHAR
STARTCHAR 335e
ENCODING 13150
SWIDTH 1016 0
DWIDTH 18 0
BBX 16 16 1 -2
BITMAP
1020
1020
3f7f
4850
8488
0508
0100
7ffe
0000
1008
1818
0810
0830
0020
ffff
0000
ENDCHAR
STARTCHAR 335f
ENCODING 13151
SWIDTH 1016 0
DWIDTH 18 0
BBX 16 16 1 -2
BITMAP
2000
27c0
253e
fd12
27d6
245c
37c8
6d1c
6536
67c3
a020
23fe
2020
2020
27ff
2000
ENDCHAR
STARTCHAR 3360
ENCODING 13152
SWIDTH 1016 0
DWIDTH 18 0
BBX 16 16 1 -2
BITMAP
2000
27ff
2000
f9fc
2124
21fc
6124
77ff
6800
a1fc
a124
21fc
2124
21fc
2000
27ff
ENDCHAR
STARTCHAR 3361
ENCODING 13153
SWIDTH 1016 0
DWIDTH 18 0
BBX 16 16 1 -2
BITMAP
1000
13fe
1202
fe02
13fe
1200
3a1c
36f0
3220
53fe
5220
93ff
1220
1221
1433
101e
ENDCHAR
STARTCHAR 3362
ENCODING 13154
SWIDTH 1016 0
DWIDTH 18 0
BBX 16 16 1 -2
BITMAP
2028
3ce8
6789
48a9
fcab
57ea
54aa
7c88
55c8
56a8
7c9c
0094
0094
aa96
aab2
80a3
ENDCHAR
STARTCHAR 3363
ENCODING 13155
SWIDTH 1016 0
DWIDTH 18 0
BBX 16 16 1 -2
BITMAP
00c0
639e
3202
1202
03de
c202
6202
23fe
0100
13ff
1601
3c09
22a5
62a3
4402
c00e
ENDCHAR
STARTCHAR 3364
ENCODING 13156
SWIDTH 1016 0
DWIDTH 18 0
BBX 16 16 1 -2
BITMAP
0802
0812
ff92
8092
8892
7f12
0812
7f12
0812
ff92
0012
7f02
4102
4102
4102
7f0e
ENDCHAR
STARTCHAR 3365
ENCODING 13157
SWIDTH 1016 0
DWIDTH 18 0
BBX 16 16 1 -2
BITMAP
03fc
0204
f204
93fc
9204
9204
93fc
9100
91ff
9301
f631
0fe1
0201
0213
01f2
000e
ENDCHAR
STARTCHAR 3366
ENCODING 13158
SWIDTH 1016 0
DWIDTH 18 0
BBX 16 16 1 -2
BITMAP
1020
1070
1050
18d8
558c
5306
5603
d1fc
9000
1000
11fc
1104
1104
1104
1104
11fc
ENDCHAR
STARTCHAR 3367
ENCODING 13159
SWIDTH 1016 0
DWIDTH 18 0
BBX 16 16 1 -2
BITMAP
1006
101c
11f0
1010
fc10
1010
11ff
1010
1c10
f010
10fe
1082
1082
1082
1082
70fe
ENDCHAR
STARTCHAR 3368
ENCODING 13160
SWIDTH 1016 0
DWIDTH 18 0
BBX 16 16 1 -2
BITMAP
0006
603c
33e0
1020
0020
c020
67ff
2020
0020
1020
13fe
3202
2202
6202
4202
c3fe
ENDCHAR
STARTCHAR 3369
ENCODING 13161
SWIDTH 1016 0
DWIDTH 18 0
BBX 16 16 1 -2
BITMAP
63fc
3204
1204
03fc
0204
c204
63fc
2100
01ff
1301
1631
3fe1
2201
6213
41f2
c00e
ENDCHAR
STARTCHAR 336a
ENCODING 13162
SWIDTH 1016 0
DWIDTH 18 0
BBX 16 16 1 -2
BITMAP
61fc
3104
113c
0124
0124
c7ff
6401
2401
01fc
1104
11fc
3104
21fc
6104
4104
c11c
ENDCHAR
STARTCHAR 336b
ENCODING 13163
SWIDTH 1016 0
DWIDTH 18 0
BBX 16 16 1 -2
BITMAP
0420
0420
ffff
0420
1ff8
1008
1ff8
1008
1ff8
0800
1ffe
3002
df82
1026
0fe4
001c
ENDCHAR
STARTCHAR 336c
ENCODING 13164
SWIDTH 1016 0
DWIDTH 18 0
BBX 16 16 1 -2
BITMAP
21fc
2104
2104
f9fc
0904
1904
11fc
3480
68ff
b181
2b31
25e1
2101
2113
20f2
200e
ENDCHAR
STARTCHAR 336d
ENCODING 13165
SWIDTH 1016 0
DWIDTH 18 0
BBX 16 16 1 -2
BITMAP
1010
1010
ffff
1101
7d11
54fe
5410
7cfe
5410
55ff
7c00
10fe
fe82
1082
1082
10fe
ENDCHAR
STARTCHAR 336e
ENCODING 13166
SWIDTH 1016 0
DWIDTH 18 0
BBX 16 16 1 -2
BITMAP
0000
1ff8
1008
1008
1008
1ff8
1008
1008
1008
1ff8
1008
1008
1008
1008
ffff
0000
ENDCHAR
STARTCHAR 336f
ENCODING 13167
SWIDTH 1016 0
DWIDTH 18 0
BBX 16 16 1 -2
BITMAP
2000
3de0
655e
494a
fdea
552e
55e4
7d4e
555a
55e3
7c10
00fe
aa10
aa10
81ff
0000
ENDCHAR
STARTCHAR 3370
ENCODING 13168
SWIDTH 1016 0
DWIDTH 18 0
BBX 16 16 1 -2
BITMAP
0020
0020
f820
8820
8820
8820
8bff
8820
8820
8820
8820
f820
0020
0020
0020
0020
ENDCHAR
STARTCHAR 3371
ENCODING 13169
SWIDTH 1016 0
DWIDTH 18 0
BBX 16 16 1 -2
BITMAP
1088
1088
13ff
fc88
1088
1050
38d0
3493
3196
539c
5690
9090
1090
1091
1093
108e
ENDCHAR
STARTCHAR 3372
ENCODING 13170
SWIDTH 1016 0
DWIDTH 18 0
BBX 16 16 1 -2
BITMAP
2088
2088
27ff
f888
23fe
2124
6124
77ff
6924
a124
a3fe
2020
27ff
2020
2020
2020
ENDCHAR
STARTCHAR 3373
ENCODING 13171
SWIDTH 1016 0
DWIDTH 18 0
BBX 16 16 1 -2
BITMAP
4440
4440
fe40
44fe
4482
7df2
1012
fe12
92f2
9286
fe84
109c
fe80
1081
10c3
107e
ENDCHAR
STARTCHAR 3374
ENCODING 13172
SWIDTH 1016 0
DWIDTH 18 0
BBX 16 16 1 -2
BITMAP
1020
1120
1120
fd20
13fe
1a20
3420
3020
37ff
50a8
50a8
91ac
1124
1326
1623
1020
ENDCHAR
STARTCHAR 3375
ENCODING 13173
SWIDTH 1016 0
DWIDTH 18 0
BBX 16 16 1 -2
BITMAP
0880
190e
77e2
4422
4422
47e2
4422
4422
77ee
0000
0440
0440
0c40
1841
3063
e03e
ENDCHAR
STARTCHAR 3376
ENCODING 13174
SWIDTH 1016 0
DWIDTH 18 0
BBX 16 16 1 -2
BITMAP
0100
7ffe
4912
f7df
0100
ffff
2104
3ffc
2104
7ffe
4102
7ffe
4102
7ffe
0101
00ff
ENDCHAR
STARTCHAR 3377
ENCODING 13175
SWIDTH 1016 0
DWIDTH 18 0
BBX 16 16 1 -2
BITMAP
0420
0420
ffff
0424
6022
37ff
1020
c3fe
6222
23fe
0222
13fe
3222
2222
6222
c226
ENDCHAR
STARTCHAR 3378
ENCODING 13176
SWIDTH 1016 0
DWIDTH 18 0
BBX 16 16 1 -2
BITMAP
0240
0660
1c38
766e
03c0
0660
1c38
f7ef
0100
0100
7ffe
1108
1918
0910
ffff
0000
ENDCHAR
STARTCHAR 3379
ENCODING 13177
SWIDTH 1016 0
DWIDTH 18 0
BBX 16 16 1 -2
BITMAP
1084
3848
2fff
6450
41fe
fc52
1052
13ff
fc52
1052
95fe
d458
50d4
1d56
f253
0050
ENDCHAR
STARTCHAR 337a
ENCODING 13178
SWIDTH 1016 0
DWIDTH 18 0
BBX 16 16 1 -2
BITMAP
0020
0120
f13e
9120
9120
97ff
9202
92aa
9222
92fa
9222
f272
02aa
0222
0202
03fe
ENDCHAR
STARTCHAR 337b
ENCODING 13179
SWIDTH 1016 0
DWIDTH 18 0
BBX 16 16 1 -2
BITMAP
0010
fe20
92fe
9282
92fe
fe82
92fe
9280
92ff
fe80
10ff
1001
1155
1355
1203
1006
ENDCHAR
STARTCHAR 337c
ENCODING 13180
SWIDTH 1016 0
DWIDTH 18 0
BBX 16 16 1 -2
BITMAP
1000
13ff
1010
fc30
1020
11fe
3902
3502
3502
5102
51fe
9102
1102
1102
1102
11fe
ENDCHAR
STARTCHAR 337d
ENCODING 13181
SWIDTH 1016 0
DWIDTH 18 0
BBX 16 16 1 -2
BITMAP
0420
0420
ffff
0420
3ff8
0030
0440
0280
ffff
0282
0684
0c80
1880
3080
e080
0380
ENDCHAR
STARTCHAR 337e
ENCODING 13182
SWIDTH 1016 0
DWIDTH 18 0
BBX 16 16 1 -2
BITMAP
0810
0810
ffff
0810
0100
7ffe
4002
5ffa
0000
1ff8
1008
1ff8
1008
1ff8
0000
ffff
ENDCHAR
STARTCHAR 3421
ENCODING 13345
SWIDTH 1016 0
DWIDTH 18 0
BBX 16 16 1 -2
BITMAP
0000
f11e
1542
1542
1542
f11e
8ff0
8110
f39e
1382
1542
1542
1922
3106
2104
e01c
ENDCHAR
STARTCHAR 3422
ENCODING 13346
SWIDTH 1016 0
DWIDTH 18 0
BBX 16 16 1 -2
BITMAP
0102
0112
0112
0112
6312
3212
1a12
0e12
0412
0e12
0b12
1902
1182
3082
6002
c00e
ENDCHAR
STARTCHAR 3423
ENCODING 13347
SWIDTH 1016 0
DWIDTH 18 0
BBX 16 16 1 -2
BITMAP
0420
0420
ffff
0420
0420
0102
6122
3322
1a22
0e22
0422
0e22
1b02
3182
6082
c00e
ENDCHAR
STARTCHAR 3424
ENCODING 13348
SWIDTH 1016 0
DWIDTH 18 0
BBX 16 16 1 -2
BITMAP
0000
ffff
0400
0400
0400
0fe0
0820
0820
0a20
0b20
1920
1020
1020
13a1
3e33
e01e
ENDCHAR
STARTCHAR 3425
ENCODING 13349
SWIDTH 1016 0
DWIDTH 18 0
BBX 16 16 1 -2
BITMAP
1040
1040
fe40
10ff
7d80
4700
44fe
7c0c
4418
4430
7c60
1040
fec0
1081
10c3
107e
ENDCHAR
STARTCHAR 3426
ENCODING 13350
SWIDTH 1016 0
DWIDTH 18 0
BBX 16 16 1 -2
BITMAP
0800
0bfe
1a02
1202
3202
23fe
6000
a124
2124
2124
2124
2124
2124
2325
2225
2603
ENDCHAR
STARTCHAR 3427
ENCODING 13351
SWIDTH 1016 0
DWIDTH 18 0
BBX 16 16 1 -2
BITMAP
0000
7ffe
4002
4002
7e04
0004
00ff
ff04
2444
2464
2424
2404
2404
641d
4603
c3fe
ENDCHAR
STARTCHAR 3428
ENCODING 13352
SWIDTH 1016 0
DWIDTH 18 0
BBX 16 16 1 -2
BITMAP
0100
0100
7ffe
4002
4422
3ffc
0420
3ffc
0420
ffff
0810
3bdc
e067
0f00
01e0
0030
ENDCHAR
STARTCHAR 3429
ENCODING 13353
SWIDTH 1016 0
DWIDTH 18 0
BBX 16 16 1 -2
BITMAP
0002
7f22
0822
0822
0822
0822
ffa2
0822
0822
0822
0822
0802
0802
0802
0802
080e
ENDCHAR
STARTCHAR 342a
ENCODING 13354
SWIDTH 1016 0
DWIDTH 18 0
BBX 16 16 1 -2
BITMAP
2210
2210
ff90
2210
3e7f
2211
3e11
2211
ff91
5411
5431
5721
6023
4062
7f42
00ce
ENDCHAR
STARTCHAR 342b
ENCODING 13355
SWIDTH 1016 0
DWIDTH 18 0
BBX 16 16 1 -2
BITMAP
2010
2010
7f90
4810
887f
7f91
1211
2411
7f91
a431
3f21
2421
3f63
2442
3fc2
008e
ENDCHAR
STARTCHAR 342c
ENCODING 13356
SWIDTH 1016 0
DWIDTH 18 0
BBX 16 16 1 -2
BITMAP
1108
1918
0910
3ffc
0240
0420
ffff
0810
1ff8
302c
e027
0fe0
0800
0804
0c0c
07f8
ENDCHAR
STARTCHAR 342d
ENCODING 13357
SWIDTH 1016 0
DWIDTH 18 0
BBX 16 16 1 -2
BITMAP
0100
01f8
f308
9210
97fe
9252
9252
9252
929e
9302
9222
f7ff
0050
00d8
018c
0707
ENDCHAR
STARTCHAR 342e
ENCODING 13358
SWIDTH 1016 0
DWIDTH 18 0
BBX 16 16 1 -2
BITMAP
2104
2104
27ff
2104
f9fc
2104
21fc
2104
2104
27ff
2248
3a48
e28f
0300
0200
03ff
ENDCHAR
STARTCHAR 342f
ENCODING 13359
SWIDTH 1016 0
DWIDTH 18 0
BBX 16 16 1 -2
BITMAP
0200
0200
7ffe
0410
0820
1fe0
013c
7e06
1010
ffff
2222
4646
7474
1c1c
3636
e2e3
ENDCHAR
STARTCHAR 3430
ENCODING 13360
SWIDTH 1016 0
DWIDTH 18 0
BBX 16 16 1 -2
BITMAP
0100
0100
7ffe
4002
4002
1ff8
0000
0000
ffff
0420
0420
0c20
0820
1821
3033
e01e
ENDCHAR
STARTCHAR 3431
ENCODING 13361
SWIDTH 1016 0
DWIDTH 18 0
BBX 16 16 1 -2
BITMAP
0100
0100
ffff
8001
8001
1ff8
1008
1008
1ff8
1000
1000
1ffc
1004
1004
1004
1ffc
ENDCHAR
STARTCHAR 3432
ENCODING 13362
SWIDTH 1016 0
DWIDTH 18 0
BBX 16 16 1 -2
BITMAP
0100
0100
ffff
8421
bffd
0420
1ff8
1008
1ff8
1008
1ff8
1008
1ff8
0421
1c23
f01e
ENDCHAR
STARTCHAR 3433
ENCODING 13363
SWIDTH 1016 0
DWIDTH 18 0
BBX 16 16 1 -2
BITMAP
0000
7ffc
0100
0100
0100
0100
0100
ffff
0100
0100
0100
0100
0100
0100
0100
0100
ENDCHAR
STARTCHAR 3434
ENCODING 13364
SWIDTH 1016 0
DWIDTH 18 0
BBX 16 16 1 -2
BITMAP
1010
1038
fe28
106c
7cc6
4583
447c
7c10
4410
4410
7dff
1010
fe10
1010
1010
1010
ENDCHAR
STARTCHAR 3435
ENCODING 13365
SWIDTH 1016 0
DWIDTH 18 0
BBX 16 16 1 -2
BITMAP
0100
3ffc
2104
2104
3ffc
0100
3ffc
2104
2104
3ffc
0100
0040
2466
242b
6619
c3f0
ENDCHAR
STARTCHAR 3436
ENCODING 13366
SWIDTH 1016 0
DWIDTH 18 0
BBX 16 16 1 -2
BITMAP
0048
0044
7fff
4040
5f64
402c
5f38
5110
5f39
c0cd
8007
0180
24c6
244b
6619
c3f0
ENDCHAR
STARTCHAR 3437
ENCODING 13367
SWIDTH 1016 0
DWIDTH 18 0
BBX 16 16 1 -2
BITMAP
2000
23fe
2222
27ff
b222
abfe
a000
a3fe
2202
23fe
2202
23fe
2202
23fe
2104
2603
ENDCHAR
STARTCHAR 3438
ENCODING 13368
SWIDTH 1016 0
DWIDTH 18 0
BBX 16 16 1 -2
BITMAP
2014
2012
27ff
2410
a5fa
b40a
adee
a524
25ed
2417
2802
2040
2566
2523
2d09
28f8
ENDCHAR
STARTCHAR 3439
ENCODING 13369
SWIDTH 1016 0
DWIDTH 18 0
BBX 16 16 1 -2
BITMAP
2100
21f8
2308
fa10
27fe
2252
2252
2252
3a9e
e302
2222
27ff
2050
20d8
218c
6707
ENDCHAR
STARTCHAR 343a
ENCODING 13370
SWIDTH 1016 0
DWIDTH 18 0
BBX 16 16 1 -2
BITMAP
0020
7f20
0820
087f
ffc4
2244
22e4
3e2c
2228
2238
3e10
2238
2228
3e6c
e246
02c3
ENDCHAR
STARTCHAR 343b
ENCODING 13371
SWIDTH 1016 0
DWIDTH 18 0
BBX 16 16 1 -2
BITMAP
1084
1084
1084
fc84
13ff
1084
3884
3484
3484
50fc
5084
9084
1084
1084
1084
10fc
ENDCHAR
STARTCHAR 343c
ENCODING 13372
SWIDTH 1016 0
DWIDTH 18 0
BBX 16 16 1 -2
BITMAP
1000
13fe
1000
fc00
11fc
1104
3904
35fc
3504
5104
5104
91fc
1000
1000
17ff
1000
ENDCHAR
STARTCHAR 343d
ENCODING 13373
SWIDTH 1016 0
DWIDTH 18 0
BBX 16 16 1 -2
BITMAP
1020
1020
13ff
fe01
1201
10fc
3884
3484
34fc
5080
5080
90fe
1082
1082
1082
10fe
ENDCHAR
STARTCHAR 343e
ENCODING 13374
SWIDTH 1016 0
DWIDTH 18 0
BBX 16 16 1 -2
BITMAP
1020
1020
ff20
107f
1041
7e53
00d2
7e10
0010
ff38
1028
5428
526c
9244
10c6
3183
ENDCHAR
STARTCHAR 343f
ENCODING 13375
SWIDTH 1016 0
DWIDTH 18 0
BBX 16 16 1 -2
BITMAP
2020
2020
7f20
d03f
1061
ff53
24d2
2810
7f10
c838
7e28
4828
7e6c
4844
7fc6
0083
ENDCHAR
STARTCHAR 3440
ENCODING 13376
SWIDTH 1016 0
DWIDTH 18 0
BBX 16 16 1 -2
BITMAP
0000
63fe
3020
1020
0020
c020
6020
27ff
0020
1020
3020
2020
6020
4020
c020
0020
ENDCHAR
STARTCHAR 3441
ENCODING 13377
SWIDTH 1016 0
DWIDTH 18 0
BBX 16 16 1 -2
BITMAP
0088
67ff
3088
1000
03fe
c222
6222
23fe
0020
13fe
1020
37ff
2050
60d8
418c
c707
ENDCHAR
STARTCHAR 3442
ENCODING 13378
SWIDTH 1016 0
DWIDTH 18 0
BBX 16 16 1 -2
BITMAP
0000
67df
3451
17df
0451
c7df
6401
24f9
0489
1489
14f9
3489
2489
64f9
4401
c407
ENDCHAR
STARTCHAR 3443
ENCODING 13379
SWIDTH 1016 0
DWIDTH 18 0
BBX 16 16 1 -2
BITMAP
0100
6100
33fe
1240
0fff
c088
6110
23fe
0620
13fe
1220
3220
23fe
6220
4220
c3ff
ENDCHAR
STARTCHAR 3444
ENCODING 13380
SWIDTH 1016 0
DWIDTH 18 0
BBX 16 16 1 -2
BITMAP
0000
03fe
fa92
2292
23fe
2000
27ff
f800
23fe
2202
23fe
2061
38b2
e12c
0623
0020
ENDCHAR
STARTCHAR 3445
ENCODING 13381
SWIDTH 1016 0
DWIDTH 18 0
BBX 16 16 1 -2
BITMAP
0810
0810
0810
0810
ffff
0810
0810
0810
0810
0ff0
0810
0810
0810
0810
0810
0ff0
ENDCHAR
STARTCHAR 3446
ENCODING 13382
SWIDTH 1016 0
DWIDTH 18 0
BBX 16 16 1 -2
BITMAP
0020
7f20
4820
7e7f
4240
42c0
7e3e
4800
7f00
0000
3ffc
2444
2444
2444
ffff
0000
ENDCHAR
STARTCHAR 3447
ENCODING 13383
SWIDTH 1016 0
DWIDTH 18 0
BBX 16 16 1 -2
BITMAP
0018
01f0
3f00
0100
7ffe
0200
ffff
0400
0ffc
1804
2ffc
c804
0ffc
0804
0804
0ffc
ENDCHAR
STARTCHAR 3448
ENCODING 13384
SWIDTH 1016 0
DWIDTH 18 0
BBX 16 16 1 -2
BITMAP
1020
1020
3f7f
4890
8408
0000
3ffc
0100
0100
0100
ffff
0100
0100
0100
0100
0100
ENDCHAR
STARTCHAR 3449
ENCODING 13385
SWIDTH 1016 0
DWIDTH 18 0
BBX 16 16 1 -2
BITMAP
1020
1020
3f7f
4890
8408
0100
7ffe
4002
4ff2
0810
0ff0
0800
0ff8
0808
0808
0ff8
ENDCHAR
STARTCHAR 344a
ENCODING 13386
SWIDTH 1016 0
DWIDTH 18 0
BBX 16 16 1 -2
BITMAP
2040
3e7f
4890
8408
7e7e
4242
7e7e
4242
7e7e
4002
47e2
4422
47e2
4422
47e2
400e
ENDCHAR
STARTCHAR 344b
ENCODING 13387
SWIDTH 1016 0
DWIDTH 18 0
BBX 16 16 1 -2
BITMAP
1006
303c
23e2
c926
5894
33ff
2040
4bff
fc40
147c
1044
58ec
55a8
d038
906c
11c7
ENDCHAR
STARTCHAR 344c
ENCODING 13388
SWIDTH 1016 0
DWIDTH 18 0
BBX 16 16 1 -2
BITMAP
0800
0800
1ffc
3100
6100
0100
0100
ffff
0100
0100
2104
2104
2104
2104
2104
3ffc
ENDCHAR
STARTCHAR 344d
ENCODING 13389
SWIDTH 1016 0
DWIDTH 18 0
BBX 16 16 1 -2
BITMAP
2020
2070
f8d8
218c
ff07
8800
8bde
f842
8a52
894a
f842
20c6
f94a
2252
2042
21ce
ENDCHAR
STARTCHAR 344e
ENCODING 13390
SWIDTH 1016 0
DWIDTH 18 0
BBX 16 16 1 -2
BITMAP
0000
7cfe
4410
4410
4410
7c10
4410
45ff
4410
7c10
4410
4410
4410
4410
c410
9c10
ENDCHAR
STARTCHAR 344f
ENCODING 13391
SWIDTH 1016 0
DWIDTH 18 0
BBX 16 16 1 -2
BITMAP
0804
11f4
7d44
454f
55f8
5510
45f0
ff4f
4540
55f0
5400
54fe
54aa
44aa
c4aa
8dff
ENDCHAR
STARTCHAR 3450
ENCODING 13392
SWIDTH 1016 0
DWIDTH 18 0
BBX 16 16 1 -2
BITMAP
0810
0810
ffff
0810
0100
7ffe
4002
5ffa
0000
0000
ffff
0440
0c40
1841
3063
e03e
ENDCHAR
STARTCHAR 3451
ENCODING 13393
SWIDTH 1016 0
DWIDTH 18 0
BBX 16 16 1 -2
BITMAP
2000
20fe
7e82
d082
10fe
ff82
2482
28fe
7e82
c882
7efe
4828
7e68
4849
7ec9
0187
ENDCHAR
STARTCHAR 3452
ENCODING 13394
SWIDTH 1016 0
DWIDTH 18 0
BBX 16 16 1 -2
BITMAP
0020
7820
03ff
fc20
01fc
7924
0124
01fc
7924
0124
01fc
78a8
48ac
49a6
4b23
7820
ENDCHAR
STARTCHAR 3453
ENCODING 13395
SWIDTH 1016 0
DWIDTH 18 0
BBX 16 16 1 -2
BITMAP
0000
1ff8
1108
ffff
1108
1ff8
0000
1ff8
1008
1ff8
1008
1ff8
1008
1ff8
0810
700e
ENDCHAR
STARTCHAR 3454
ENCODING 13396
SWIDTH 1016 0
DWIDTH 18 0
BBX 16 16 1 -2
BITMAP
0000
67fe
3492
17fe
0000
0fff
0000
f3fc
1204
13fc
10c2
1164
1658
3046
6840
c7ff
ENDCHAR
STARTCHAR 3455
ENCODING 13397
SWIDTH 1016 0
DWIDTH 18 0
BBX 16 16 1 -2
BITMAP
1004
39f4
2d44
654f
41f8
fd10
11f0
114f
fd40
11f0
9400
d4fe
54aa
10aa
1caa
f1ff
ENDCHAR
STARTCHAR 3456
ENCODING 13398
SWIDTH 1016 0
DWIDTH 18 0
BBX 16 16 1 -2
BITMAP
0000
7e7e
4242
7e7e
4242
7e7e
4002
47e2
4422
4422
47e2
4422
4422
47e2
4002
400e
ENDCHAR
STARTCHAR 3457
ENCODING 13399
SWIDTH 1016 0
DWIDTH 18 0
BBX 16 16 1 -2
BITMAP
0000
7e7e
4242
7e7e
4242
7e7e
4102
4102
4ff2
4102
4382
4342
4522
4912
4102
400e
ENDCHAR
STARTCHAR 3458
ENCODING 13400
SWIDTH 1016 0
DWIDTH 18 0
BBX 16 16 1 -2
BITMAP
0000
7e7e
4242
7e7e
4242
7e7e
4422
4242
4ff2
4102
4102
5ffa
4242
4662
4c32
400e
ENDCHAR
STARTCHAR 3459
ENCODING 13401
SWIDTH 1016 0
DWIDTH 18 0
BBX 16 16 1 -2
BITMAP
0040
7c40
44fc
4c84
498c
5b18
5010
493e
4522
4522
4522
453e
5d22
4122
4122
413e
ENDCHAR
STARTCHAR 345a
ENCODING 13402
SWIDTH 1016 0
DWIDTH 18 0
BBX 16 16 1 -2
BITMAP
1010
10fc
fe24
1024
7dff
4400
44fe
7c82
44fe
4408
7cfe
1048
fe48
11ff
1008
1008
ENDCHAR
STARTCHAR 345b
ENCODING 13403
SWIDTH 1016 0
DWIDTH 18 0
BBX 16 16 1 -2
BITMAP
1010
3810
2dff
6501
5101
fc7c
4444
7c44
447c
7c40
4040
447e
4442
5e42
7242
c07e
ENDCHAR
STARTCHAR 345c
ENCODING 13404
SWIDTH 1016 0
DWIDTH 18 0
BBX 16 16 1 -2
BITMAP
1010
3810
2dff
6701
4101
fc7c
1044
1044
fe7c
1040
1040
7c7e
4442
4442
4442
7c7e
ENDCHAR
STARTCHAR 345d
ENCODING 13405
SWIDTH 1016 0
DWIDTH 18 0
BBX 16 16 1 -2
BITMAP
0200
0200
0200
0200
7ff0
0210
0210
3210
1a10
0e10
0410
0e10
0b10
1911
3013
e00e
ENDCHAR
STARTCHAR 345e
ENCODING 13406
SWIDTH 1016 0
DWIDTH 18 0
BBX 16 16 1 -2
BITMAP
0100
0380
06c0
0c70
381c
e7e7
0000
1ff8
0010
0020
0040
1ff8
1008
1008
1008
1ff8
ENDCHAR
STARTCHAR 345f
ENCODING 13407
SWIDTH 1016 0
DWIDTH 18 0
BBX 16 16 1 -2
BITMAP
0080
2082
2082
3ffe
0000
3fff
2000
27fc
2040
2040
3fff
2040
6040
4040
c040
0040
ENDCHAR
STARTCHAR 3460
ENCODING 13408
SWIDTH 1016 0
DWIDTH 18 0
BBX 16 16 1 -2
BITMAP
2082
2082
3ffe
1104
7fff
4010
5f10
443f
7fa4
5164
5f14
511c
5f08
d11c
9f36
3163
ENDCHAR
STARTCHAR 3461
ENCODING 13409
SWIDTH 1016 0
DWIDTH 18 0
BBX 16 16 1 -2
BITMAP
0000
f9fe
2000
2000
2000
2000
fbff
2048
2048
2048
2048
3848
e0c8
0089
0189
0307
ENDCHAR
STARTCHAR 3462
ENCODING 13410
SWIDTH 1016 0
DWIDTH 18 0
BBX 16 16 1 -2
BITMAP
0040
0040
3fff
2000
a3f8
6208
23f8
2000
6f1e
a912
2f1e
2000
6040
4842
c842
0ffe
ENDCHAR
STARTCHAR 3463
ENCODING 13411
SWIDTH 1016 0
DWIDTH 18 0
BBX 16 16 1 -2
BITMAP
0000
79fc
4904
4904
49fc
7904
4904
49fc
4921
7933
4916
491c
4908
790c
01e6
0703
ENDCHAR
STARTCHAR 3464
ENCODING 13412
SWIDTH 1016 0
DWIDTH 18 0
BBX 16 16 1 -2
BITMAP
0100
2104
2104
2104
3ffc
0000
0000
ffff
0400
0800
1ffc
2804
c804
0804
0804
0ffc
ENDCHAR
STARTCHAR 3465
ENCODING 13413
SWIDTH 1016 0
DWIDTH 18 0
BBX 16 16 1 -2
BITMAP
0000
f7be
1080
9480
5280
1080
52ff
8494
1014
7f14
4114
4114
7f14
4135
4125
7f63
ENDCHAR
STARTCHAR 3466
ENCODING 13414
SWIDTH 1016 0
DWIDTH 18 0
BBX 16 16 1 -2
BITMAP
7fff
4488
49ff
5b10
6dfe
4910
49fe
4910
47ff
4404
47fc
4404
47fc
c404
87fc
1c07
ENDCHAR
STARTCHAR 3467
ENCODING 13415
SWIDTH 1016 0
DWIDTH 18 0
BBX 16 16 1 -2
BITMAP
0000
3fff
2000
2244
2248
24ff
2590
2e90
34fe
2490
2490
24fe
6490
4490
c4ff
0400
ENDCHAR
STARTCHAR 3468
ENCODING 13416
SWIDTH 1016 0
DWIDTH 18 0
BBX 16 16 1 -2
BITMAP
0000
7dff
0010
00fe
0082
fe82
28fe
2882
2882
28fe
2882
2a82
6cfe
4844
c0c6
0183
ENDCHAR
STARTCHAR 3469
ENCODING 13417
SWIDTH 1016 0
DWIDTH 18 0
BBX 16 16 1 -2
BITMAP
0800
08ff
7f10
227e
1442
7f42
447e
4c42
5a42
467e
4c42
5942
437e
c624
8c66
38c3
ENDCHAR
STARTCHAR 346a
ENCODING 13418
SWIDTH 1016 0
DWIDTH 18 0
BBX 16 16 1 -2
BITMAP
0000
7f7f
4408
5f3e
5122
5122
5f3e
5122
5122
5f3e
4422
5522
d53e
b594
a4b6
0c63
ENDCHAR
STARTCHAR 346b
ENCODING 13419
SWIDTH 1016 0
DWIDTH 18 0
BBX 16 16 1 -2
BITMAP
0100
0380
02c0
0660
0c30
189c
3087
e880
08f8
0880
0880
0880
0880
0880
ffff
0000
ENDCHAR
STARTCHAR 346c
ENCODING 13420
SWIDTH 1016 0
DWIDTH 18 0
BBX 16 16 1 -2
BITMAP
0820
0820
1820
17ff
3020
3020
53fc
9104
118c
10d8
1070
1020
1070
10d8
118c
1707
ENDCHAR
STARTCHAR 346d
ENCODING 13421
SWIDTH 1016 0
DWIDTH 18 0
BBX 16 16 1 -2
BITMAP
0800
0ff0
1820
2040
ffff
2000
2000
27f8
2408
2408
2408
2438
6400
4402
c606
03fc
ENDCHAR
STARTCHAR 346e
ENCODING 13422
SWIDTH 1016 0
DWIDTH 18 0
BBX 16 16 1 -2
BITMAP
0100
7ffe
0100
3ffc
0000
1ff8
1008
1ff8
0810
0420
ffff
0000
1ff8
1008
1008
1ff8
ENDCHAR
STARTCHAR 346f
ENCODING 13423
SWIDTH 1016 0
DWIDTH 18 0
BBX 16 16 1 -2
BITMAP
0000
7e7e
4242
4242
4242
7e7e
0100
ffff
0420
1818
e007
7e7e
4242
4242
4242
7e7e
ENDCHAR
STARTCHAR 3470
ENCODING 13424
SWIDTH 1016 0
DWIDTH 18 0
BBX 16 16 1 -2
BITMAP
0810
0810
7ffe
0810
0ff0
0810
0ff0
0810
ffff
0810
1108
2ff4
c103
0100
ffff
0000
ENDCHAR
STARTCHAR 3471
ENCODING 13425
SWIDTH 1016 0
DWIDTH 18 0
BBX 16 16 1 -2
BITMAP
0100
0100
7ffe
0240
0420
1818
0000
ffff
0008
1f88
1088
1088
1088
1f88
0008
0038
ENDCHAR
STARTCHAR 3472
ENCODING 13426
SWIDTH 1016 0
DWIDTH 18 0
BBX 16 16 1 -2
BITMAP
2010
21ff
2010
fcfe
2400
24fe
2482
64fe
4c44
4828
e9ff
1800
14fe
3482
6082
c0fe
ENDCHAR
STARTCHAR 3473
ENCODING 13427
SWIDTH 1016 0
DWIDTH 18 0
BBX 16 16 1 -2
BITMAP
0100
0100
7ffe
4002
4102
3ffc
0240
0c30
0000
ffff
0008
1f88
1088
1088
1f88
0038
ENDCHAR
STARTCHAR 3474
ENCODING 13428
SWIDTH 1016 0
DWIDTH 18 0
BBX 16 16 1 -2
BITMAP
0020
2020
27ff
a820
a820
abfc
a904
a98c
a888
a8d8
a870
f820
0070
00d8
018c
0707
ENDCHAR
STARTCHAR 3475
ENCODING 13429
SWIDTH 1016 0
DWIDTH 18 0
BBX 16 16 1 -2
BITMAP
1c0c
0738
01e0
0f38
7a0c
0200
ffff
0440
0840
1ffe
2842
c842
0842
0842
084e
0040
ENDCHAR
STARTCHAR 3476
ENCODING 13430
SWIDTH 1016 0
DWIDTH 18 0
BBX 16 16 1 -2
BITMAP
1088
3098
64b2
2894
1088
1492
3ebf
6289
0084
3fff
2040
3864
2c28
6431
40db
c30e
ENDCHAR
STARTCHAR 3477
ENCODING 13431
SWIDTH 1016 0
DWIDTH 18 0
BBX 16 16 1 -2
BITMAP
0000
3ff8
0008
0008
3ff8
2000
2002
3006
1ffc
0000
0180
24c6
2443
6409
4618
c3f0
ENDCHAR
STARTCHAR 3478
ENCODING 13432
SWIDTH 1016 0
DWIDTH 18 0
BBX 16 16 1 -2
BITMAP
2000
27ff
2401
2421
fbfe
2020
23fe
2222
3bfe
e222
2222
23fe
2020
27ff
2020
6020
ENDCHAR
STARTCHAR 3479
ENCODING 13433
SWIDTH 1016 0
DWIDTH 18 0
BBX 16 16 1 -2
BITMAP
1000
10f8
1088
fe88
1088
1088
3888
3488
3488
5088
5088
9088
1188
1109
1309
1607
ENDCHAR
STARTCHAR 347a
ENCODING 13434
SWIDTH 1016 0
DWIDTH 18 0
BBX 16 16 1 -2
BITMAP
1080
1080
11ff
fd00
2244
21ff
3c44
247c
2444
247c
2444
25ff
6400
4c44
48c6
d983
ENDCHAR
STARTCHAR 347b
ENCODING 13435
SWIDTH 1016 0
DWIDTH 18 0
BBX 16 16 1 -2
BITMAP
0000
7efe
4248
4248
7e48
4248
4248
7fff
4008
4018
4418
4438
5e28
7269
c0c9
0187
ENDCHAR
STARTCHAR 347c
ENCODING 13436
SWIDTH 1016 0
DWIDTH 18 0
BBX 16 16 1 -2
BITMAP
2200
223e
ffa2
2222
2222
3e3e
2222
2222
3e22
223e
2222
ffa2
0022
2662
6342
c0ce
ENDCHAR
STARTCHAR 347d
ENCODING 13437
SWIDTH 1016 0
DWIDTH 18 0
BBX 16 16 1 -2
BITMAP
1084
1084
13ff
fc84
1084
10fc
3884
3484
34fc
5084
5084
93ff
1000
1084
1186
1303
ENDCHAR
STARTCHAR 347e
ENCODING 13438
SWIDTH 1016 0
DWIDTH 18 0
BBX 16 16 1 -2
BITMAP
0100
ffff
0410
0808
3ff4
0000
1108
ffff
1108
1ff8
0100
ffff
0520
1d38
f10f
0100
ENDCHAR
STARTCHAR 3521
ENCODING 13601
SWIDTH 1016 0
DWIDTH 18 0
BBX 16 16 1 -2
BITMAP
2122
2224
26ad
f922
2225
22af
67a4
7022
6bff
aa20
a212
2314
2288
2695
2427
2cc2
ENDCHAR
STARTCHAR 3522
ENCODING 13602
SWIDTH 1016 0
DWIDTH 18 0
BBX 16 16 1 -2
BITMAP
1000
11fc
5004
51fc
5004
51fc
5000
57ff
5421
5421
13fe
1222
3222
2222
6226
c020
ENDCHAR
STARTCHAR 3523
ENCODING 13603
SWIDTH 1016 0
DWIDTH 18 0
BBX 16 16 1 -2
BITMAP
0800
083c
7f24
2224
1424
ffa4
1047
2900
ca7e
1422
2636
cd1c
1488
241c
c436
18e3
ENDCHAR
STARTCHAR 3524
ENCODING 13604
SWIDTH 1016 0
DWIDTH 18 0
BBX 16 16 1 -2
BITMAP
1000
1000
3ffe
2000
6ff8
c000
3ff8
0008
0048
18c8
0d88
0708
0d8d
18c5
3047
e002
ENDCHAR
STARTCHAR 3525
ENCODING 13605
SWIDTH 1016 0
DWIDTH 18 0
BBX 16 16 1 -2
BITMAP
0200
6200
37fe
1400
0df8
c000
67f8
2008
0008
1008
1008
3008
200d
6005
4007
c002
ENDCHAR
STARTCHAR 3526
ENCODING 13606
SWIDTH 1016 0
DWIDTH 18 0
BBX 16 16 1 -2
BITMAP
1088
3098
64b2
2894
1088
2492
7ebf
0289
ffff
0040
7f62
4924
7f28
4911
7f2d
00c7
ENDCHAR
STARTCHAR 3527
ENCODING 13607
SWIDTH 1016 0
DWIDTH 18 0
BBX 16 16 1 -2
BITMAP
1006
101c
10f0
fc80
0480
0cff
0888
1888
3088
7c88
d688
1088
1188
1108
1308
1008
ENDCHAR
STARTCHAR 3528
ENCODING 13608
SWIDTH 1016 0
DWIDTH 18 0
BBX 16 16 1 -2
BITMAP
0018
00f0
3f80
0100
ffff
0520
0d30
391c
e007
1ff0
0060
0180
ffff
0100
0100
0700
ENDCHAR
STARTCHAR 3529
ENCODING 13609
SWIDTH 1016 0
DWIDTH 18 0
BBX 16 16 1 -2
BITMAP
04c4
1c6c
f038
106c
11c6
fc20
13ff
3840
3490
31fe
5292
5492
9092
1092
1096
1010
ENDCHAR
STARTCHAR 352a
ENCODING 13610
SWIDTH 1016 0
DWIDTH 18 0
BBX 16 16 1 -2
BITMAP
1000
30fe
6002
c402
6c02
1802
30fe
6480
fe80
1280
1080
5480
5681
d2c3
907e
1000
ENDCHAR
STARTCHAR 352b
ENCODING 13611
SWIDTH 1016 0
DWIDTH 18 0
BBX 16 16 1 -2
BITMAP
1108
3548
2548
655f
c7d2
1132
320a
268a
610e
e244
27c4
2104
254e
254a
295b
2111
ENDCHAR
STARTCHAR 352c
ENCODING 13612
SWIDTH 1016 0
DWIDTH 18 0
BBX 16 16 1 -2
BITMAP
1000
10fe
1082
fe82
10fe
1082
1082
fefe
1082
1082
38fe
2c48
6648
40c9
c189
0307
ENDCHAR
STARTCHAR 352d
ENCODING 13613
SWIDTH 1016 0
DWIDTH 18 0
BBX 16 16 1 -2
BITMAP
0000
7cfe
0002
fe02
0002
7c02
0002
00fe
7c80
0080
0080
7c80
4480
4481
44c3
7c7e
ENDCHAR
STARTCHAR 352e
ENCODING 13614
SWIDTH 1016 0
DWIDTH 18 0
BBX 16 16 1 -2
BITMAP
0100
1ff8
1108
1ff8
0100
ffff
0000
1ff8
1008
1ff8
1008
1ff8
1008
1ff8
0810
700e
ENDCHAR
STARTCHAR 352f
ENCODING 13615
SWIDTH 1016 0
DWIDTH 18 0
BBX 16 16 1 -2
BITMAP
0800
087e
7f02
0802
0802
0802
ff7e
0840
4840
4f40
4841
4863
683e
5800
ce00
83ff
ENDCHAR
STARTCHAR 3530
ENCODING 13616
SWIDTH 1016 0
DWIDTH 18 0
BBX 16 16 1 -2
BITMAP
0820
0820
ffa0
0820
7ffc
4924
4924
7f24
4924
4924
7f24
0824
ffa4
0865
0845
08c3
ENDCHAR
STARTCHAR 3531
ENCODING 13617
SWIDTH 1016 0
DWIDTH 18 0
BBX 16 16 1 -2
BITMAP
1000
11ff
9501
d511
54fe
1010
10fe
fe92
28fe
2892
2892
2afe
6c10
49ff
c010
0010
ENDCHAR
STARTCHAR 3532
ENCODING 13618
SWIDTH 1016 0
DWIDTH 18 0
BBX 16 16 1 -2
BITMAP
0800
1c7c
1644
3344
2844
7e44
a244
3e44
2244
3e44
2044
2444
2444
26c5
3a85
6183
ENDCHAR
STARTCHAR 3533
ENCODING 13619
SWIDTH 1016 0
DWIDTH 18 0
BBX 16 16 1 -2
BITMAP
0010
7f10
48ff
4810
7e28
4844
4800
7eff
4802
483a
7faa
00aa
aaba
aa82
8182
030e
ENDCHAR
STARTCHAR 3534
ENCODING 13620
SWIDTH 1016 0
DWIDTH 18 0
BBX 16 16 1 -2
BITMAP
0100
0200
3ffc
2104
2104
3ffc
2104
2104
3ffc
0490
0494
0ca6
08ba
1881
30c3
e07e
ENDCHAR
STARTCHAR 3535
ENCODING 13621
SWIDTH 1016 0
DWIDTH 18 0
BBX 16 16 1 -2
BITMAP
0400
0fe0
1040
3ff8
d108
1ff8
1108
1ff8
0100
3ffc
2104
3ffc
2104
3ffd
0101
00ff
ENDCHAR
STARTCHAR 3536
ENCODING 13622
SWIDTH 1016 0
DWIDTH 18 0
BBX 16 16 1 -2
BITMAP
0a20
0920
1820
17fc
3044
2048
60fe
a182
2104
23ff
2601
2c09
22a5
22a3
2402
200e
ENDCHAR
STARTCHAR 3537
ENCODING 13623
SWIDTH 1016 0
DWIDTH 18 0
BBX 16 16 1 -2
BITMAP
1208
1110
37fe
2040
23fc
6040
6fff
a004
2792
2110
2fff
2112
2194
2f09
2115
2763
ENDCHAR
STARTCHAR 3538
ENCODING 13624
SWIDTH 1016 0
DWIDTH 18 0
BBX 16 16 1 -2
BITMAP
2010
2010
21ff
2010
fc10
24fe
2442
6446
4464
4c2c
e838
1810
1438
326c
60c6
c183
ENDCHAR
STARTCHAR 3539
ENCODING 13625
SWIDTH 1016 0
DWIDTH 18 0
BBX 16 16 1 -2
BITMAP
0100
0100
7ffe
4002
4002
0ff0
0810
0810
0ff0
0810
0810
0ff0
0810
0810
ffff
0000
ENDCHAR
STARTCHAR 353a
ENCODING 13626
SWIDTH 1016 0
DWIDTH 18 0
BBX 16 16 1 -2
BITMAP
0814
0f12
0810
7f93
489e
4e70
7892
4f92
4016
4a14
6a9c
5b08
4a1c
4a15
8fb7
3862
ENDCHAR
STARTCHAR 353b
ENCODING 13627
SWIDTH 1016 0
DWIDTH 18 0
BBX 16 16 1 -2
BITMAP
2020
2020
2020
27ff
f820
2020
23fc
2104
398c
e0d8
2070
2020
2070
20d8
218c
6707
ENDCHAR
STARTCHAR 353c
ENCODING 13628
SWIDTH 1016 0
DWIDTH 18 0
BBX 16 16 1 -2
BITMAP
2400
24bf
2702
2414
f488
23bf
2409
278a
2a28
f22e
2fa8
2228
2328
22b8
246c
68c7
ENDCHAR
STARTCHAR 353d
ENCODING 13629
SWIDTH 1016 0
DWIDTH 18 0
BBX 16 16 1 -2
BITMAP
2220
2220
ffa0
223f
2261
3e53
22d2
2210
3e10
2210
2238
ffa8
002c
2664
6346
c0c3
ENDCHAR
STARTCHAR 353e
ENCODING 13630
SWIDTH 1016 0
DWIDTH 18 0
BBX 16 16 1 -2
BITMAP
1104
5088
53fe
5020
7dfc
d020
97ff
1004
1392
1910
77ff
d112
11d4
1709
1115
1323
ENDCHAR
STARTCHAR 353f
ENCODING 13631
SWIDTH 1016 0
DWIDTH 18 0
BBX 16 16 1 -2
BITMAP
4000
4efe
7804
4028
4210
3eff
2012
3e14
4850
885e
7f50
0850
1cd0
36b0
619c
c307
ENDCHAR
STARTCHAR 3540
ENCODING 13632
SWIDTH 1016 0
DWIDTH 18 0
BBX 16 16 1 -2
BITMAP
1006
101c
11f0
fd10
0510
0d10
0910
19ff
3110
7d18
d708
1108
110c
1105
11e7
1702
ENDCHAR
STARTCHAR 3541
ENCODING 13633
SWIDTH 1016 0
DWIDTH 18 0
BBX 16 16 1 -2
BITMAP
0810
0420
7ffe
0100
3ffc
0100
ffff
0008
7e44
0840
ffff
0844
0f28
f811
086d
3987
ENDCHAR
STARTCHAR 3542
ENCODING 13634
SWIDTH 1016 0
DWIDTH 18 0
BBX 16 16 1 -2
BITMAP
2104
2088
23fe
f820
a9fc
a820
abff
a804
fbd2
2090
23ff
2892
28d4
3b89
e895
01a3
ENDCHAR
STARTCHAR 3543
ENCODING 13635
SWIDTH 1016 0
DWIDTH 18 0
BBX 16 16 1 -2
BITMAP
0020
7820
01fe
fd02
0102
78fc
0084
0084
78fc
0084
0084
78fc
4884
4884
4884
7bff
ENDCHAR
STARTCHAR 3544
ENCODING 13636
SWIDTH 1016 0
DWIDTH 18 0
BBX 16 16 1 -2
BITMAP
0104
7888
03fe
fc20
01fc
7820
03ff
0004
7bd2
0090
03ff
7892
48d4
4b89
4895
79a3
ENDCHAR
STARTCHAR 3545
ENCODING 13637
SWIDTH 1016 0
DWIDTH 18 0
BBX 16 16 1 -2
BITMAP
2100
2100
2100
23ff
fa01
2441
2249
2151
37fd
e0c1
21f1
2159
2349
2643
2042
600e
ENDCHAR
STARTCHAR 3546
ENCODING 13638
SWIDTH 1016 0
DWIDTH 18 0
BBX 16 16 1 -2
BITMAP
0420
0420
ffff
0420
1000
1ffe
3002
6922
c542
3ffa
0302
07c2
0d62
1936
6104
001c
ENDCHAR
STARTCHAR 3547
ENCODING 13639
SWIDTH 1016 0
DWIDTH 18 0
BBX 16 16 1 -2
BITMAP
2880
2880
feff
2901
2a21
3925
10a9
7dfd
5421
5471
7c69
10a5
fea1
1123
1022
100e
ENDCHAR
STARTCHAR 3548
ENCODING 13640
SWIDTH 1016 0
DWIDTH 18 0
BBX 16 16 1 -2
BITMAP
0100
0100
0100
ffff
0100
0100
0100
7ffe
0000
0000
1ff8
1008
1008
1008
1008
1ff8
ENDCHAR
STARTCHAR 3549
ENCODING 13641
SWIDTH 1016 0
DWIDTH 18 0
BBX 16 16 1 -2
BITMAP
0100
0100
f100
93ff
9200
9600
9dfc
9018
9030
9060
90c0
9180
f300
0201
0303
01fe
ENDCHAR
STARTCHAR 354a
ENCODING 13642
SWIDTH 1016 0
DWIDTH 18 0
BBX 16 16 1 -2
BITMAP
0200
0fbe
e212
a212
af92
a212
a232
a3a2
ae6e
a000
e080
1fff
0110
0318
060c
1c07
ENDCHAR
STARTCHAR 354b
ENCODING 13643
SWIDTH 1016 0
DWIDTH 18 0
BBX 16 16 1 -2
BITMAP
1010
1010
1010
fdff
1010
1010
3810
34fe
3400
5000
50fe
9082
1082
1082
1082
10fe
ENDCHAR
STARTCHAR 354c
ENCODING 13644
SWIDTH 1016 0
DWIDTH 18 0
BBX 16 16 1 -2
BITMAP
1000
11fe
1044
fc28
13ff
1852
3494
3130
33ff
5249
5289
937f
1249
1249
1279
1203
ENDCHAR
STARTCHAR 354d
ENCODING 13645
SWIDTH 1016 0
DWIDTH 18 0
BBX 16 16 1 -2
BITMAP
0010
7810
0010
fdff
0010
7810
0010
00fe
7800
0000
00fe
7882
4882
4882
4882
78fe
ENDCHAR
STARTCHAR 354e
ENCODING 13646
SWIDTH 1016 0
DWIDTH 18 0
BBX 16 16 1 -2
BITMAP
0010
fe10
1010
1010
101f
3010
2010
3c10
6410
64fe
a482
2482
2482
2482
3c82
00fe
ENDCHAR
STARTCHAR 354f
ENCODING 13647
SWIDTH 1016 0
DWIDTH 18 0
BBX 16 16 1 -2
BITMAP
1040
1040
1040
fcfe
1090
1190
3810
3410
35ff
5010
5010
9010
1010
1010
1010
1010
ENDCHAR
STARTCHAR 3550
ENCODING 13648
SWIDTH 1016 0
DWIDTH 18 0
BBX 16 16 1 -2
BITMAP
0018
00f0
3f80
0100
ffff
0520
1918
e387
0ee0
3838
e10f
1930
07c0
1938
e107
0700
ENDCHAR
STARTCHAR 3551
ENCODING 13649
SWIDTH 1016 0
DWIDTH 18 0
BBX 16 16 1 -2
BITMAP
0800
083e
7f22
0822
0822
0822
0822
ffa2
1022
3222
2322
6122
4fae
f8a0
0020
0020
ENDCHAR
STARTCHAR 3552
ENCODING 13650
SWIDTH 1016 0
DWIDTH 18 0
BBX 16 16 1 -2
BITMAP
0100
0100
7ffe
4402
47f2
0820
1440
6380
06e0
1c38
f00f
1ff8
1008
1008
1008
1ff8
ENDCHAR
STARTCHAR 3553
ENCODING 13651
SWIDTH 1016 0
DWIDTH 18 0
BBX 16 16 1 -2
BITMAP
0080
788f
4889
4be9
4889
7889
4889
4ff9
4909
7909
4b29
4a29
4ae9
4fab
c808
9808
ENDCHAR
STARTCHAR 3554
ENCODING 13652
SWIDTH 1016 0
DWIDTH 18 0
BBX 16 16 1 -2
BITMAP
0080
00fe
0080
3fff
2001
2102
21f8
2f00
2102
20fe
2000
27fe
6400
47fe
c400
07fe
ENDCHAR
STARTCHAR 3555
ENCODING 13653
SWIDTH 1016 0
DWIDTH 18 0
BBX 16 16 1 -2
BITMAP
0104
618c
3088
17ff
0020
0222
0222
f222
1222
13fe
1020
1060
10c0
3180
6800
c7ff
ENDCHAR
STARTCHAR 3556
ENCODING 13654
SWIDTH 1016 0
DWIDTH 18 0
BBX 16 16 1 -2
BITMAP
0018
00f0
1f80
1000
1000
1000
1ffe
1010
1010
1010
1010
1010
1010
1010
ffff
0000
ENDCHAR
STARTCHAR 3557
ENCODING 13655
SWIDTH 1016 0
DWIDTH 18 0
BBX 16 16 1 -2
BITMAP
0200
0200
07e0
0420
0c20
1860
3040
60c0
0080
01c0
0340
0660
0c30
1818
300c
e007
ENDCHAR
STARTCHAR 3558
ENCODING 13656
SWIDTH 1016 0
DWIDTH 18 0
BBX 16 16 1 -2
BITMAP
0880
0880
1880
1080
37f8
2088
6088
a088
2088
2088
2088
2188
2108
2309
2609
2c07
ENDCHAR
STARTCHAR 3559
ENCODING 13657
SWIDTH 1016 0
DWIDTH 18 0
BBX 16 16 1 -2
BITMAP
0840
0840
1840
1040
3fff
2150
6150
a150
2358
2248
264c
2c46
3843
2040
2040
2040
ENDCHAR
STARTCHAR 355a
ENCODING 13658
SWIDTH 1016 0
DWIDTH 18 0
BBX 16 16 1 -2
BITMAP
0000
7ff0
0410
0430
0420
0e7c
0a04
0b0c
0908
1998
10f0
1060
30f0
2198
630c
ce07
ENDCHAR
STARTCHAR 355b
ENCODING 13659
SWIDTH 1016 0
DWIDTH 18 0
BBX 16 16 1 -2
BITMAP
0000
03fc
f884
888c
8888
889e
8882
89c6
8944
896c
8b38
fa10
0638
0c6c
18c6
0383
ENDCHAR
STARTCHAR 355c
ENCODING 13660
SWIDTH 1016 0
DWIDTH 18 0
BBX 16 16 1 -2
BITMAP
0100
0100
7ffe
4002
4002
1ff8
1008
1008
1ff8
0100
0200
3ffc
2004
2004
2004
3ffc
ENDCHAR
STARTCHAR 355d
ENCODING 13661
SWIDTH 1016 0
DWIDTH 18 0
BBX 16 16 1 -2
BITMAP
0000
7ffc
0004
0004
0004
3ffc
2000
2000
2000
3ffe
0002
0002
0006
0004
000c
0078
ENDCHAR
STARTCHAR 355e
ENCODING 13662
SWIDTH 1016 0
DWIDTH 18 0
BBX 16 16 1 -2
BITMAP
0400
0ff0
1820
3040
fffc
0004
0004
3ffc
0004
0004
3ffc
0080
24c6
244b
6619
c3f0
ENDCHAR
STARTCHAR 355f
ENCODING 13663
SWIDTH 1016 0
DWIDTH 18 0
BBX 16 16 1 -2
BITMAP
0a20
0920
0820
ff3f
0824
4964
6b44
2aec
0828
0838
1e10
3b10
6938
c86c
08c6
3983
ENDCHAR
STARTCHAR 3560
ENCODING 13664
SWIDTH 1016 0
DWIDTH 18 0
BBX 16 16 1 -2
BITMAP
1000
13ff
1020
fc20
1060
1040
38fe
3402
3402
5002
5002
9006
1004
1004
100c
1038
ENDCHAR
STARTCHAR 3561
ENCODING 13665
SWIDTH 1016 0
DWIDTH 18 0
BBX 16 16 1 -2
BITMAP
0130
0118
0108
ffff
0100
2104
310c
1918
09b0
01c0
0560
0d30
1918
710c
c107
0700
ENDCHAR
STARTCHAR 3562
ENCODING 13666
SWIDTH 1016 0
DWIDTH 18 0
BBX 16 16 1 -2
BITMAP
0000
67fc
3084
108c
0088
c09e
6082
21c6
0144
116c
1138
3310
2238
666c
4cc6
c183
ENDCHAR
STARTCHAR 3563
ENCODING 13667
SWIDTH 1016 0
DWIDTH 18 0
BBX 16 16 1 -2
BITMAP
0020
6020
3020
13fe
0000
c104
6104
2104
018c
1088
1088
3098
2010
6010
47ff
c000
ENDCHAR
STARTCHAR 3564
ENCODING 13668
SWIDTH 1016 0
DWIDTH 18 0
BBX 16 16 1 -2
BITMAP
0400
0fe0
1860
70c0
01e0
0730
1c1c
f007
0100
1104
310c
6398
06c0
0c60
3838
e00f
ENDCHAR
STARTCHAR 3565
ENCODING 13669
SWIDTH 1016 0
DWIDTH 18 0
BBX 16 16 1 -2
BITMAP
0024
0026
f822
27ff
2020
2222
2326
f92c
2020
2030
20b8
21ac
3b26
e623
0020
00e0
ENDCHAR
STARTCHAR 3566
ENCODING 13670
SWIDTH 1016 0
DWIDTH 18 0
BBX 16 16 1 -2
BITMAP
0100
0100
7ffe
4442
4c42
1840
707e
0200
0200
7ff0
0210
0610
0410
0c11
1813
700e
ENDCHAR
STARTCHAR 3567
ENCODING 13671
SWIDTH 1016 0
DWIDTH 18 0
BBX 16 16 1 -2
BITMAP
0100
0100
7ffe
4422
183f
e400
3f7e
2102
3f7e
2140
3f7e
2102
ff02
0902
3106
c71c
ENDCHAR
STARTCHAR 3568
ENCODING 13672
SWIDTH 1016 0
DWIDTH 18 0
BBX 16 16 1 -2
BITMAP
1020
1020
3f7f
6890
c408
0000
7ff8
0410
043e
0e0c
0b18
19b0
30e0
61b0
c71c
1c07
ENDCHAR
STARTCHAR 3569
ENCODING 13673
SWIDTH 1016 0
DWIDTH 18 0
BBX 16 16 1 -2
BITMAP
1000
31fc
6044
c44c
6c48
185e
3042
64e2
fea6
12b4
109c
5988
551c
d334
9066
10c3
ENDCHAR
STARTCHAR 356a
ENCODING 13674
SWIDTH 1016 0
DWIDTH 18 0
BBX 16 16 1 -2
BITMAP
1004
3044
6044
c444
6c44
1844
3044
6444
fe44
1247
107c
55c4
5604
d204
9004
1004
ENDCHAR
STARTCHAR 356b
ENCODING 13675
SWIDTH 1016 0
DWIDTH 18 0
BBX 16 16 1 -2
BITMAP
1010
3038
6028
c46c
6cc6
1983
3000
647c
fe00
1200
10fe
5482
5682
d282
9082
10fe
ENDCHAR
STARTCHAR 356c
ENCODING 13676
SWIDTH 1016 0
DWIDTH 18 0
BBX 16 16 1 -2
BITMAP
0000
43fe
4202
4202
4202
4202
4202
43fe
4202
4202
4202
4202
4202
4202
43fe
0000
ENDCHAR
STARTCHAR 356d
ENCODING 13677
SWIDTH 1016 0
DWIDTH 18 0
BBX 16 16 1 -2
BITMAP
0100
1100
1100
1100
3ffc
6100
c100
0100
0100
ffff
0100
0100
0100
0100
0100
0100
ENDCHAR
STARTCHAR 356e
ENCODING 13678
SWIDTH 1016 0
DWIDTH 18 0
BBX 16 16 1 -2
BITMAP
0100
0100
0100
3ffc
0100
0100
0100
0100
ffff
0200
0610
0418
0c08
08fc
1f84
7006
ENDCHAR
STARTCHAR 356f
ENCODING 13679
SWIDTH 1016 0
DWIDTH 18 0
BBX 16 16 1 -2
BITMAP
0000
3ffe
2002
2002
3ffe
2040
2040
3fff
2040
2040
2ffe
2802
6802
4802
c802
0ffe
ENDCHAR
STARTCHAR 3570
ENCODING 13680
SWIDTH 1016 0
DWIDTH 18 0
BBX 16 16 1 -2
BITMAP
0000
3ffe
2000
2000
2000
3ffc
2004
2004
2004
3ffc
2000
2000
2000
2000
3ffe
0000
ENDCHAR
STARTCHAR 3571
ENCODING 13681
SWIDTH 1016 0
DWIDTH 18 0
BBX 16 16 1 -2
BITMAP
1000
11ff
1100
1100
fd00
11fe
1102
1102
1d02
f1fe
1100
1100
1100
1100
11ff
7000
ENDCHAR
STARTCHAR 3572
ENCODING 13682
SWIDTH 1016 0
DWIDTH 18 0
BBX 16 16 1 -2
BITMAP
2400
243c
27a4
24a4
f4a4
2ca4
29a4
2524
2524
3724
e225
2225
2743
2580
2ce0
683f
ENDCHAR
STARTCHAR 3573
ENCODING 13683
SWIDTH 1016 0
DWIDTH 18 0
BBX 16 16 1 -2
BITMAP
2204
330c
1108
ffff
0420
0c30
381c
e0e7
0f80
0100
3ffc
0100
ffff
0100
0100
0700
ENDCHAR
STARTCHAR 3574
ENCODING 13684
SWIDTH 1016 0
DWIDTH 18 0
BBX 16 16 1 -2
BITMAP
0000
33fe
1a00
c3fc
6204
0204
1bfc
7200
c3ff
0100
ffff
0540
0d60
3938
e10f
0100
ENDCHAR
STARTCHAR 3575
ENCODING 13685
SWIDTH 1016 0
DWIDTH 18 0
BBX 16 16 1 -2
BITMAP
0080
00fe
0080
3fff
2101
21fa
2f00
2102
20fe
2000
2110
2912
6d16
4514
c110
1fff
ENDCHAR
STARTCHAR 3576
ENCODING 13686
SWIDTH 1016 0
DWIDTH 18 0
BBX 16 16 1 -2
BITMAP
0040
7c40
0040
fefe
0090
7d10
0010
0010
7dff
0010
0010
7c10
4410
4410
4410
7c10
ENDCHAR
STARTCHAR 3577
ENCODING 13687
SWIDTH 1016 0
DWIDTH 18 0
BBX 16 16 1 -2
BITMAP
0000
7cff
4480
4480
4480
44fe
7c82
1082
5082
5cfe
5080
5080
5080
5c80
70ff
c000
ENDCHAR
STARTCHAR 3578
ENCODING 13688
SWIDTH 1016 0
DWIDTH 18 0
BBX 16 16 1 -2
BITMAP
1000
38fe
2c82
6682
40fe
fc88
1088
10ff
fe88
1088
94be
d4a2
51a2
1d22
7322
c03e
ENDCHAR
STARTCHAR 3579
ENCODING 13689
SWIDTH 1016 0
DWIDTH 18 0
BBX 16 16 1 -2
BITMAP
0080
6080
31fc
1308
0610
c3fe
6222
2222
03fe
1222
1222
33fe
2000
6292
46db
cc49
ENDCHAR
STARTCHAR 357a
ENCODING 13690
SWIDTH 1016 0
DWIDTH 18 0
BBX 16 16 1 -2
BITMAP
1400
27de
4912
97d2
2112
65d2
a512
27d6
2c10
0000
3ffc
0000
ffff
0080
308c
e387
ENDCHAR
STARTCHAR 357b
ENCODING 13691
SWIDTH 1016 0
DWIDTH 18 0
BBX 16 16 1 -2
BITMAP
0400
0400
0ff0
1820
3040
fffc
2104
2104
3ffc
2104
2104
3ffc
0000
2444
6666
c223
ENDCHAR
STARTCHAR 357c
ENCODING 13692
SWIDTH 1016 0
DWIDTH 18 0
BBX 16 16 1 -2
BITMAP
0100
0100
ffff
0000
1ff8
1008
1ff8
0000
7ffe
000c
0030
01c0
0100
0100
0100
0700
ENDCHAR
STARTCHAR 357d
ENCODING 13693
SWIDTH 1016 0
DWIDTH 18 0
BBX 16 16 1 -2
BITMAP
0100
0100
ffff
0000
1ff8
1008
1ff8
0000
3ffc
0018
0060
0180
ffff
0100
0100
0700
ENDCHAR
STARTCHAR 357e
ENCODING 13694
SWIDTH 1016 0
DWIDTH 18 0
BBX 16 16 1 -2
BITMAP
0100
0100
0100
ffff
0000
1ff8
1008
1008
1008
1ff8
0100
0910
1918
310c
e107
0700
ENDCHAR
STARTCHAR 3621
ENCODING 13857
SWIDTH 1016 0
DWIDTH 18 0
BBX 16 16 1 -2
BITMAP
1108
1108
3108
2108
27fe
6108
6108
a108
2108
2108
2fff
2000
2108
230c
2606
2c03
ENDCHAR
STARTCHAR 3622
ENCODING 13858
SWIDTH 1016 0
DWIDTH 18 0
BBX 16 16 1 -2
BITMAP
1040
1040
37fe
2040
2444
664c
6248
a248
2040
2fff
20a0
21b0
2118
230c
2606
2c03
ENDCHAR
STARTCHAR 3623
ENCODING 13859
SWIDTH 1016 0
DWIDTH 18 0
BBX 16 16 1 -2
BITMAP
101c
13f0
3040
2fff
2108
63fc
6d0b
a1f8
2000
27fe
2402
25fa
250a
25fa
2402
240e
ENDCHAR
STARTCHAR 3624
ENCODING 13860
SWIDTH 1016 0
DWIDTH 18 0
BBX 16 16 1 -2
BITMAP
0010
2c34
2664
2344
21c4
2364
2634
2c14
2004
3ffc
0420
0420
0c20
1821
3033
e01e
ENDCHAR
STARTCHAR 3625
ENCODING 13861
SWIDTH 1016 0
DWIDTH 18 0
BBX 16 16 1 -2
BITMAP
0810
0810
ffff
4242
2424
ffff
0000
7e7e
4242
4242
7e7e
2428
2428
6569
4649
c4c7
ENDCHAR
STARTCHAR 3626
ENCODING 13862
SWIDTH 1016 0
DWIDTH 18 0
BBX 16 16 1 -2
BITMAP
0810
0810
0810
0810
7ffe
0810
0810
0810
0810
0810
ffff
0000
0810
1818
300c
e007
ENDCHAR
STARTCHAR 3627
ENCODING 13863
SWIDTH 1016 0
DWIDTH 18 0
BBX 16 16 1 -2
BITMAP
0000
0008
581a
4c12
4632
4362
41c2
41c2
4362
4632
4c1a
580a
4002
4002
7ffe
0000
ENDCHAR
STARTCHAR 3628
ENCODING 13864
SWIDTH 1016 0
DWIDTH 18 0
BBX 16 16 1 -2
BITMAP
2040
2040
23fc
2044
20c4
f98c
2318
2000
2208
2fff
2249
2249
2249
2659
24d3
2db6
ENDCHAR
STARTCHAR 3629
ENCODING 13865
SWIDTH 1016 0
DWIDTH 18 0
BBX 16 16 1 -2
BITMAP
0000
7ffe
4000
4000
4ff8
4080
4080
47f0
4080
4080
4080
5ffc
4000
4000
7ffe
0000
ENDCHAR
STARTCHAR 362a
ENCODING 13866
SWIDTH 1016 0
DWIDTH 18 0
BBX 16 16 1 -2
BITMAP
1800
73ef
4229
4a29
4be9
4a29
4a29
4be9
4a09
4a09
7a09
ca49
1a49
33eb
6628
c008
ENDCHAR
STARTCHAR 362b
ENCODING 13867
SWIDTH 1016 0
DWIDTH 18 0
BBX 16 16 1 -2
BITMAP
0004
0004
7c44
4444
4444
4444
4444
4444
4444
4444
4447
7c7c
01c4
0004
0004
0004
ENDCHAR
STARTCHAR 362c
ENCODING 13868
SWIDTH 1016 0
DWIDTH 18 0
BBX 16 16 1 -2
BITMAP
0078
3fc0
0200
ffff
0420
0ff0
342c
c7e3
0000
7ffe
4002
4ff2
4812
4ff2
4002
400e
ENDCHAR
STARTCHAR 362d
ENCODING 13869
SWIDTH 1016 0
DWIDTH 18 0
BBX 16 16 1 -2
BITMAP
2020
2020
27ff
2104
f888
27ff
2000
23fe
2202
23fe
2202
3bfe
e088
0189
0309
0e07
ENDCHAR
STARTCHAR 362e
ENCODING 13870
SWIDTH 1016 0
DWIDTH 18 0
BBX 16 16 1 -2
BITMAP
0020
2020
23fe
a820
aa22
ab26
a924
a924
a820
afff
a850
f8d8
0088
018c
0306
0603
ENDCHAR
STARTCHAR 362f
ENCODING 13871
SWIDTH 1016 0
DWIDTH 18 0
BBX 16 16 1 -2
BITMAP
0080
f884
0984
093e
0be3
7820
43fe
4222
4222
7a22
0bfe
0820
0822
1822
10ff
7781
ENDCHAR
STARTCHAR 3630
ENCODING 13872
SWIDTH 1016 0
DWIDTH 18 0
BBX 16 16 1 -2
BITMAP
0000
f7ff
1000
13fe
1222
73fe
4222
47ff
4000
73fe
1222
13fe
1222
33fe
2000
e7ff
ENDCHAR
STARTCHAR 3631
ENCODING 13873
SWIDTH 1016 0
DWIDTH 18 0
BBX 16 16 1 -2
BITMAP
1020
1020
1020
13fe
5820
5420
d420
9020
17ff
1040
1040
10c4
1084
10be
11e2
1303
ENDCHAR
STARTCHAR 3632
ENCODING 13874
SWIDTH 1016 0
DWIDTH 18 0
BBX 16 16 1 -2
BITMAP
01f8
f908
2108
21c8
2168
2128
3909
e309
0607
0000
0180
24c4
2446
640b
4619
c3f0
ENDCHAR
STARTCHAR 3633
ENCODING 13875
SWIDTH 1016 0
DWIDTH 18 0
BBX 16 16 1 -2
BITMAP
0420
0420
7ffe
0420
0420
0420
ffff
0810
1108
2104
c103
110c
1166
3132
6110
0700
ENDCHAR
STARTCHAR 3634
ENCODING 13876
SWIDTH 1016 0
DWIDTH 18 0
BBX 16 16 1 -2
BITMAP
2020
2020
23fe
2020
fa22
2326
2124
2124
3820
e7ff
2050
20d8
2088
218c
2306
6603
ENDCHAR
STARTCHAR 3635
ENCODING 13877
SWIDTH 1016 0
DWIDTH 18 0
BBX 16 16 1 -2
BITMAP
08a0
08a0
7f20
097f
0a44
ff44
04a4
7e2c
1228
2438
c810
0f38
f828
086c
08c6
3983
ENDCHAR
STARTCHAR 3636
ENCODING 13878
SWIDTH 1016 0
DWIDTH 18 0
BBX 16 16 1 -2
BITMAP
201c
23f0
2040
27ff
f888
21fc
268b
70f8
6800
abfe
a202
22fa
228a
22fa
2202
2206
ENDCHAR
STARTCHAR 3637
ENCODING 13879
SWIDTH 1016 0
DWIDTH 18 0
BBX 16 16 1 -2
BITMAP
0000
63fc
3204
1204
0204
c204
6204
23fc
0090
0090
1090
3090
2190
6111
4313
ce0e
ENDCHAR
STARTCHAR 3638
ENCODING 13880
SWIDTH 1016 0
DWIDTH 18 0
BBX 16 16 1 -2
BITMAP
0800
8bfe
5020
2020
2020
5020
9020
11fc
3020
3020
5020
9020
1020
1020
37ff
e000
ENDCHAR
STARTCHAR 3639
ENCODING 13881
SWIDTH 1016 0
DWIDTH 18 0
BBX 16 16 1 -2
BITMAP
0820
8820
53fe
2020
5222
9326
1924
2924
2820
4fff
8850
08d8
0888
098c
1b06
7603
ENDCHAR
STARTCHAR 363a
ENCODING 13882
SWIDTH 1016 0
DWIDTH 18 0
BBX 16 16 1 -2
BITMAP
401c
43f0
7840
a7ff
a088
21fc
268b
f8f8
2000
23fe
7202
52fa
5a8a
cafa
8202
0206
ENDCHAR
STARTCHAR 363b
ENCODING 13883
SWIDTH 1016 0
DWIDTH 18 0
BBX 16 16 1 -2
BITMAP
7880
4880
49ff
4901
7b01
4851
4955
4925
4925
7955
4955
4905
49fd
4803
c802
980e
ENDCHAR
STARTCHAR 363c
ENCODING 13884
SWIDTH 1016 0
DWIDTH 18 0
BBX 16 16 1 -2
BITMAP
0080
3ffc
0304
3c38
1008
fe7f
2211
cc66
0000
3ffc
2004
3ffc
2004
3ffc
2004
201c
ENDCHAR
STARTCHAR 363d
ENCODING 13885
SWIDTH 1016 0
DWIDTH 18 0
BBX 16 16 1 -2
BITMAP
0800
1ff0
681e
4812
4bd2
781e
4bd2
4a52
7a5e
4bd2
4812
4812
ffff
0810
381c
e007
ENDCHAR
STARTCHAR 363e
ENCODING 13886
SWIDTH 1016 0
DWIDTH 18 0
BBX 16 16 1 -2
BITMAP
0420
ffff
0420
1ff8
0200
ffff
0420
0ff0
342c
c7e3
0000
7ffe
4002
47e2
4422
47e6
ENDCHAR
STARTCHAR 363f
ENCODING 13887
SWIDTH 1016 0
DWIDTH 18 0
BBX 16 16 1 -2
BITMAP
2000
67df
4451
c453
97d2
5456
3454
27d2
6411
4411
f491
1491
35d1
2757
6c10
c010
ENDCHAR
STARTCHAR 3640
ENCODING 13888
SWIDTH 1016 0
DWIDTH 18 0
BBX 16 16 1 -2
BITMAP
1010
3810
2dff
6482
4044
fdff
1000
10fe
fe82
10fe
9482
d4fe
5048
1c49
70c9
c387
ENDCHAR
STARTCHAR 3641
ENCODING 13889
SWIDTH 1016 0
DWIDTH 18 0
BBX 16 16 1 -2
BITMAP
23ef
ca29
53ea
222a
fbe9
1249
23eb
c628
0100
7ffe
0420
ffff
1008
1ff8
1008
1ff8
ENDCHAR
STARTCHAR 3642
ENCODING 13890
SWIDTH 1016 0
DWIDTH 18 0
BBX 16 16 1 -2
BITMAP
23ef
ca29
53ea
222a
fbe9
1249
23eb
c628
0180
0ff0
f81f
0ff0
0810
0ff4
08c8
7f3e
ENDCHAR
STARTCHAR 3643
ENCODING 13891
SWIDTH 1016 0
DWIDTH 18 0
BBX 16 16 1 -2
BITMAP
2420
ffbf
2424
7f54
4108
bd14
2523
3ff8
1080
1ff8
1080
1ff8
1080
5ffe
c922
8496
ENDCHAR
STARTCHAR 3644
ENCODING 13892
SWIDTH 1016 0
DWIDTH 18 0
BBX 16 16 1 -2
BITMAP
10c0
1180
373f
2421
2421
6421
6421
a421
2421
2421
2421
25a1
2727
2c20
2020
2020
ENDCHAR
STARTCHAR 3645
ENCODING 13893
SWIDTH 1016 0
DWIDTH 18 0
BBX 16 16 1 -2
BITMAP
0800
09be
cf02
6824
2898
0788
087f
0f89
2a0a
3228
2fae
6228
4528
44b8
c86c
10c7
ENDCHAR
STARTCHAR 3646
ENCODING 13894
SWIDTH 1016 0
DWIDTH 18 0
BBX 16 16 1 -2
BITMAP
0100
0100
7ffe
0100
1108
1008
ffff
1008
1008
0000
7ffe
0420
0420
0c21
1833
f01e
ENDCHAR
STARTCHAR 3647
ENCODING 13895
SWIDTH 1016 0
DWIDTH 18 0
BBX 16 16 1 -2
BITMAP
0020
0020
f3fe
9020
9124
9104
97ff
f104
9104
9000
93fe
9088
f088
0189
0309
0e07
ENDCHAR
STARTCHAR 3648
ENCODING 13896
SWIDTH 1016 0
DWIDTH 18 0
BBX 16 16 1 -2
BITMAP
2244
324c
1248
ffff
0810
0420
7ffe
0100
3ffc
0100
ffff
0520
0d30
391c
e107
0100
ENDCHAR
STARTCHAR 3649
ENCODING 13897
SWIDTH 1016 0
DWIDTH 18 0
BBX 16 16 1 -2
BITMAP
0000
3ffc
2004
2004
3ffc
2000
2000
3ffe
2002
27f2
2412
6412
47f2
c006
0004
001c
ENDCHAR
STARTCHAR 364a
ENCODING 13898
SWIDTH 1016 0
DWIDTH 18 0
BBX 16 16 1 -2
BITMAP
0440
0440
0440
0440
7ffe
4442
4442
4442
4442
7ffe
4442
4442
4442
4442
7ffe
0000
ENDCHAR
STARTCHAR 364b
ENCODING 13899
SWIDTH 1016 0
DWIDTH 18 0
BBX 16 16 1 -2
BITMAP
2000
27fe
2080
f880
21e0
2020
373e
6d22
652a
a524
a76a
2051
21c0
2000
2fff
2000
ENDCHAR
STARTCHAR 364c
ENCODING 13900
SWIDTH 1016 0
DWIDTH 18 0
BBX 16 16 1 -2
BITMAP
0000
7ffe
0100
0100
0100
0100
0100
3ffc
0100
0100
0118
010c
0104
0100
ffff
0000
ENDCHAR
STARTCHAR 364d
ENCODING 13901
SWIDTH 1016 0
DWIDTH 18 0
BBX 16 16 1 -2
BITMAP
1000
13fe
1202
fe02
12fa
1202
3a02
36fa
328a
528a
528a
92fa
1202
1202
1202
120e
ENDCHAR
STARTCHAR 364e
ENCODING 13902
SWIDTH 1016 0
DWIDTH 18 0
BBX 16 16 1 -2
BITMAP
1006
921c
d6f0
5410
1010
fc10
1010
11ff
3810
3410
5210
5010
9010
1010
1010
1010
ENDCHAR
STARTCHAR 364f
ENCODING 13903
SWIDTH 1016 0
DWIDTH 18 0
BBX 16 16 1 -2
BITMAP
1088
1088
37ff
2088
2000
63fe
6222
a222
23fe
2020
23fe
2020
23fe
2020
2020
27ff
ENDCHAR
STARTCHAR 3650
ENCODING 13904
SWIDTH 1016 0
DWIDTH 18 0
BBX 16 16 1 -2
BITMAP
2210
2210
ff90
2210
00ff
7f11
4911
4911
7f11
0811
7f31
0821
7f23
0862
0f42
f8ce
ENDCHAR
STARTCHAR 3651
ENCODING 13905
SWIDTH 1016 0
DWIDTH 18 0
BBX 16 16 1 -2
BITMAP
0100
2100
2100
23fe
fa02
2602
21e2
2002
2002
2032
38e2
e382
0006
0004
000c
0038
ENDCHAR
STARTCHAR 3652
ENCODING 13906
SWIDTH 1016 0
DWIDTH 18 0
BBX 16 16 1 -2
BITMAP
0100
0100
0100
0100
7ffe
4102
4102
4102
4102
4102
4102
4102
410e
0100
0100
0100
ENDCHAR
STARTCHAR 3653
ENCODING 13907
SWIDTH 1016 0
DWIDTH 18 0
BBX 16 16 1 -2
BITMAP
1010
3820
2cfe
6682
40fe
fc82
1082
10fe
fe10
11ff
9511
d511
5111
1d17
7010
c010
ENDCHAR
STARTCHAR 3654
ENCODING 13908
SWIDTH 1016 0
DWIDTH 18 0
BBX 16 16 1 -2
BITMAP
000c
0078
3fc0
2000
2000
3fff
2040
2040
2040
2040
2040
2040
6040
4040
c040
0040
ENDCHAR
STARTCHAR 3655
ENCODING 13909
SWIDTH 1016 0
DWIDTH 18 0
BBX 16 16 1 -2
BITMAP
0640
1c40
7040
407f
40c1
7e93
4992
4810
4810
4838
4828
4828
486c
c844
88c6
0983
ENDCHAR
STARTCHAR 3656
ENCODING 13910
SWIDTH 1016 0
DWIDTH 18 0
BBX 16 16 1 -2
BITMAP
1040
3840
2c40
667f
40c1
fc93
1192
1010
fe10
1038
9428
d428
506c
1e44
70c6
c183
ENDCHAR
STARTCHAR 3657
ENCODING 13911
SWIDTH 1016 0
DWIDTH 18 0
BBX 16 16 1 -2
BITMAP
0000
fe7f
1008
7c3e
1008
1e08
f17f
0380
0ee0
3838
e7cf
0000
1ff8
0030
0060
00c0
ENDCHAR
STARTCHAR 3658
ENCODING 13912
SWIDTH 1016 0
DWIDTH 18 0
BBX 16 16 1 -2
BITMAP
0810
0810
feff
2854
2c54
6ad6
c993
0000
3ffc
0000
ffff
0100
1108
310c
e107
0700
ENDCHAR
STARTCHAR 3659
ENCODING 13913
SWIDTH 1016 0
DWIDTH 18 0
BBX 16 16 1 -2
BITMAP
0100
0380
0ee0
393c
e7e7
1248
1188
1248
1ff8
0200
7ffe
4402
4c22
49f2
5f12
400e
ENDCHAR
STARTCHAR 365a
ENCODING 13914
SWIDTH 1016 0
DWIDTH 18 0
BBX 16 16 1 -2
BITMAP
2040
2040
7eff
4890
8508
0020
3e20
22fe
2222
3e22
2222
2222
3e22
2262
6242
c6ce
ENDCHAR
STARTCHAR 365b
ENCODING 13915
SWIDTH 1016 0
DWIDTH 18 0
BBX 16 16 1 -2
BITMAP
0000
7f7e
4802
7e26
4214
7e08
4814
7f63
0100
0a20
0444
7ffe
0102
0910
391c
e107
ENDCHAR
STARTCHAR 365c
ENCODING 13916
SWIDTH 1016 0
DWIDTH 18 0
BBX 16 16 1 -2
BITMAP
0420
0420
ffff
0420
001c
3ff0
2000
2000
3fff
2040
2040
2040
6040
4040
c040
0040
ENDCHAR
STARTCHAR 365d
ENCODING 13917
SWIDTH 1016 0
DWIDTH 18 0
BBX 16 16 1 -2
BITMAP
0420
0420
ffff
0420
0000
7ffe
4002
4fe2
4102
5ffa
4542
4522
4912
4102
4002
7ffe
ENDCHAR
STARTCHAR 365e
ENCODING 13918
SWIDTH 1016 0
DWIDTH 18 0
BBX 16 16 1 -2
BITMAP
1010
1038
1028
fc6c
0444
0cc6
19bb
1000
3600
787c
d404
1204
100c
1008
1018
1010
ENDCHAR
STARTCHAR 365f
ENCODING 13919
SWIDTH 1016 0
DWIDTH 18 0
BBX 16 16 1 -2
BITMAP
2088
2088
27ff
f888
09dc
1aaa
1489
2000
69fc
b000
2bfe
2020
2124
2326
2623
2060
ENDCHAR
STARTCHAR 3660
ENCODING 13920
SWIDTH 1016 0
DWIDTH 18 0
BBX 16 16 1 -2
BITMAP
0044
7844
01ff
fc44
0000
78fe
0092
0092
78fe
0010
00fe
7810
48fe
4810
4810
79ff
ENDCHAR
STARTCHAR 3661
ENCODING 13921
SWIDTH 1016 0
DWIDTH 18 0
BBX 16 16 1 -2
BITMAP
000c
6038
31e0
1100
0100
01ff
0108
f108
1108
1108
1308
1208
1608
3008
6800
c7ff
ENDCHAR
STARTCHAR 3662
ENCODING 13922
SWIDTH 1016 0
DWIDTH 18 0
BBX 16 16 1 -2
BITMAP
0100
0380
06c0
0c60
1830
301c
eff7
0100
0100
7ffe
0100
2104
310c
1918
0910
ffff
ENDCHAR
STARTCHAR 3663
ENCODING 13923
SWIDTH 1016 0
DWIDTH 18 0
BBX 16 16 1 -2
BITMAP
0020
0070
f850
88d8
898c
8b06
8efb
8800
8800
89fc
8804
f80c
0008
0018
0010
0030
ENDCHAR
STARTCHAR 3664
ENCODING 13924
SWIDTH 1016 0
DWIDTH 18 0
BBX 16 16 1 -2
BITMAP
1000
38fe
2c82
6682
42fe
fc82
1082
10fe
fe91
1093
9496
d498
5088
1e8c
70f6
c383
ENDCHAR
STARTCHAR 3665
ENCODING 13925
SWIDTH 1016 0
DWIDTH 18 0
BBX 16 16 1 -2
BITMAP
0400
0400
0400
0400
ffe0
0420
0420
0420
0420
0420
0420
0c20
0820
1821
3033
e01e
ENDCHAR
STARTCHAR 3666
ENCODING 13926
SWIDTH 1016 0
DWIDTH 18 0
BBX 16 16 1 -2
BITMAP
0800
0bfc
1a04
1204
33fc
2204
6204
a3fc
2204
2204
23fc
2000
2fff
2108
230c
2606
ENDCHAR
STARTCHAR 3667
ENCODING 13927
SWIDTH 1016 0
DWIDTH 18 0
BBX 16 16 1 -2
BITMAP
0400
0c00
0800
1ffe
3002
6002
cfc2
0842
0842
0842
0842
0fc2
0002
0006
0004
001c
ENDCHAR
STARTCHAR 3668
ENCODING 13928
SWIDTH 1016 0
DWIDTH 18 0
BBX 16 16 1 -2
BITMAP
0000
7ffe
4000
4008
4c18
4610
4330
41e0
40c0
41e0
4330
4618
5c08
4000
7ffe
0000
ENDCHAR
STARTCHAR 3669
ENCODING 13929
SWIDTH 1016 0
DWIDTH 18 0
BBX 16 16 1 -2
BITMAP
0900
8900
5100
23fe
5202
9602
19f2
2912
2912
4912
8912
09f2
0802
0802
1806
701c
ENDCHAR
STARTCHAR 366a
ENCODING 13930
SWIDTH 1016 0
DWIDTH 18 0
BBX 16 16 1 -2
BITMAP
0080
0080
f8f8
2088
2188
2108
2318
f810
2030
2020
2070
2050
38d8
e18c
0306
0603
ENDCHAR
STARTCHAR 366b
ENCODING 13931
SWIDTH 1016 0
DWIDTH 18 0
BBX 16 16 1 -2
BITMAP
2000
20ff
2080
7e80
5080
d0fe
1082
ff82
1082
10fe
3880
2c80
6680
4280
c0ff
0000
ENDCHAR
STARTCHAR 366c
ENCODING 13932
SWIDTH 1016 0
DWIDTH 18 0
BBX 16 16 1 -2
BITMAP
0810
0810
ffff
0810
0810
0100
0100
ffff
0100
0100
1ff8
1008
1008
1008
1008
1ff8
ENDCHAR
STARTCHAR 366d
ENCODING 13933
SWIDTH 1016 0
DWIDTH 18 0
BBX 16 16 1 -2
BITMAP
0800
10ff
7e80
4280
42a2
7eb6
4294
429c
7e88
4288
429c
fe94
0ab6
12a2
2280
ceff
ENDCHAR
STARTCHAR 366e
ENCODING 13934
SWIDTH 1016 0
DWIDTH 18 0
BBX 16 16 1 -2
BITMAP
0000
7fbf
4420
4420
7f2a
442a
442a
7f24
4424
4424
7faa
00aa
aaaa
aaa0
81a0
073f
ENDCHAR
STARTCHAR 366f
ENCODING 13935
SWIDTH 1016 0
DWIDTH 18 0
BBX 16 16 1 -2
BITMAP
0006
7f8c
4438
4420
7f20
443f
4424
7f24
4424
4424
7fa4
00a4
aaa4
aaa4
81a4
077f
ENDCHAR
STARTCHAR 3670
ENCODING 13936
SWIDTH 1016 0
DWIDTH 18 0
BBX 16 16 1 -2
BITMAP
0020
7f20
443f
4461
7f41
44fd
4425
7f25
4425
4425
7fbd
0081
aa81
aa83
8182
070e
ENDCHAR
STARTCHAR 3671
ENCODING 13937
SWIDTH 1016 0
DWIDTH 18 0
BBX 16 16 1 -2
BITMAP
0000
1ff8
1008
1008
1ff8
1008
1008
1ff8
1008
1008
1ff8
0000
ffff
0810
1818
700e
ENDCHAR
STARTCHAR 3672
ENCODING 13938
SWIDTH 1016 0
DWIDTH 18 0
BBX 16 16 1 -2
BITMAP
3ffc
2104
3ffc
2104
3ffc
0100
7ffe
4112
41fa
5f0a
4006
0180
24c6
244b
6619
c3f0
ENDCHAR
STARTCHAR 3673
ENCODING 13939
SWIDTH 1016 0
DWIDTH 18 0
BBX 16 16 1 -2
BITMAP
0100
01fc
0100
3ffe
2102
2ff8
2102
20fe
2000
2bf8
2a08
2ffc
6004
5fff
c208
0c06
ENDCHAR
STARTCHAR 3674
ENCODING 13940
SWIDTH 1016 0
DWIDTH 18 0
BBX 16 16 1 -2
BITMAP
0020
0070
f8d8
898c
8f27
89fc
8904
89fc
8904
89fd
8923
f936
0118
010c
01e6
0703
ENDCHAR
STARTCHAR 3675
ENCODING 13941
SWIDTH 1016 0
DWIDTH 18 0
BBX 16 16 1 -2
BITMAP
0100
0100
7ffe
4002
4442
0440
0c40
187e
7000
0000
3ffc
0100
0100
0100
ffff
0000
ENDCHAR
STARTCHAR 3676
ENCODING 13942
SWIDTH 1016 0
DWIDTH 18 0
BBX 16 16 1 -2
BITMAP
0800
0bfe
1a22
1222
33fe
2222
6222
a3fe
2020
27ff
2421
2429
243d
25e5
2401
2407
ENDCHAR
STARTCHAR 3677
ENCODING 13943
SWIDTH 1016 0
DWIDTH 18 0
BBX 16 16 1 -2
BITMAP
0100
0100
7ffe
4002
5ffa
1108
1ff8
1108
1ff8
0100
7ffe
4102
4122
43f2
5e12
4006
ENDCHAR
STARTCHAR 3678
ENCODING 13944
SWIDTH 1016 0
DWIDTH 18 0
BBX 16 16 1 -2
BITMAP
0000
63fc
3244
13fc
0244
0244
03fc
e040
27fe
2442
2452
247a
25ca
6406
5000
cfff
ENDCHAR
STARTCHAR 3679
ENCODING 13945
SWIDTH 1016 0
DWIDTH 18 0
BBX 16 16 1 -2
BITMAP
0000
7dfe
4522
4d22
59fe
5122
5122
49fe
4820
4bff
4a21
4a29
5a3d
42e5
4201
4207
ENDCHAR
STARTCHAR 367a
ENCODING 13946
SWIDTH 1016 0
DWIDTH 18 0
BBX 16 16 1 -2
BITMAP
0100
0100
3ffc
2104
2104
2104
3ffc
0100
7ffe
4102
4102
4102
7ffe
0100
0100
0100
ENDCHAR
STARTCHAR 367b
ENCODING 13947
SWIDTH 1016 0
DWIDTH 18 0
BBX 16 16 1 -2
BITMAP
2210
2210
27df
f528
2884
2000
67df
7451
6fd1
a451
a7d1
2411
2491
27d7
2c50
2010
ENDCHAR
STARTCHAR 367c
ENCODING 13948
SWIDTH 1016 0
DWIDTH 18 0
BBX 16 16 1 -2
BITMAP
1002
3892
2c92
6692
4292
fc92
1092
1092
fe92
1092
9492
d492
5092
1f82
f102
0302
ENDCHAR
STARTCHAR 367d
ENCODING 13949
SWIDTH 1016 0
DWIDTH 18 0
BBX 16 16 1 -2
BITMAP
0000
3ffe
2002
2002
3ffe
2000
2444
2248
27fe
2402
27fe
2402
67fe
4402
c402
040e
ENDCHAR
STARTCHAR 367e
ENCODING 13950
SWIDTH 1016 0
DWIDTH 18 0
BBX 16 16 1 -2
BITMAP
0000
3ffe
2002
2002
3ffe
2000
2040
2444
2444
2444
27fc
2040
6842
4842
c842
0ffe
ENDCHAR
STARTCHAR 3721
ENCODING 14113
SWIDTH 1016 0
DWIDTH 18 0
BBX 16 16 1 -2
BITMAP
2000
23fe
2202
2202
fbfe
2200
2210
2292
3a92
e2fe
2210
2210
2692
2492
2c92
60fe
ENDCHAR
STARTCHAR 3722
ENCODING 14114
SWIDTH 1016 0
DWIDTH 18 0
BBX 16 16 1 -2
BITMAP
0100
0100
7ffe
4422
583f
e000
3ffe
2002
3ffe
2000
2444
2444
67fc
4842
c842
0ffe
ENDCHAR
STARTCHAR 3723
ENCODING 14115
SWIDTH 1016 0
DWIDTH 18 0
BBX 16 16 1 -2
BITMAP
0100
0106
fd8c
05d8
0d60
1930
311c
e707
0000
3ffc
2004
2004
3ffc
2004
2004
3ffc
ENDCHAR
STARTCHAR 3724
ENCODING 14116
SWIDTH 1016 0
DWIDTH 18 0
BBX 16 16 1 -2
BITMAP
2228
2228
ffa8
2268
2249
3e4b
08ce
7f48
4948
4948
7f48
0848
ffc8
0849
0849
0847
ENDCHAR
STARTCHAR 3725
ENCODING 14117
SWIDTH 1016 0
DWIDTH 18 0
BBX 16 16 1 -2
BITMAP
2104
47c8
9112
67cc
5549
f7df
2544
b7cd
a915
a7c5
2104
0000
3ffc
2004
2004
3ffc
ENDCHAR
STARTCHAR 3726
ENCODING 14118
SWIDTH 1016 0
DWIDTH 18 0
BBX 16 16 1 -2
BITMAP
0100
0100
7ffe
4442
4c42
f87f
0000
6020
33fe
c020
67ff
0000
1020
33fe
6020
c7ff
ENDCHAR
STARTCHAR 3727
ENCODING 14119
SWIDTH 1016 0
DWIDTH 18 0
BBX 16 16 1 -2
BITMAP
2040
4246
ff7c
0140
7e41
423f
7e00
4246
7e7c
4240
4241
463f
0000
2444
6666
c223
ENDCHAR
STARTCHAR 3728
ENCODING 14120
SWIDTH 1016 0
DWIDTH 18 0
BBX 16 16 1 -2
BITMAP
0000
79fc
4924
4924
59fc
5124
5124
49fc
4800
4fff
4920
4932
5914
4118
41cc
4707
ENDCHAR
STARTCHAR 3729
ENCODING 14121
SWIDTH 1016 0
DWIDTH 18 0
BBX 16 16 1 -2
BITMAP
0200
07e0
1c40
70c0
0360
0e30
381c
e107
1108
0910
ffff
0540
0d70
391c
e107
0100
ENDCHAR
STARTCHAR 372a
ENCODING 14122
SWIDTH 1016 0
DWIDTH 18 0
BBX 16 16 1 -2
BITMAP
0000
ffff
0440
0440
7ffe
4442
4442
7ffe
0100
ffff
0520
0d30
1918
310c
e107
0100
ENDCHAR
STARTCHAR 372b
ENCODING 14123
SWIDTH 1016 0
DWIDTH 18 0
BBX 16 16 1 -2
BITMAP
107c
3044
6044
c47c
6c00
19ef
3129
6529
fdef
1410
51ff
5854
d454
90d6
1193
1010
ENDCHAR
STARTCHAR 372c
ENCODING 14124
SWIDTH 1016 0
DWIDTH 18 0
BBX 16 16 1 -2
BITMAP
1ff0
0460
0380
1c78
0000
7e7e
2424
1818
e667
0100
ffff
0520
0d30
391c
e107
0100
ENDCHAR
STARTCHAR 372d
ENCODING 14125
SWIDTH 1016 0
DWIDTH 18 0
BBX 16 16 1 -2
BITMAP
1024
38e4
2f84
6495
4095
fff5
1095
11c4
fda4
12a4
948e
d48a
508a
1c8a
709b
c091
ENDCHAR
STARTCHAR 372e
ENCODING 14126
SWIDTH 1016 0
DWIDTH 18 0
BBX 16 16 1 -2
BITMAP
0310
7e10
0810
ff90
087f
7f11
4911
7f11
4911
7f31
0823
7f22
0866
ff80
4422
8211
ENDCHAR
STARTCHAR 372f
ENCODING 14127
SWIDTH 1016 0
DWIDTH 18 0
BBX 16 16 1 -2
BITMAP
0000
3ffc
0204
0204
ffff
0204
0204
3ffc
0400
0800
1ffe
2802
c802
0802
0802
0ffe
ENDCHAR
STARTCHAR 3730
ENCODING 14128
SWIDTH 1016 0
DWIDTH 18 0
BBX 16 16 1 -2
BITMAP
0810
ffff
0810
3ff8
0100
ffff
2104
3ffc
2104
3ffc
0100
7ffe
0100
ffff
4842
8421
ENDCHAR
STARTCHAR 3731
ENCODING 14129
SWIDTH 1016 0
DWIDTH 18 0
BBX 16 16 1 -2
BITMAP
0002
7c82
0092
fe92
0092
7c92
0092
0092
7c92
0092
0092
7c92
4492
4482
4482
7d02
ENDCHAR
STARTCHAR 3732
ENCODING 14130
SWIDTH 1016 0
DWIDTH 18 0
BBX 16 16 1 -2
BITMAP
0041
7e63
1222
127f
ff08
1208
1208
7e3e
2008
2008
7e08
a27f
2208
2208
2208
3e08
ENDCHAR
STARTCHAR 3733
ENCODING 14131
SWIDTH 1016 0
DWIDTH 18 0
BBX 16 16 1 -2
BITMAP
0000
7ffe
4002
4102
3ffc
0100
3ffc
2104
3ffc
2104
2104
3ffc
0100
ffff
0100
0100
ENDCHAR
STARTCHAR 3734
ENCODING 14132
SWIDTH 1016 0
DWIDTH 18 0
BBX 16 16 1 -2
BITMAP
0000
7f3f
1121
1123
ffe2
1126
1124
7f22
2021
2021
7f21
a121
2127
2120
2120
3f20
ENDCHAR
STARTCHAR 3735
ENCODING 14133
SWIDTH 1016 0
DWIDTH 18 0
BBX 16 16 1 -2
BITMAP
0810
0810
7f10
0810
0810
0810
ff9c
0016
0813
0810
7f10
0810
0810
0b90
3e10
e010
ENDCHAR
ENDFONT
